<?xml version="1.0"?>
<svg width="1588" height="935"
     xmlns="http://www.w3.org/2000/svg"
     shape-rendering="crispEdges">
<polygon points="817,562 837,596 849,572" style="fill:rgb(80,172,180)"/>
<polygon points="817,562 770,566 837,596" style="fill:rgb(62,158,171)"/>
<polygon points="770,566 815,661 837,596" style="fill:rgb(58,149,170)"/>
<polygon points="837,596 894,661 849,572" style="fill:rgb(79,171,179)"/>
<polygon points="870,681 894,661 837,596" style="fill:rgb(55,140,155)"/>
<polygon points="770,566 721,586 815,661" style="fill:rgb(37,135,171)"/>
<polygon points="815,661 870,681 837,596" style="fill:rgb(63,153,174)"/>
<polygon points="696,640 819,702 815,661" style="fill:rgb(69,162,186)"/>
<polygon points="815,661 819,702 870,681" style="fill:rgb(49,142,173)"/>
<polygon points="932,772 908,685 870,681" style="fill:rgb(49,146,171)"/>
<polygon points="870,681 908,685 894,661" style="fill:rgb(41,136,159)"/>
<polygon points="894,661 976,648 849,572" style="fill:rgb(5,89,122)"/>
<polygon points="721,586 696,640 815,661" style="fill:rgb(74,170,191)"/>
<polygon points="661,459 699,498 716,170" style="fill:rgb(4,93,126)"/>
<polygon points="817,562 699,498 770,566" style="fill:rgb(4,92,126)"/>
<polygon points="770,566 699,498 721,586" style="fill:rgb(20,120,153)"/>
<polygon points="721,586 674,558 696,640" style="fill:rgb(67,168,186)"/>
<polygon points="699,498 674,558 721,586" style="fill:rgb(36,138,169)"/>
<polygon points="908,685 976,648 894,661" style="fill:rgb(5,90,123)"/>
<polygon points="607,570 682,656 696,640" style="fill:rgb(42,152,182)"/>
<polygon points="696,640 682,656 819,702" style="fill:rgb(47,147,175)"/>
<polygon points="1064,700 1006,638 976,648" style="fill:rgb(50,151,173)"/>
<polygon points="976,648 1006,638 849,572" style="fill:rgb(3,85,119)"/>
<polygon points="716,170 699,498 935,135" style="fill:rgb(4,92,127)"/>
<polygon points="699,498 817,562 935,135" style="fill:rgb(3,90,126)"/>
<polygon points="699,498 609,536 674,558" style="fill:rgb(50,164,183)"/>
<polygon points="674,558 607,570 696,640" style="fill:rgb(75,183,201)"/>
<polygon points="682,656 796,788 819,702" style="fill:rgb(48,135,169)"/>
<polygon points="819,702 932,772 870,681" style="fill:rgb(58,148,176)"/>
<polygon points="908,685 932,772 976,648" style="fill:rgb(52,145,172)"/>
<polygon points="796,788 932,772 819,702" style="fill:rgb(56,138,174)"/>
<polygon points="609,536 607,570 674,558" style="fill:rgb(67,180,196)"/>
<polygon points="814,894 842,857 763,888" style="fill:rgb(41,126,150)"/>
<polygon points="661,459 609,536 699,498" style="fill:rgb(56,175,185)"/>
<polygon points="661,459 598,503 609,536" style="fill:rgb(21,129,163)"/>
<polygon points="609,536 506,539 607,570" style="fill:rgb(39,141,183)"/>
<polygon points="932,772 1064,700 976,648" style="fill:rgb(48,143,173)"/>
<polygon points="622,766 796,788 682,656" style="fill:rgb(44,137,170)"/>
<polygon points="796,788 842,857 932,772" style="fill:rgb(67,153,185)"/>
<polygon points="1047,813 1093,755 1064,700" style="fill:rgb(37,125,158)"/>
<polygon points="603,809 622,766 544,800" style="fill:rgb(54,135,179)"/>
<polygon points="499,681 622,766 682,656" style="fill:rgb(47,139,176)"/>
<polygon points="842,857 954,829 932,772" style="fill:rgb(63,146,174)"/>
<polygon points="622,766 648,821 796,788" style="fill:rgb(46,142,173)"/>
<polygon points="632,808 648,821 622,766" style="fill:rgb(43,120,144)"/>
<polygon points="1093,755 1106,716 1064,700" style="fill:rgb(33,129,157)"/>
<polygon points="1064,700 1106,716 1006,638" style="fill:rgb(28,129,152)"/>
<polygon points="842,857 888,885 954,829" style="fill:rgb(53,134,156)"/>
<polygon points="1047,813 1064,700 932,772" style="fill:rgb(48,139,169)"/>
<polygon points="814,894 888,885 842,857" style="fill:rgb(46,128,152)"/>
<polygon points="763,888 842,857 796,788" style="fill:rgb(54,146,173)"/>
<polygon points="1047,813 932,772 954,829" style="fill:rgb(51,129,155)"/>
<polygon points="648,821 763,888 796,788" style="fill:rgb(54,149,176)"/>
<polygon points="1068,935 1047,813 954,829" style="fill:rgb(44,124,146)"/>
<polygon points="763,888 792,899 814,894" style="fill:rgb(32,111,129)"/>
<polygon points="814,894 882,935 888,885" style="fill:rgb(37,116,133)"/>
<polygon points="622,766 603,809 632,808" style="fill:rgb(60,75,87)"/>
<polygon points="632,808 592,832 648,821" style="fill:rgb(47,77,88)"/>
<polygon points="648,821 651,856 763,888" style="fill:rgb(35,124,149)"/>
<polygon points="499,681 682,656 607,570" style="fill:rgb(40,144,179)"/>
<polygon points="538,141 506,539 598,503" style="fill:rgb(4,92,127)"/>
<polygon points="598,503 506,539 609,536" style="fill:rgb(33,136,178)"/>
<polygon points="506,539 501,566 607,570" style="fill:rgb(40,140,182)"/>
<polygon points="592,832 651,856 648,821" style="fill:rgb(28,82,92)"/>
<polygon points="763,888 718,909 792,899" style="fill:rgb(20,92,110)"/>
<polygon points="501,566 499,681 607,570" style="fill:rgb(48,152,192)"/>
<polygon points="544,800 592,832 603,809" style="fill:rgb(41,124,153)"/>
<polygon points="603,809 592,832 632,808" style="fill:rgb(54,68,79)"/>
<polygon points="670,892 718,909 651,856" style="fill:rgb(30,64,74)"/>
<polygon points="651,856 718,909 763,888" style="fill:rgb(28,112,133)"/>
<polygon points="590,892 670,892 651,856" style="fill:rgb(76,72,76)"/>
<polygon points="718,909 882,935 792,899" style="fill:rgb(14,46,57)"/>
<polygon points="792,899 882,935 814,894" style="fill:rgb(24,92,105)"/>
<polygon points="888,885 1068,935 954,829" style="fill:rgb(48,130,148)"/>
<polygon points="499,681 544,800 622,766" style="fill:rgb(58,137,176)"/>
<polygon points="592,832 593,855 651,856" style="fill:rgb(48,72,79)"/>
<polygon points="582,857 593,855 592,832" style="fill:rgb(99,193,186)"/>
<polygon points="539,815 582,857 592,832" style="fill:rgb(112,200,201)"/>
<polygon points="593,855 590,892 651,856" style="fill:rgb(51,56,64)"/>
<polygon points="480,759 539,815 544,800" style="fill:rgb(150,225,232)"/>
<polygon points="544,800 539,815 592,832" style="fill:rgb(132,214,220)"/>
<polygon points="506,539 448,572 501,566" style="fill:rgb(93,194,215)"/>
<polygon points="501,566 448,572 499,681" style="fill:rgb(49,152,192)"/>
<polygon points="499,681 480,759 544,800" style="fill:rgb(58,143,183)"/>
<polygon points="467,764 480,759 433,742" style="fill:rgb(120,213,227)"/>
<polygon points="564,883 590,892 582,857" style="fill:rgb(43,49,56)"/>
<polygon points="564,883 582,857 532,865" style="fill:rgb(101,184,176)"/>
<polygon points="582,857 590,892 593,855" style="fill:rgb(46,52,60)"/>
<polygon points="670,892 574,935 718,909" style="fill:rgb(14,36,47)"/>
<polygon points="718,909 574,935 882,935" style="fill:rgb(20,43,53)"/>
<polygon points="506,539 430,552 448,572" style="fill:rgb(114,206,220)"/>
<polygon points="433,742 480,759 499,681" style="fill:rgb(57,152,196)"/>
<polygon points="538,141 430,552 506,539" style="fill:rgb(4,93,128)"/>
<polygon points="1106,716 1214,697 1006,638" style="fill:rgb(3,83,116)"/>
<polygon points="935,135 817,562 849,572" style="fill:rgb(3,89,123)"/>
<polygon points="1191,767 1214,697 1106,716" style="fill:rgb(4,86,120)"/>
<polygon points="1191,767 1106,716 1093,755" style="fill:rgb(30,124,151)"/>
<polygon points="1191,767 1093,755 1219,813" style="fill:rgb(28,108,141)"/>
<polygon points="532,865 582,857 539,815" style="fill:rgb(60,154,182)"/>
<polygon points="433,742 499,681 355,594" style="fill:rgb(69,170,207)"/>
<polygon points="480,759 467,764 539,815" style="fill:rgb(110,201,216)"/>
<polygon points="1219,813 1093,755 1047,813" style="fill:rgb(43,126,160)"/>
<polygon points="485,861 532,865 539,815" style="fill:rgb(61,152,179)"/>
<polygon points="529,890 538,882 532,865" style="fill:rgb(117,189,174)"/>
<polygon points="532,865 538,882 564,883" style="fill:rgb(120,194,179)"/>
<polygon points="564,883 574,935 590,892" style="fill:rgb(36,43,50)"/>
<polygon points="1246,401 849,572 1006,638" style="fill:rgb(3,80,114)"/>
<polygon points="661,459 538,141 598,503" style="fill:rgb(3,91,126)"/>
<polygon points="355,594 499,681 448,572" style="fill:rgb(58,162,199)"/>
<polygon points="488,880 529,890 532,865" style="fill:rgb(123,197,183)"/>
<polygon points="882,935 1068,935 888,885" style="fill:rgb(47,122,134)"/>
<polygon points="485,861 539,815 467,764" style="fill:rgb(47,142,179)"/>
<polygon points="538,882 529,890 564,883" style="fill:rgb(54,80,79)"/>
<polygon points="590,892 574,935 670,892" style="fill:rgb(15,34,45)"/>
<polygon points="529,890 574,935 564,883" style="fill:rgb(32,43,50)"/>
<polygon points="438,851 485,861 467,764" style="fill:rgb(37,134,164)"/>
<polygon points="529,890 493,892 574,935" style="fill:rgb(15,41,51)"/>
<polygon points="1214,697 1246,401 1006,638" style="fill:rgb(3,77,110)"/>
<polygon points="1104,182 935,135 849,572" style="fill:rgb(3,87,122)"/>
<polygon points="1223,879 1219,813 1047,813" style="fill:rgb(48,126,159)"/>
<polygon points="1191,767 1318,804 1214,697" style="fill:rgb(5,90,124)"/>
<polygon points="1214,697 1578,697 1246,401" style="fill:rgb(3,77,112)"/>
<polygon points="438,851 488,880 485,861" style="fill:rgb(69,97,96)"/>
<polygon points="485,861 488,880 532,865" style="fill:rgb(91,183,177)"/>
<polygon points="488,880 493,892 529,890" style="fill:rgb(36,97,101)"/>
<polygon points="335,558 365,570 430,552" style="fill:rgb(111,204,220)"/>
<polygon points="430,552 365,570 448,572" style="fill:rgb(101,194,218)"/>
<polygon points="339,699 391,752 433,742" style="fill:rgb(53,155,193)"/>
<polygon points="433,742 391,752 467,764" style="fill:rgb(91,191,210)"/>
<polygon points="488,880 411,903 493,892" style="fill:rgb(58,71,73)"/>
<polygon points="365,570 355,594 448,572" style="fill:rgb(54,152,190)"/>
<polygon points="391,752 438,851 467,764" style="fill:rgb(37,135,169)"/>
<polygon points="1246,401 1104,182 849,572" style="fill:rgb(3,83,119)"/>
<polygon points="227,490 335,558 430,552" style="fill:rgb(5,100,135)"/>
<polygon points="365,570 334,573 355,594" style="fill:rgb(53,145,185)"/>
<polygon points="355,594 339,699 433,742" style="fill:rgb(78,176,212)"/>
<polygon points="1068,935 1223,879 1047,813" style="fill:rgb(42,120,145)"/>
<polygon points="1219,813 1318,804 1191,767" style="fill:rgb(29,111,137)"/>
<polygon points="335,558 334,573 365,570" style="fill:rgb(80,172,205)"/>
<polygon points="299,651 339,699 355,594" style="fill:rgb(81,179,214)"/>
<polygon points="387,863 414,871 438,851" style="fill:rgb(68,91,94)"/>
<polygon points="1068,935 1191,935 1223,879" style="fill:rgb(43,131,155)"/>
<polygon points="377,845 438,851 391,752" style="fill:rgb(36,134,166)"/>
<polygon points="438,851 414,871 488,880" style="fill:rgb(103,115,111)"/>
<polygon points="493,892 411,903 574,935" style="fill:rgb(21,41,52)"/>
<polygon points="1191,935 1212,935 1223,879" style="fill:rgb(66,153,172)"/>
<polygon points="227,703 336,755 339,699" style="fill:rgb(50,153,193)"/>
<polygon points="339,699 336,755 391,752" style="fill:rgb(61,159,194)"/>
<polygon points="658,0 538,141 716,170" style="fill:rgb(4,96,130)"/>
<polygon points="716,170 538,141 661,459" style="fill:rgb(3,91,126)"/>
<polygon points="336,755 377,845 391,752" style="fill:rgb(45,138,176)"/>
<polygon points="377,845 387,863 438,851" style="fill:rgb(92,183,183)"/>
<polygon points="414,871 411,903 488,880" style="fill:rgb(73,82,82)"/>
<polygon points="387,863 411,903 414,871" style="fill:rgb(33,50,60)"/>
<polygon points="334,573 299,651 355,594" style="fill:rgb(79,164,199)"/>
<polygon points="287,573 299,651 334,573" style="fill:rgb(79,153,208)"/>
<polygon points="1212,935 1249,914 1223,879" style="fill:rgb(73,155,173)"/>
<polygon points="1309,876 1318,804 1219,813" style="fill:rgb(38,119,141)"/>
<polygon points="1231,935 1249,914 1212,935" style="fill:rgb(29,70,81)"/>
<polygon points="1309,876 1219,813 1223,879" style="fill:rgb(48,125,158)"/>
<polygon points="285,549 287,573 335,558" style="fill:rgb(106,193,216)"/>
<polygon points="335,558 287,573 334,573" style="fill:rgb(100,177,212)"/>
<polygon points="227,490 285,549 335,558" style="fill:rgb(5,102,139)"/>
<polygon points="377,845 358,859 387,863" style="fill:rgb(118,198,194)"/>
<polygon points="387,863 357,898 411,903" style="fill:rgb(16,38,49)"/>
<polygon points="347,846 358,859 377,845" style="fill:rgb(137,214,214)"/>
<polygon points="347,846 377,845 319,823" style="fill:rgb(69,167,178)"/>
<polygon points="319,823 377,845 336,755" style="fill:rgb(40,130,165)"/>
<polygon points="1231,935 1309,876 1249,914" style="fill:rgb(27,65,78)"/>
<polygon points="1249,914 1309,876 1223,879" style="fill:rgb(64,145,169)"/>
<polygon points="308,844 319,823 296,847" style="fill:rgb(100,148,164)"/>
<polygon points="296,898 357,898 358,859" style="fill:rgb(89,95,98)"/>
<polygon points="227,703 339,699 299,651" style="fill:rgb(83,173,210)"/>
<polygon points="1139,0 843,8 935,135" style="fill:rgb(5,92,126)"/>
<polygon points="935,135 843,8 716,170" style="fill:rgb(3,96,130)"/>
<polygon points="308,844 358,859 347,846" style="fill:rgb(89,105,125)"/>
<polygon points="358,859 357,898 387,863" style="fill:rgb(27,61,73)"/>
<polygon points="411,903 227,905 574,935" style="fill:rgb(17,37,48)"/>
<polygon points="1309,876 1350,841 1318,804" style="fill:rgb(27,118,141)"/>
<polygon points="1318,804 1380,802 1214,697" style="fill:rgb(4,86,121)"/>
<polygon points="209,520 248,630 287,573" style="fill:rgb(103,166,226)"/>
<polygon points="287,573 248,630 299,651" style="fill:rgb(84,155,218)"/>
<polygon points="298,850 308,844 296,847" style="fill:rgb(149,131,129)"/>
<polygon points="319,823 308,844 347,846" style="fill:rgb(97,180,196)"/>
<polygon points="1350,841 1380,802 1318,804" style="fill:rgb(5,86,120)"/>
<polygon points="296,847 319,823 217,809" style="fill:rgb(115,182,188)"/>
<polygon points="308,844 296,898 358,859" style="fill:rgb(134,123,124)"/>
<polygon points="216,797 319,823 336,755" style="fill:rgb(41,134,170)"/>
<polygon points="843,8 658,0 716,170" style="fill:rgb(5,102,134)"/>
<polygon points="538,141 227,490 430,552" style="fill:rgb(3,92,128)"/>
<polygon points="285,549 209,520 287,573" style="fill:rgb(118,199,221)"/>
<polygon points="348,29 227,490 538,141" style="fill:rgb(4,94,129)"/>
<polygon points="161,598 227,703 248,630" style="fill:rgb(61,140,206)"/>
<polygon points="248,630 227,703 299,651" style="fill:rgb(56,133,191)"/>
<polygon points="227,905 296,898 296,847" style="fill:rgb(40,49,59)"/>
<polygon points="296,847 296,898 298,850" style="fill:rgb(62,50,54)"/>
<polygon points="298,850 296,898 308,844" style="fill:rgb(139,126,126)"/>
<polygon points="357,898 296,898 411,903" style="fill:rgb(55,70,75)"/>
<polygon points="227,490 209,520 285,549" style="fill:rgb(5,103,141)"/>
<polygon points="1442,826 1380,802 1350,841" style="fill:rgb(7,27,43)"/>
<polygon points="1442,826 1426,797 1380,802" style="fill:rgb(7,32,50)"/>
<polygon points="1380,802 1426,797 1214,697" style="fill:rgb(3,81,117)"/>
<polygon points="1442,826 1350,841 1309,876" style="fill:rgb(7,27,42)"/>
<polygon points="134,769 216,797 227,703" style="fill:rgb(44,148,184)"/>
<polygon points="227,703 216,797 336,755" style="fill:rgb(40,140,179)"/>
<polygon points="1319,9 1139,0 1104,182" style="fill:rgb(5,87,120)"/>
<polygon points="1104,182 1139,0 935,135" style="fill:rgb(4,90,125)"/>
<polygon points="843,8 1139,0 658,0" style="fill:rgb(14,103,133)"/>
<polygon points="1440,183 1104,182 1246,401" style="fill:rgb(3,77,113)"/>
<polygon points="216,797 217,809 319,823" style="fill:rgb(48,84,103)"/>
<polygon points="227,490 173,557 209,520" style="fill:rgb(8,106,149)"/>
<polygon points="209,520 173,557 248,630" style="fill:rgb(98,160,220)"/>
<polygon points="198,839 213,827 164,817" style="fill:rgb(109,136,138)"/>
<polygon points="217,809 224,840 296,847" style="fill:rgb(100,125,128)"/>
<polygon points="1560,908 1442,826 1309,876" style="fill:rgb(7,25,40)"/>
<polygon points="1426,797 1578,697 1214,697" style="fill:rgb(4,82,117)"/>
<polygon points="217,809 213,827 224,840" style="fill:rgb(48,53,60)"/>
<polygon points="204,849 213,827 198,839" style="fill:rgb(95,112,116)"/>
<polygon points="173,557 161,598 248,630" style="fill:rgb(80,151,216)"/>
<polygon points="213,827 217,809 164,817" style="fill:rgb(54,64,72)"/>
<polygon points="213,827 204,849 224,840" style="fill:rgb(55,61,69)"/>
<polygon points="224,840 227,905 296,847" style="fill:rgb(46,61,71)"/>
<polygon points="163,811 217,809 216,797" style="fill:rgb(95,159,182)"/>
<polygon points="148,884 227,905 204,849" style="fill:rgb(20,42,53)"/>
<polygon points="204,849 227,905 224,840" style="fill:rgb(40,50,62)"/>
<polygon points="296,898 227,905 411,903" style="fill:rgb(24,42,52)"/>
<polygon points="1442,826 1480,805 1426,797" style="fill:rgb(7,76,110)"/>
<polygon points="161,598 139,703 227,703" style="fill:rgb(53,136,201)"/>
<polygon points="141,792 163,811 216,797" style="fill:rgb(100,188,202)"/>
<polygon points="198,839 151,842 204,849" style="fill:rgb(87,98,102)"/>
<polygon points="146,815 164,817 163,811" style="fill:rgb(58,72,79)"/>
<polygon points="163,811 164,817 217,809" style="fill:rgb(60,85,107)"/>
<polygon points="134,769 141,792 216,797" style="fill:rgb(70,182,204)"/>
<polygon points="164,817 151,842 198,839" style="fill:rgb(128,146,148)"/>
<polygon points="139,703 134,769 227,703" style="fill:rgb(57,152,195)"/>
<polygon points="137,802 146,815 141,792" style="fill:rgb(82,98,108)"/>
<polygon points="141,792 146,815 163,811" style="fill:rgb(65,90,110)"/>
<polygon points="1576,379 1440,183 1246,401" style="fill:rgb(3,79,117)"/>
<polygon points="95,782 137,802 141,792" style="fill:rgb(52,62,79)"/>
<polygon points="97,855 151,842 146,815" style="fill:rgb(115,113,114)"/>
<polygon points="146,815 151,842 164,817" style="fill:rgb(127,153,154)"/>
<polygon points="658,0 348,29 538,141" style="fill:rgb(4,98,131)"/>
<polygon points="18,595 94,628 173,557" style="fill:rgb(10,105,151)"/>
<polygon points="134,769 95,782 141,792" style="fill:rgb(77,173,207)"/>
<polygon points="71,757 95,782 134,769" style="fill:rgb(45,150,183)"/>
<polygon points="161,598 94,628 139,703" style="fill:rgb(49,129,193)"/>
<polygon points="173,557 94,628 161,598" style="fill:rgb(79,152,213)"/>
<polygon points="18,595 173,557 227,490" style="fill:rgb(7,102,146)"/>
<polygon points="98,803 146,815 137,802" style="fill:rgb(103,143,152)"/>
<polygon points="129,905 148,884 97,855" style="fill:rgb(74,85,91)"/>
<polygon points="151,842 148,884 204,849" style="fill:rgb(26,50,60)"/>
<polygon points="1440,183 1319,9 1104,182" style="fill:rgb(3,82,118)"/>
<polygon points="1480,805 1578,697 1426,797" style="fill:rgb(7,80,113)"/>
<polygon points="71,757 134,769 139,703" style="fill:rgb(59,158,200)"/>
<polygon points="95,782 98,803 137,802" style="fill:rgb(86,116,128)"/>
<polygon points="1480,805 1588,697 1578,697" style="fill:rgb(5,67,97)"/>
<polygon points="1578,697 1576,379 1246,401" style="fill:rgb(3,80,118)"/>
<polygon points="1588,379 1576,379 1578,697" style="fill:rgb(2,72,105)"/>
<polygon points="97,855 148,884 151,842" style="fill:rgb(84,91,96)"/>
<polygon points="148,884 129,905 227,905" style="fill:rgb(18,41,52)"/>
<polygon points="227,905 0,935 574,935" style="fill:rgb(21,43,53)"/>
<polygon points="95,782 69,796 98,803" style="fill:rgb(57,67,83)"/>
<polygon points="98,803 97,855 146,815" style="fill:rgb(129,125,127)"/>
<polygon points="46,695 64,723 139,703" style="fill:rgb(47,131,197)"/>
<polygon points="64,723 71,757 139,703" style="fill:rgb(71,166,209)"/>
<polygon points="68,834 97,855 98,803" style="fill:rgb(55,58,66)"/>
<polygon points="1588,697 1588,379 1578,697" style="fill:rgb(2,73,101)"/>
<polygon points="1576,379 1571,84 1440,183" style="fill:rgb(3,76,113)"/>
<polygon points="1440,183 1459,26 1319,9" style="fill:rgb(4,83,117)"/>
<polygon points="14,756 69,796 71,757" style="fill:rgb(101,113,122)"/>
<polygon points="71,757 69,796 95,782" style="fill:rgb(76,172,200)"/>
<polygon points="94,628 46,695 139,703" style="fill:rgb(43,123,187)"/>
<polygon points="64,723 13,747 71,757" style="fill:rgb(76,172,211)"/>
<polygon points="0,651 46,695 94,628" style="fill:rgb(74,150,208)"/>
<polygon points="1231,935 1560,908 1309,876" style="fill:rgb(9,28,41)"/>
<polygon points="1442,826 1560,908 1480,805" style="fill:rgb(6,27,44)"/>
<polygon points="1480,805 1560,908 1588,697" style="fill:rgb(5,28,45)"/>
<polygon points="37,855 68,834 11,830" style="fill:rgb(96,102,108)"/>
<polygon points="69,796 68,834 98,803" style="fill:rgb(55,56,66)"/>
<polygon points="97,855 75,892 129,905" style="fill:rgb(68,77,84)"/>
<polygon points="18,210 18,595 227,490" style="fill:rgb(7,97,136)"/>
<polygon points="46,695 13,747 64,723" style="fill:rgb(67,153,211)"/>
<polygon points="68,834 75,892 97,855" style="fill:rgb(52,55,66)"/>
<polygon points="37,855 75,892 68,834" style="fill:rgb(82,91,98)"/>
<polygon points="1588,935 1585,912 1560,908" style="fill:rgb(29,43,61)"/>
<polygon points="1560,908 1585,912 1588,697" style="fill:rgb(3,23,36)"/>
<polygon points="18,595 0,651 94,628" style="fill:rgb(14,115,156)"/>
<polygon points="0,651 13,747 46,695" style="fill:rgb(78,150,209)"/>
<polygon points="0,750 14,756 13,747" style="fill:rgb(58,111,131)"/>
<polygon points="13,747 14,756 71,757" style="fill:rgb(57,78,96)"/>
<polygon points="1571,84 1459,26 1440,183" style="fill:rgb(5,79,111)"/>
<polygon points="1231,935 1588,935 1560,908" style="fill:rgb(13,34,46)"/>
<polygon points="1585,912 1588,935 1588,697" style="fill:rgb(4,34,45)"/>
<polygon points="11,830 68,834 69,796" style="fill:rgb(125,126,134)"/>
<polygon points="0,651 0,750 13,747" style="fill:rgb(72,144,191)"/>
<polygon points="14,756 11,830 69,796" style="fill:rgb(137,133,140)"/>
<polygon points="0,750 11,830 14,756" style="fill:rgb(81,84,94)"/>
<polygon points="37,855 30,897 75,892" style="fill:rgb(31,54,64)"/>
<polygon points="0,893 30,897 37,855" style="fill:rgb(73,90,98)"/>
<polygon points="75,892 0,935 129,905" style="fill:rgb(25,47,57)"/>
<polygon points="0,750 0,893 11,830" style="fill:rgb(87,90,100)"/>
<polygon points="11,830 0,893 37,855" style="fill:rgb(96,105,112)"/>
<polygon points="1588,379 1571,84 1576,379" style="fill:rgb(2,72,106)"/>
<polygon points="348,29 18,210 227,490" style="fill:rgb(4,95,133)"/>
<polygon points="18,595 0,214 0,651" style="fill:rgb(28,110,141)"/>
<polygon points="0,893 0,935 30,897" style="fill:rgb(27,51,59)"/>
<polygon points="30,897 0,935 75,892" style="fill:rgb(25,49,59)"/>
<polygon points="129,905 0,935 227,905" style="fill:rgb(20,42,53)"/>
<polygon points="18,19 0,214 18,210" style="fill:rgb(19,99,130)"/>
<polygon points="18,210 0,214 18,595" style="fill:rgb(21,103,136)"/>
<polygon points="1588,379 1588,0 1571,84" style="fill:rgb(4,73,104)"/>
<polygon points="1571,84 1588,0 1459,26" style="fill:rgb(4,79,107)"/>
<polygon points="1459,26 1588,0 1319,9" style="fill:rgb(10,87,117)"/>
<polygon points="1319,9 1588,0 1139,0" style="fill:rgb(17,92,120)"/>
<polygon points="658,0 66,6 348,29" style="fill:rgb(8,102,133)"/>
<polygon points="348,29 66,6 18,210" style="fill:rgb(4,95,129)"/>
<polygon points="66,6 18,19 18,210" style="fill:rgb(10,96,129)"/>
<polygon points="658,0 0,0 66,6" style="fill:rgb(17,106,136)"/>
<polygon points="66,6 0,0 18,19" style="fill:rgb(26,103,132)"/>
<polygon points="18,19 0,0 0,214" style="fill:rgb(30,97,125)"/>
</svg>