<?xml version="1.0"?>
<svg width="1540" height="1024"
     xmlns="http://www.w3.org/2000/svg"
     shape-rendering="crispEdges">
<polygon points="770,531 746,552 758,554" style="fill:rgb(51,57,148)"/>
<polygon points="746,552 747,562 758,554" style="fill:rgb(42,47,138)"/>
<polygon points="770,531 741,509 746,552" style="fill:rgb(59,68,161)"/>
<polygon points="649,630 666,640 747,562" style="fill:rgb(26,27,89)"/>
<polygon points="747,562 756,579 758,554" style="fill:rgb(24,25,79)"/>
<polygon points="758,554 803,517 770,531" style="fill:rgb(46,54,139)"/>
<polygon points="831,522 803,517 758,554" style="fill:rgb(31,33,106)"/>
<polygon points="770,531 800,493 741,509" style="fill:rgb(56,68,164)"/>
<polygon points="803,517 800,493 770,531" style="fill:rgb(56,66,159)"/>
<polygon points="756,579 831,522 758,554" style="fill:rgb(23,25,76)"/>
<polygon points="803,517 830,508 800,493" style="fill:rgb(54,63,152)"/>
<polygon points="831,522 830,508 803,517" style="fill:rgb(32,34,109)"/>
<polygon points="832,484 831,496 934,443" style="fill:rgb(81,90,172)"/>
<polygon points="830,508 831,496 800,493" style="fill:rgb(61,73,163)"/>
<polygon points="831,496 825,483 800,493" style="fill:rgb(80,93,176)"/>
<polygon points="800,493 739,414 741,509" style="fill:rgb(57,71,167)"/>
<polygon points="833,476 832,484 923,435" style="fill:rgb(125,134,198)"/>
<polygon points="831,496 832,484 825,483" style="fill:rgb(90,103,180)"/>
<polygon points="867,431 833,476 923,435" style="fill:rgb(167,165,208)"/>
<polygon points="832,484 833,476 825,483" style="fill:rgb(106,120,188)"/>
<polygon points="825,483 765,394 800,493" style="fill:rgb(78,91,177)"/>
<polygon points="756,579 814,628 831,522" style="fill:rgb(19,19,54)"/>
<polygon points="753,395 739,414 765,394" style="fill:rgb(69,82,171)"/>
<polygon points="649,630 746,552 639,626" style="fill:rgb(50,56,143)"/>
<polygon points="649,630 747,562 746,552" style="fill:rgb(42,46,133)"/>
<polygon points="747,562 666,640 756,579" style="fill:rgb(21,22,74)"/>
<polygon points="756,579 728,713 814,628" style="fill:rgb(19,19,55)"/>
<polygon points="639,626 746,552 741,509" style="fill:rgb(60,71,161)"/>
<polygon points="765,394 739,414 800,493" style="fill:rgb(63,76,171)"/>
<polygon points="674,360 673,419 739,414" style="fill:rgb(48,57,159)"/>
<polygon points="739,414 673,419 741,509" style="fill:rgb(52,64,163)"/>
<polygon points="833,476 765,394 825,483" style="fill:rgb(134,143,205)"/>
<polygon points="546,562 639,626 741,509" style="fill:rgb(62,73,166)"/>
<polygon points="649,630 554,692 666,640" style="fill:rgb(25,27,84)"/>
<polygon points="833,476 774,389 765,394" style="fill:rgb(157,161,209)"/>
<polygon points="765,394 755,372 753,395" style="fill:rgb(148,148,198)"/>
<polygon points="923,435 832,484 934,443" style="fill:rgb(109,119,190)"/>
<polygon points="833,476 823,387 774,389" style="fill:rgb(190,177,212)"/>
<polygon points="893,398 867,431 923,435" style="fill:rgb(184,175,209)"/>
<polygon points="837,390 823,387 833,476" style="fill:rgb(185,176,210)"/>
<polygon points="762,366 755,372 774,389" style="fill:rgb(176,172,210)"/>
<polygon points="774,389 755,372 765,394" style="fill:rgb(176,169,206)"/>
<polygon points="753,395 714,346 739,414" style="fill:rgb(60,72,168)"/>
<polygon points="867,431 837,390 833,476" style="fill:rgb(182,175,211)"/>
<polygon points="823,387 762,366 774,389" style="fill:rgb(192,178,209)"/>
<polygon points="837,390 829,384 823,387" style="fill:rgb(162,164,213)"/>
<polygon points="763,345 762,366 823,387" style="fill:rgb(179,172,209)"/>
<polygon points="755,372 749,362 753,395" style="fill:rgb(90,100,168)"/>
<polygon points="730,347 749,362 763,345" style="fill:rgb(179,173,207)"/>
<polygon points="762,366 749,362 755,372" style="fill:rgb(141,145,196)"/>
<polygon points="575,769 728,713 666,640" style="fill:rgb(23,24,66)"/>
<polygon points="666,640 728,713 756,579" style="fill:rgb(19,21,57)"/>
<polygon points="763,345 749,362 762,366" style="fill:rgb(183,175,210)"/>
<polygon points="749,362 714,346 753,395" style="fill:rgb(76,89,171)"/>
<polygon points="829,384 763,345 823,387" style="fill:rgb(150,155,206)"/>
<polygon points="714,346 674,360 739,414" style="fill:rgb(59,70,167)"/>
<polygon points="673,419 546,562 741,509" style="fill:rgb(55,67,163)"/>
<polygon points="738,327 714,346 730,347" style="fill:rgb(187,177,210)"/>
<polygon points="730,347 714,346 749,362" style="fill:rgb(145,154,206)"/>
<polygon points="867,431 893,398 837,390" style="fill:rgb(188,176,210)"/>
<polygon points="837,390 897,392 829,384" style="fill:rgb(141,144,201)"/>
<polygon points="829,384 763,340 763,345" style="fill:rgb(122,133,190)"/>
<polygon points="831,496 947,452 934,443" style="fill:rgb(60,69,154)"/>
<polygon points="831,496 830,508 947,452" style="fill:rgb(42,48,129)"/>
<polygon points="760,327 763,340 829,384" style="fill:rgb(104,115,185)"/>
<polygon points="763,345 763,340 730,347" style="fill:rgb(189,175,209)"/>
<polygon points="947,452 830,508 961,467" style="fill:rgb(31,32,107)"/>
<polygon points="923,435 897,392 893,398" style="fill:rgb(139,140,197)"/>
<polygon points="941,374 897,392 923,435" style="fill:rgb(78,89,173)"/>
<polygon points="893,398 897,392 837,390" style="fill:rgb(149,149,200)"/>
<polygon points="513,530 546,562 673,419" style="fill:rgb(47,56,157)"/>
<polygon points="575,769 746,764 728,713" style="fill:rgb(23,24,67)"/>
<polygon points="951,455 947,452 961,467" style="fill:rgb(38,40,124)"/>
<polygon points="934,443 949,433 923,435" style="fill:rgb(131,144,199)"/>
<polygon points="854,217 760,327 829,384" style="fill:rgb(102,114,188)"/>
<polygon points="763,340 738,327 730,347" style="fill:rgb(192,176,209)"/>
<polygon points="714,346 701,332 674,360" style="fill:rgb(60,69,163)"/>
<polygon points="760,327 738,327 763,340" style="fill:rgb(142,149,200)"/>
<polygon points="707,321 701,332 714,346" style="fill:rgb(130,134,197)"/>
<polygon points="961,467 830,508 831,522" style="fill:rgb(27,27,92)"/>
<polygon points="947,452 948,439 934,443" style="fill:rgb(81,90,175)"/>
<polygon points="951,455 948,439 947,452" style="fill:rgb(62,70,160)"/>
<polygon points="979,513 961,467 831,522" style="fill:rgb(21,21,67)"/>
<polygon points="951,455 1002,439 948,439" style="fill:rgb(64,72,158)"/>
<polygon points="1002,439 949,433 948,439" style="fill:rgb(88,98,175)"/>
<polygon points="948,439 949,433 934,443" style="fill:rgb(103,112,187)"/>
<polygon points="738,327 707,321 714,346" style="fill:rgb(183,175,209)"/>
<polygon points="643,309 605,339 674,360" style="fill:rgb(45,54,156)"/>
<polygon points="708,315 707,321 738,327" style="fill:rgb(186,176,212)"/>
<polygon points="1006,595 979,547 814,628" style="fill:rgb(19,20,66)"/>
<polygon points="814,628 979,547 831,522" style="fill:rgb(18,18,52)"/>
<polygon points="979,547 979,513 831,522" style="fill:rgb(18,19,57)"/>
<polygon points="961,467 1002,439 951,455" style="fill:rgb(35,37,116)"/>
<polygon points="554,692 649,630 639,626" style="fill:rgb(40,44,123)"/>
<polygon points="728,713 746,764 814,628" style="fill:rgb(21,22,64)"/>
<polygon points="690,282 708,315 738,327" style="fill:rgb(166,165,210)"/>
<polygon points="707,321 659,303 701,332" style="fill:rgb(70,82,169)"/>
<polygon points="1002,439 1074,435 1056,416" style="fill:rgb(67,78,163)"/>
<polygon points="979,513 982,471 961,467" style="fill:rgb(22,21,73)"/>
<polygon points="605,339 673,419 674,360" style="fill:rgb(40,47,150)"/>
<polygon points="502,512 513,530 673,419" style="fill:rgb(42,51,152)"/>
<polygon points="546,562 550,683 639,626" style="fill:rgb(63,73,165)"/>
<polygon points="950,378 941,374 923,435" style="fill:rgb(117,126,193)"/>
<polygon points="897,392 949,353 829,384" style="fill:rgb(98,110,186)"/>
<polygon points="950,378 923,435 949,433" style="fill:rgb(160,161,207)"/>
<polygon points="659,303 674,360 701,332" style="fill:rgb(62,73,169)"/>
<polygon points="433,549 550,683 546,562" style="fill:rgb(63,73,168)"/>
<polygon points="1001,413 950,378 949,433" style="fill:rgb(179,171,209)"/>
<polygon points="550,683 554,692 639,626" style="fill:rgb(49,54,137)"/>
<polygon points="663,297 707,321 708,315" style="fill:rgb(121,125,185)"/>
<polygon points="663,297 659,303 707,321" style="fill:rgb(96,106,179)"/>
<polygon points="487,461 502,512 673,419" style="fill:rgb(38,45,147)"/>
<polygon points="513,530 433,549 546,562" style="fill:rgb(59,69,165)"/>
<polygon points="659,303 643,309 674,360" style="fill:rgb(56,68,165)"/>
<polygon points="690,282 663,297 708,315" style="fill:rgb(184,176,213)"/>
<polygon points="659,303 648,295 643,309" style="fill:rgb(77,91,170)"/>
<polygon points="690,282 738,327 760,327" style="fill:rgb(106,116,185)"/>
<polygon points="973,743 1006,595 814,628" style="fill:rgb(19,20,62)"/>
<polygon points="1140,509 1077,446 979,513" style="fill:rgb(21,23,70)"/>
<polygon points="950,378 954,366 941,374" style="fill:rgb(123,132,196)"/>
<polygon points="941,374 949,353 897,392" style="fill:rgb(75,86,172)"/>
<polygon points="1001,413 954,366 950,378" style="fill:rgb(185,173,207)"/>
<polygon points="854,217 690,282 760,327" style="fill:rgb(101,115,189)"/>
<polygon points="650,289 648,295 663,297" style="fill:rgb(172,169,210)"/>
<polygon points="663,297 648,295 659,303" style="fill:rgb(128,137,190)"/>
<polygon points="643,309 555,310 605,339" style="fill:rgb(51,62,161)"/>
<polygon points="1002,421 1002,439 1056,416" style="fill:rgb(94,104,181)"/>
<polygon points="982,471 1002,439 961,467" style="fill:rgb(29,29,97)"/>
<polygon points="1046,405 949,353 954,366" style="fill:rgb(159,158,206)"/>
<polygon points="954,366 949,353 941,374" style="fill:rgb(98,109,183)"/>
<polygon points="690,282 650,289 663,297" style="fill:rgb(193,180,210)"/>
<polygon points="600,244 555,310 643,309" style="fill:rgb(51,61,159)"/>
<polygon points="1046,405 1002,421 1056,416" style="fill:rgb(153,155,206)"/>
<polygon points="1002,439 1002,421 949,433" style="fill:rgb(95,105,181)"/>
<polygon points="1002,421 1001,413 949,433" style="fill:rgb(151,155,205)"/>
<polygon points="491,377 487,461 605,339" style="fill:rgb(48,57,158)"/>
<polygon points="605,339 487,461 673,419" style="fill:rgb(38,44,148)"/>
<polygon points="502,512 433,549 513,530" style="fill:rgb(56,66,162)"/>
<polygon points="481,770 575,769 554,692" style="fill:rgb(23,23,78)"/>
<polygon points="554,692 575,769 666,640" style="fill:rgb(24,25,76)"/>
<polygon points="690,282 647,262 650,289" style="fill:rgb(189,178,211)"/>
<polygon points="650,289 606,243 648,295" style="fill:rgb(157,159,206)"/>
<polygon points="617,241 647,262 677,196" style="fill:rgb(100,112,187)"/>
<polygon points="584,846 759,835 746,764" style="fill:rgb(20,22,59)"/>
<polygon points="746,764 973,743 814,628" style="fill:rgb(20,22,61)"/>
<polygon points="944,814 973,743 746,764" style="fill:rgb(21,23,62)"/>
<polygon points="600,244 643,309 648,295" style="fill:rgb(61,71,158)"/>
<polygon points="600,244 552,307 555,310" style="fill:rgb(96,109,185)"/>
<polygon points="555,310 491,377 605,339" style="fill:rgb(48,57,157)"/>
<polygon points="552,307 491,377 555,310" style="fill:rgb(81,92,179)"/>
<polygon points="491,377 455,440 487,461" style="fill:rgb(49,58,159)"/>
<polygon points="487,461 433,549 502,512" style="fill:rgb(51,60,158)"/>
<polygon points="472,765 481,770 554,692" style="fill:rgb(27,29,100)"/>
<polygon points="1002,439 982,471 1077,446" style="fill:rgb(27,29,95)"/>
<polygon points="1002,421 1046,405 1001,413" style="fill:rgb(177,168,208)"/>
<polygon points="1001,413 1046,405 954,366" style="fill:rgb(190,177,210)"/>
<polygon points="455,440 433,549 487,461" style="fill:rgb(53,62,161)"/>
<polygon points="1077,446 982,471 979,513" style="fill:rgb(22,22,76)"/>
<polygon points="979,513 979,547 1140,509" style="fill:rgb(17,20,55)"/>
<polygon points="677,196 647,262 690,282" style="fill:rgb(102,114,187)"/>
<polygon points="647,262 606,243 650,289" style="fill:rgb(187,178,216)"/>
<polygon points="973,743 1054,672 1006,595" style="fill:rgb(19,20,60)"/>
<polygon points="1095,412 1057,406 1056,416" style="fill:rgb(168,169,211)"/>
<polygon points="1056,416 1057,406 1046,405" style="fill:rgb(139,147,195)"/>
<polygon points="1046,405 1098,358 949,353" style="fill:rgb(102,115,188)"/>
<polygon points="617,241 606,243 647,262" style="fill:rgb(157,156,206)"/>
<polygon points="552,307 522,266 491,377" style="fill:rgb(102,116,190)"/>
<polygon points="512,195 600,244 606,243" style="fill:rgb(100,113,190)"/>
<polygon points="606,243 600,244 648,295" style="fill:rgb(99,107,172)"/>
<polygon points="876,852 944,814 746,764" style="fill:rgb(23,25,63)"/>
<polygon points="973,743 1045,768 1054,672" style="fill:rgb(19,21,58)"/>
<polygon points="1140,554 979,547 1006,595" style="fill:rgb(21,21,70)"/>
<polygon points="1077,446 1074,435 1002,439" style="fill:rgb(38,44,126)"/>
<polygon points="860,181 854,217 1011,146" style="fill:rgb(99,112,191)"/>
<polygon points="949,353 854,217 829,384" style="fill:rgb(101,114,190)"/>
<polygon points="759,835 876,852 746,764" style="fill:rgb(24,26,62)"/>
<polygon points="1074,435 1094,422 1056,416" style="fill:rgb(84,93,174)"/>
<polygon points="1077,446 1083,434 1074,435" style="fill:rgb(39,47,130)"/>
<polygon points="1094,422 1139,426 1117,414" style="fill:rgb(89,101,181)"/>
<polygon points="649,962 774,887 759,835" style="fill:rgb(18,19,63)"/>
<polygon points="759,835 774,887 876,852" style="fill:rgb(20,21,63)"/>
<polygon points="854,217 677,196 690,282" style="fill:rgb(99,112,189)"/>
<polygon points="617,241 512,195 606,243" style="fill:rgb(102,115,190)"/>
<polygon points="477,817 584,846 575,769" style="fill:rgb(20,21,66)"/>
<polygon points="575,769 584,846 746,764" style="fill:rgb(24,26,67)"/>
<polygon points="876,852 948,833 944,814" style="fill:rgb(26,27,79)"/>
<polygon points="944,814 1007,796 973,743" style="fill:rgb(25,26,67)"/>
<polygon points="878,891 948,833 876,852" style="fill:rgb(31,32,89)"/>
<polygon points="512,195 522,266 600,244" style="fill:rgb(102,115,190)"/>
<polygon points="600,244 522,266 552,307" style="fill:rgb(103,117,190)"/>
<polygon points="491,377 380,427 455,440" style="fill:rgb(54,66,163)"/>
<polygon points="1094,422 1083,434 1139,426" style="fill:rgb(56,65,156)"/>
<polygon points="1083,434 1094,422 1074,435" style="fill:rgb(54,64,150)"/>
<polygon points="1052,197 854,217 949,353" style="fill:rgb(102,115,190)"/>
<polygon points="472,765 554,692 550,683" style="fill:rgb(42,46,126)"/>
<polygon points="948,833 1007,796 944,814" style="fill:rgb(27,28,79)"/>
<polygon points="452,764 472,765 550,683" style="fill:rgb(54,61,149)"/>
<polygon points="481,770 477,817 575,769" style="fill:rgb(21,20,73)"/>
<polygon points="1094,422 1095,412 1056,416" style="fill:rgb(132,141,198)"/>
<polygon points="781,935 780,901 774,887" style="fill:rgb(20,23,81)"/>
<polygon points="774,887 780,901 876,852" style="fill:rgb(20,21,74)"/>
<polygon points="1007,796 1045,768 973,743" style="fill:rgb(26,27,70)"/>
<polygon points="1117,414 1095,412 1094,422" style="fill:rgb(127,137,198)"/>
<polygon points="1098,358 1046,405 1057,406" style="fill:rgb(82,92,174)"/>
<polygon points="854,217 860,181 677,196" style="fill:rgb(97,110,190)"/>
<polygon points="780,901 878,891 876,852" style="fill:rgb(25,26,85)"/>
<polygon points="948,833 989,871 1007,796" style="fill:rgb(34,36,89)"/>
<polygon points="433,549 452,764 550,683" style="fill:rgb(62,72,166)"/>
<polygon points="472,765 455,790 481,770" style="fill:rgb(27,28,96)"/>
<polygon points="1116,403 1103,381 1095,412" style="fill:rgb(184,171,206)"/>
<polygon points="1095,412 1103,381 1057,406" style="fill:rgb(182,172,208)"/>
<polygon points="1083,434 1077,446 1139,426" style="fill:rgb(39,48,134)"/>
<polygon points="1140,554 1006,595 1054,672" style="fill:rgb(19,20,64)"/>
<polygon points="1098,358 1099,370 1120,373" style="fill:rgb(96,111,184)"/>
<polygon points="1103,381 1099,370 1057,406" style="fill:rgb(151,152,202)"/>
<polygon points="1117,414 1116,403 1095,412" style="fill:rgb(153,154,197)"/>
<polygon points="1165,604 1140,554 1054,672" style="fill:rgb(18,19,57)"/>
<polygon points="1140,412 1128,389 1116,403" style="fill:rgb(190,175,211)"/>
<polygon points="1140,554 1140,509 979,547" style="fill:rgb(18,20,58)"/>
<polygon points="1120,373 1099,370 1103,381" style="fill:rgb(98,111,183)"/>
<polygon points="1099,370 1098,358 1057,406" style="fill:rgb(113,122,187)"/>
<polygon points="424,176 380,427 491,377" style="fill:rgb(106,120,194)"/>
<polygon points="455,440 353,471 433,549" style="fill:rgb(57,70,167)"/>
<polygon points="433,549 341,621 452,764" style="fill:rgb(63,75,169)"/>
<polygon points="452,764 450,783 472,765" style="fill:rgb(54,60,148)"/>
<polygon points="398,846 450,783 384,841" style="fill:rgb(33,37,114)"/>
<polygon points="450,783 455,790 472,765" style="fill:rgb(31,30,108)"/>
<polygon points="353,471 362,566 433,549" style="fill:rgb(56,69,166)"/>
<polygon points="455,790 477,817 481,770" style="fill:rgb(21,21,77)"/>
<polygon points="649,962 781,935 774,887" style="fill:rgb(20,21,80)"/>
<polygon points="649,962 759,835 584,846" style="fill:rgb(17,19,58)"/>
<polygon points="780,901 781,935 878,891" style="fill:rgb(27,28,84)"/>
<polygon points="1161,452 1139,426 1077,446" style="fill:rgb(32,36,114)"/>
<polygon points="1128,389 1120,373 1103,381" style="fill:rgb(103,116,184)"/>
<polygon points="1128,389 1103,381 1116,403" style="fill:rgb(160,159,206)"/>
<polygon points="996,118 863,99 860,181" style="fill:rgb(90,105,191)"/>
<polygon points="1140,412 1116,403 1117,414" style="fill:rgb(155,159,204)"/>
<polygon points="1151,423 1140,412 1139,426" style="fill:rgb(86,95,175)"/>
<polygon points="1139,426 1140,412 1117,414" style="fill:rgb(98,109,182)"/>
<polygon points="1274,280 1109,248 1120,373" style="fill:rgb(99,112,188)"/>
<polygon points="380,427 353,471 455,440" style="fill:rgb(55,68,167)"/>
<polygon points="878,891 989,871 948,833" style="fill:rgb(36,37,87)"/>
<polygon points="1007,796 1102,803 1045,768" style="fill:rgb(35,37,89)"/>
<polygon points="928,977 989,871 878,891" style="fill:rgb(39,38,71)"/>
<polygon points="380,427 350,469 353,471" style="fill:rgb(88,100,188)"/>
<polygon points="353,471 313,513 362,566" style="fill:rgb(53,65,163)"/>
<polygon points="1160,440 1151,423 1139,426" style="fill:rgb(39,46,134)"/>
<polygon points="1140,412 1241,407 1128,389" style="fill:rgb(167,162,204)"/>
<polygon points="1161,452 1077,446 1140,509" style="fill:rgb(21,24,77)"/>
<polygon points="1198,492 1161,452 1140,509" style="fill:rgb(20,23,74)"/>
<polygon points="1151,760 1165,604 1054,672" style="fill:rgb(18,19,53)"/>
<polygon points="1140,554 1196,535 1140,509" style="fill:rgb(19,21,60)"/>
<polygon points="1151,760 1054,672 1045,768" style="fill:rgb(19,20,55)"/>
<polygon points="1161,452 1160,440 1139,426" style="fill:rgb(32,36,117)"/>
<polygon points="677,196 512,195 617,241" style="fill:rgb(101,114,191)"/>
<polygon points="522,266 424,176 491,377" style="fill:rgb(105,119,192)"/>
<polygon points="300,488 313,513 350,469" style="fill:rgb(94,107,187)"/>
<polygon points="505,180 512,195 677,196" style="fill:rgb(96,108,192)"/>
<polygon points="313,513 341,621 362,566" style="fill:rgb(51,63,161)"/>
<polygon points="362,566 341,621 433,549" style="fill:rgb(57,69,166)"/>
<polygon points="494,98 505,180 677,196" style="fill:rgb(92,107,193)"/>
<polygon points="512,195 424,176 522,266" style="fill:rgb(102,115,192)"/>
<polygon points="989,871 1102,803 1007,796" style="fill:rgb(40,41,93)"/>
<polygon points="539,1001 649,962 584,846" style="fill:rgb(19,21,61)"/>
<polygon points="1165,604 1196,535 1140,554" style="fill:rgb(19,20,67)"/>
<polygon points="1161,452 1215,445 1160,440" style="fill:rgb(28,29,102)"/>
<polygon points="1298,589 1196,535 1165,604" style="fill:rgb(19,20,65)"/>
<polygon points="300,488 350,469 244,436" style="fill:rgb(105,118,193)"/>
<polygon points="350,469 313,513 353,471" style="fill:rgb(79,91,178)"/>
<polygon points="1196,535 1198,492 1140,509" style="fill:rgb(19,21,59)"/>
<polygon points="1160,440 1224,431 1151,423" style="fill:rgb(35,40,125)"/>
<polygon points="1109,248 1098,358 1120,373" style="fill:rgb(101,114,189)"/>
<polygon points="1102,803 1135,778 1045,768" style="fill:rgb(33,33,85)"/>
<polygon points="1052,197 949,353 1109,248" style="fill:rgb(102,115,191)"/>
<polygon points="860,181 863,99 677,196" style="fill:rgb(89,104,191)"/>
<polygon points="1120,373 1128,389 1241,407" style="fill:rgb(149,150,201)"/>
<polygon points="1109,248 949,353 1098,358" style="fill:rgb(100,113,189)"/>
<polygon points="1135,778 1151,760 1045,768" style="fill:rgb(25,25,75)"/>
<polygon points="244,436 350,469 380,427" style="fill:rgb(107,121,194)"/>
<polygon points="262,715 304,744 341,621" style="fill:rgb(63,74,169)"/>
<polygon points="1241,407 1140,412 1151,423" style="fill:rgb(93,104,180)"/>
<polygon points="666,1024 842,987 781,935" style="fill:rgb(28,29,78)"/>
<polygon points="781,935 842,987 878,891" style="fill:rgb(29,30,73)"/>
<polygon points="989,871 1116,822 1102,803" style="fill:rgb(36,37,84)"/>
<polygon points="1102,803 1144,813 1135,778" style="fill:rgb(36,36,86)"/>
<polygon points="1135,778 1144,813 1151,760" style="fill:rgb(30,30,81)"/>
<polygon points="1138,851 1116,822 1097,911" style="fill:rgb(33,34,76)"/>
<polygon points="996,118 1011,146 1348,94" style="fill:rgb(91,105,189)"/>
<polygon points="1052,197 1011,146 854,217" style="fill:rgb(99,112,188)"/>
<polygon points="1295,414 1292,410 1232,421" style="fill:rgb(48,58,148)"/>
<polygon points="1198,492 1215,445 1161,452" style="fill:rgb(22,24,77)"/>
<polygon points="1295,414 1232,421 1224,431" style="fill:rgb(42,48,135)"/>
<polygon points="455,790 398,846 477,817" style="fill:rgb(20,23,79)"/>
<polygon points="477,817 539,1001 584,846" style="fill:rgb(19,20,61)"/>
<polygon points="450,783 398,846 455,790" style="fill:rgb(30,29,106)"/>
<polygon points="384,841 450,783 349,810" style="fill:rgb(63,71,157)"/>
<polygon points="450,783 452,764 349,810" style="fill:rgb(65,74,161)"/>
<polygon points="842,987 928,977 878,891" style="fill:rgb(37,35,73)"/>
<polygon points="1116,822 1144,813 1102,803" style="fill:rgb(38,38,90)"/>
<polygon points="1241,407 1232,421 1292,410" style="fill:rgb(62,73,162)"/>
<polygon points="1138,851 1144,813 1116,822" style="fill:rgb(29,30,73)"/>
<polygon points="349,810 452,764 304,744" style="fill:rgb(72,81,165)"/>
<polygon points="539,1001 666,1024 649,962" style="fill:rgb(24,25,75)"/>
<polygon points="1215,445 1295,414 1224,431" style="fill:rgb(31,33,113)"/>
<polygon points="1215,445 1224,431 1160,440" style="fill:rgb(30,30,108)"/>
<polygon points="1348,94 1011,146 1052,197" style="fill:rgb(98,111,188)"/>
<polygon points="1011,146 996,118 860,181" style="fill:rgb(94,107,191)"/>
<polygon points="304,744 452,764 341,621" style="fill:rgb(68,79,170)"/>
<polygon points="494,98 424,176 505,180" style="fill:rgb(95,109,194)"/>
<polygon points="505,180 424,176 512,195" style="fill:rgb(101,113,194)"/>
<polygon points="1198,492 1196,535 1298,589" style="fill:rgb(18,20,60)"/>
<polygon points="1224,431 1232,421 1151,423" style="fill:rgb(44,52,137)"/>
<polygon points="909,47 677,52 863,99" style="fill:rgb(86,102,190)"/>
<polygon points="863,99 677,52 677,196" style="fill:rgb(88,103,192)"/>
<polygon points="539,1001 477,817 372,900" style="fill:rgb(20,21,63)"/>
<polygon points="649,962 666,1024 781,935" style="fill:rgb(23,25,72)"/>
<polygon points="842,987 854,1024 928,977" style="fill:rgb(34,34,76)"/>
<polygon points="1097,911 1116,822 989,871" style="fill:rgb(32,34,73)"/>
<polygon points="1234,734 1165,604 1151,760" style="fill:rgb(18,18,50)"/>
<polygon points="262,715 341,621 241,679" style="fill:rgb(58,68,163)"/>
<polygon points="666,1024 854,1024 842,987" style="fill:rgb(31,31,81)"/>
<polygon points="928,977 1025,957 989,871" style="fill:rgb(44,42,76)"/>
<polygon points="956,1011 1025,957 928,977" style="fill:rgb(41,39,67)"/>
<polygon points="1234,734 1151,760 1243,778" style="fill:rgb(23,23,72)"/>
<polygon points="1232,421 1241,407 1151,423" style="fill:rgb(66,75,164)"/>
<polygon points="1025,957 1097,911 989,871" style="fill:rgb(40,40,78)"/>
<polygon points="677,52 494,98 677,196" style="fill:rgb(90,105,193)"/>
<polygon points="372,900 477,817 398,846" style="fill:rgb(21,21,74)"/>
<polygon points="372,900 398,846 354,884" style="fill:rgb(23,24,84)"/>
<polygon points="971,65 909,47 863,99" style="fill:rgb(85,100,189)"/>
<polygon points="854,1024 956,1011 928,977" style="fill:rgb(34,34,66)"/>
<polygon points="1025,957 1107,963 1097,911" style="fill:rgb(43,42,79)"/>
<polygon points="1243,778 1144,813 1249,849" style="fill:rgb(30,31,71)"/>
<polygon points="1243,778 1151,760 1144,813" style="fill:rgb(30,30,80)"/>
<polygon points="996,118 971,65 863,99" style="fill:rgb(91,106,193)"/>
<polygon points="1348,94 971,65 996,118" style="fill:rgb(87,102,188)"/>
<polygon points="1282,220 1052,197 1109,248" style="fill:rgb(103,116,192)"/>
<polygon points="325,184 244,436 380,427" style="fill:rgb(108,121,195)"/>
<polygon points="216,588 341,621 313,513" style="fill:rgb(51,63,161)"/>
<polygon points="348,880 384,841 326,871" style="fill:rgb(55,61,149)"/>
<polygon points="241,679 341,621 216,588" style="fill:rgb(52,62,160)"/>
<polygon points="354,884 384,841 348,880" style="fill:rgb(33,35,107)"/>
<polygon points="354,884 398,846 384,841" style="fill:rgb(27,28,101)"/>
<polygon points="384,841 349,810 326,871" style="fill:rgb(66,74,159)"/>
<polygon points="326,871 349,810 288,835" style="fill:rgb(70,79,164)"/>
<polygon points="281,947 327,989 372,900" style="fill:rgb(20,21,66)"/>
<polygon points="216,552 313,513 300,488" style="fill:rgb(83,96,182)"/>
<polygon points="288,835 349,810 304,744" style="fill:rgb(75,84,169)"/>
<polygon points="909,47 637,14 677,52" style="fill:rgb(97,110,192)"/>
<polygon points="677,52 637,14 494,98" style="fill:rgb(100,113,191)"/>
<polygon points="210,478 216,552 300,488" style="fill:rgb(83,98,184)"/>
<polygon points="144,395 223,449 244,436" style="fill:rgb(97,111,190)"/>
<polygon points="244,436 223,449 300,488" style="fill:rgb(96,109,189)"/>
<polygon points="216,552 216,588 313,513" style="fill:rgb(77,91,179)"/>
<polygon points="288,835 304,744 261,839" style="fill:rgb(73,81,167)"/>
<polygon points="281,947 372,900 354,884" style="fill:rgb(23,24,80)"/>
<polygon points="1249,849 1144,813 1138,851" style="fill:rgb(31,33,71)"/>
<polygon points="1234,734 1298,589 1165,604" style="fill:rgb(17,17,48)"/>
<polygon points="1305,722 1298,589 1234,734" style="fill:rgb(17,18,50)"/>
<polygon points="223,449 210,478 300,488" style="fill:rgb(88,103,187)"/>
<polygon points="99,644 147,706 216,588" style="fill:rgb(53,65,163)"/>
<polygon points="1295,414 1215,445 1342,447" style="fill:rgb(26,27,94)"/>
<polygon points="1241,407 1274,280 1120,373" style="fill:rgb(102,115,189)"/>
<polygon points="956,1011 1107,963 1025,957" style="fill:rgb(37,36,66)"/>
<polygon points="1097,911 1222,906 1138,851" style="fill:rgb(39,40,87)"/>
<polygon points="261,839 304,744 198,774" style="fill:rgb(68,77,167)"/>
<polygon points="1342,447 1215,445 1198,492" style="fill:rgb(22,23,76)"/>
<polygon points="398,109 325,184 424,176" style="fill:rgb(99,113,195)"/>
<polygon points="424,176 325,184 380,427" style="fill:rgb(107,121,195)"/>
<polygon points="223,449 144,395 210,478" style="fill:rgb(91,106,191)"/>
<polygon points="398,109 424,176 494,98" style="fill:rgb(95,109,193)"/>
<polygon points="524,0 398,109 494,98" style="fill:rgb(103,116,193)"/>
<polygon points="1325,396 1311,388 1295,414" style="fill:rgb(61,71,161)"/>
<polygon points="1295,414 1311,388 1292,410" style="fill:rgb(55,66,155)"/>
<polygon points="1292,410 1311,388 1241,407" style="fill:rgb(71,83,169)"/>
<polygon points="198,774 304,744 262,715" style="fill:rgb(65,75,170)"/>
<polygon points="288,835 261,839 326,871" style="fill:rgb(62,70,161)"/>
<polygon points="281,947 354,884 348,880" style="fill:rgb(27,28,100)"/>
<polygon points="372,900 327,989 539,1001" style="fill:rgb(20,21,62)"/>
<polygon points="198,774 262,715 241,679" style="fill:rgb(64,76,169)"/>
<polygon points="1311,388 1274,280 1241,407" style="fill:rgb(101,114,188)"/>
<polygon points="1347,813 1305,722 1243,778" style="fill:rgb(24,25,68)"/>
<polygon points="1243,778 1305,722 1234,734" style="fill:rgb(21,22,71)"/>
<polygon points="1332,407 1325,396 1295,414" style="fill:rgb(42,48,131)"/>
<polygon points="1222,906 1249,849 1138,851" style="fill:rgb(38,39,85)"/>
<polygon points="1533,0 524,0 637,14" style="fill:rgb(101,114,191)"/>
<polygon points="637,14 524,0 494,98" style="fill:rgb(103,117,193)"/>
<polygon points="1332,407 1295,414 1342,447" style="fill:rgb(28,29,101)"/>
<polygon points="1311,388 1345,370 1274,280" style="fill:rgb(100,114,188)"/>
<polygon points="1342,447 1198,492 1364,517" style="fill:rgb(21,22,69)"/>
<polygon points="1325,396 1345,370 1311,388" style="fill:rgb(81,92,179)"/>
<polygon points="1364,517 1198,492 1298,589" style="fill:rgb(19,20,59)"/>
<polygon points="1107,963 1222,906 1097,911" style="fill:rgb(34,35,75)"/>
<polygon points="343,18 335,110 398,109" style="fill:rgb(108,121,197)"/>
<polygon points="398,109 335,110 325,184" style="fill:rgb(102,115,194)"/>
<polygon points="123,311 144,395 244,436" style="fill:rgb(105,119,194)"/>
<polygon points="147,706 198,774 241,679" style="fill:rgb(64,75,169)"/>
<polygon points="187,784 198,774 139,774" style="fill:rgb(59,70,161)"/>
<polygon points="1358,670 1364,517 1298,589" style="fill:rgb(18,19,52)"/>
<polygon points="1364,387 1325,396 1332,407" style="fill:rgb(52,57,144)"/>
<polygon points="1364,387 1332,407 1375,397" style="fill:rgb(36,38,120)"/>
<polygon points="1364,387 1345,370 1325,396" style="fill:rgb(69,79,168)"/>
<polygon points="1345,370 1282,220 1274,280" style="fill:rgb(99,112,188)"/>
<polygon points="1274,280 1282,220 1109,248" style="fill:rgb(100,113,188)"/>
<polygon points="1397,699 1358,670 1305,722" style="fill:rgb(18,17,46)"/>
<polygon points="1305,722 1358,670 1298,589" style="fill:rgb(17,18,49)"/>
<polygon points="1347,813 1243,778 1249,849" style="fill:rgb(28,29,68)"/>
<polygon points="198,774 197,805 261,839" style="fill:rgb(58,66,161)"/>
<polygon points="281,947 348,880 326,871" style="fill:rgb(40,41,135)"/>
<polygon points="147,706 241,679 216,588" style="fill:rgb(55,66,163)"/>
<polygon points="198,774 187,784 197,805" style="fill:rgb(55,64,158)"/>
<polygon points="281,947 326,871 272,940" style="fill:rgb(40,42,138)"/>
<polygon points="539,1001 319,1024 666,1024" style="fill:rgb(28,29,77)"/>
<polygon points="1364,517 1371,455 1342,447" style="fill:rgb(22,22,67)"/>
<polygon points="1463,434 1371,455 1364,517" style="fill:rgb(20,21,63)"/>
<polygon points="272,940 326,871 261,839" style="fill:rgb(49,52,149)"/>
<polygon points="119,381 144,395 123,311" style="fill:rgb(105,119,194)"/>
<polygon points="69,552 99,622 216,552" style="fill:rgb(79,94,182)"/>
<polygon points="1375,397 1332,407 1342,447" style="fill:rgb(29,29,101)"/>
<polygon points="1438,76 1348,94 1500,170" style="fill:rgb(100,114,189)"/>
<polygon points="188,919 272,940 261,839" style="fill:rgb(48,53,151)"/>
<polygon points="303,1015 319,1024 327,989" style="fill:rgb(24,25,69)"/>
<polygon points="99,622 216,588 216,552" style="fill:rgb(72,87,176)"/>
<polygon points="187,784 139,774 197,805" style="fill:rgb(43,50,148)"/>
<polygon points="1463,434 1375,397 1371,455" style="fill:rgb(24,25,87)"/>
<polygon points="1371,455 1375,397 1342,447" style="fill:rgb(26,27,90)"/>
<polygon points="1500,170 1282,220 1345,370" style="fill:rgb(99,113,187)"/>
<polygon points="1286,1024 1271,916 1222,906" style="fill:rgb(29,31,69)"/>
<polygon points="1222,906 1271,916 1249,849" style="fill:rgb(35,35,83)"/>
<polygon points="1286,1024 1222,906 1107,963" style="fill:rgb(30,31,69)"/>
<polygon points="303,1015 327,989 281,947" style="fill:rgb(20,21,63)"/>
<polygon points="327,989 319,1024 539,1001" style="fill:rgb(24,25,68)"/>
<polygon points="1271,916 1347,813 1249,849" style="fill:rgb(31,32,78)"/>
<polygon points="123,311 244,436 325,184" style="fill:rgb(109,123,196)"/>
<polygon points="69,552 216,552 210,478" style="fill:rgb(84,99,187)"/>
<polygon points="214,980 281,947 272,940" style="fill:rgb(37,38,131)"/>
<polygon points="214,980 303,1015 281,947" style="fill:rgb(21,22,69)"/>
<polygon points="188,919 261,839 197,805" style="fill:rgb(43,45,149)"/>
<polygon points="56,768 139,774 147,706" style="fill:rgb(66,76,169)"/>
<polygon points="147,706 139,774 198,774" style="fill:rgb(70,80,172)"/>
<polygon points="96,418 210,478 144,395" style="fill:rgb(87,103,188)"/>
<polygon points="1397,772 1397,699 1305,722" style="fill:rgb(23,23,67)"/>
<polygon points="1358,670 1533,590 1364,517" style="fill:rgb(18,20,55)"/>
<polygon points="524,0 343,18 398,109" style="fill:rgb(106,120,195)"/>
<polygon points="205,134 123,311 325,184" style="fill:rgb(110,124,198)"/>
<polygon points="99,622 99,644 216,588" style="fill:rgb(56,70,167)"/>
<polygon points="23,400 96,418 119,381" style="fill:rgb(99,113,194)"/>
<polygon points="119,381 96,418 144,395" style="fill:rgb(95,111,195)"/>
<polygon points="99,622 8,625 99,644" style="fill:rgb(56,70,168)"/>
<polygon points="205,134 325,184 335,110" style="fill:rgb(104,117,196)"/>
<polygon points="343,18 205,134 335,110" style="fill:rgb(109,122,198)"/>
<polygon points="55,840 188,919 197,805" style="fill:rgb(44,49,150)"/>
<polygon points="1441,813 1397,772 1347,813" style="fill:rgb(28,29,75)"/>
<polygon points="1347,813 1397,772 1305,722" style="fill:rgb(24,25,66)"/>
<polygon points="96,418 69,552 210,478" style="fill:rgb(86,101,189)"/>
<polygon points="24,720 56,768 147,706" style="fill:rgb(62,72,168)"/>
<polygon points="204,972 214,980 272,940" style="fill:rgb(41,42,139)"/>
<polygon points="303,1015 114,1024 319,1024" style="fill:rgb(32,32,84)"/>
<polygon points="136,976 204,972 188,919" style="fill:rgb(49,55,155)"/>
<polygon points="188,919 204,972 272,940" style="fill:rgb(46,52,151)"/>
<polygon points="1271,916 1375,875 1347,813" style="fill:rgb(28,29,71)"/>
<polygon points="1526,478 1463,434 1364,517" style="fill:rgb(19,20,60)"/>
<polygon points="1375,397 1540,314 1364,387" style="fill:rgb(36,41,122)"/>
<polygon points="1526,478 1364,517 1533,590" style="fill:rgb(17,20,55)"/>
<polygon points="854,1024 1286,1024 956,1011" style="fill:rgb(37,36,68)"/>
<polygon points="956,1011 1286,1024 1107,963" style="fill:rgb(30,31,63)"/>
<polygon points="1271,916 1286,1024 1375,875" style="fill:rgb(29,31,67)"/>
<polygon points="23,400 22,519 96,418" style="fill:rgb(90,105,192)"/>
<polygon points="96,418 22,519 69,552" style="fill:rgb(87,102,190)"/>
<polygon points="69,552 9,589 99,622" style="fill:rgb(79,94,183)"/>
<polygon points="139,774 55,840 197,805" style="fill:rgb(40,43,148)"/>
<polygon points="23,400 119,381 6,324" style="fill:rgb(109,123,198)"/>
<polygon points="24,720 147,706 99,644" style="fill:rgb(55,65,163)"/>
<polygon points="1375,875 1441,813 1347,813" style="fill:rgb(27,29,71)"/>
<polygon points="1397,772 1540,724 1397,699" style="fill:rgb(21,23,58)"/>
<polygon points="1453,869 1441,813 1375,875" style="fill:rgb(25,27,62)"/>
<polygon points="1540,291 1345,370 1364,387" style="fill:rgb(79,90,174)"/>
<polygon points="1282,220 1348,94 1052,197" style="fill:rgb(101,114,190)"/>
<polygon points="971,65 1426,37 909,47" style="fill:rgb(91,103,188)"/>
<polygon points="909,47 1533,0 637,14" style="fill:rgb(99,111,192)"/>
<polygon points="6,324 119,381 123,311" style="fill:rgb(110,124,198)"/>
<polygon points="6,324 9,589 22,519" style="fill:rgb(87,101,185)"/>
<polygon points="22,519 9,589 69,552" style="fill:rgb(83,98,187)"/>
<polygon points="24,720 47,784 56,768" style="fill:rgb(63,73,168)"/>
<polygon points="56,768 47,784 139,774" style="fill:rgb(49,55,157)"/>
<polygon points="9,589 8,625 99,622" style="fill:rgb(74,89,180)"/>
<polygon points="7,693 24,720 99,644" style="fill:rgb(52,62,160)"/>
<polygon points="43,913 136,976 188,919" style="fill:rgb(50,56,156)"/>
<polygon points="204,972 128,1005 214,980" style="fill:rgb(44,45,130)"/>
<polygon points="214,980 122,1016 303,1015" style="fill:rgb(23,23,74)"/>
<polygon points="9,589 0,621 8,625" style="fill:rgb(44,54,129)"/>
<polygon points="8,625 7,693 99,644" style="fill:rgb(52,63,162)"/>
<polygon points="6,324 0,621 9,589" style="fill:rgb(47,56,132)"/>
<polygon points="7,818 55,840 47,784" style="fill:rgb(37,33,141)"/>
<polygon points="47,784 55,840 139,774" style="fill:rgb(37,34,141)"/>
<polygon points="0,621 7,693 8,625" style="fill:rgb(33,36,115)"/>
<polygon points="24,720 8,803 47,784" style="fill:rgb(63,73,168)"/>
<polygon points="1494,966 1453,869 1375,875" style="fill:rgb(26,28,57)"/>
<polygon points="1533,590 1358,670 1397,699" style="fill:rgb(17,19,49)"/>
<polygon points="1533,590 1397,699 1528,666" style="fill:rgb(23,26,74)"/>
<polygon points="1463,434 1531,380 1375,397" style="fill:rgb(25,27,90)"/>
<polygon points="7,263 6,324 123,311" style="fill:rgb(112,126,197)"/>
<polygon points="23,400 6,324 22,519" style="fill:rgb(98,113,194)"/>
<polygon points="1528,666 1397,699 1540,724" style="fill:rgb(22,24,62)"/>
<polygon points="122,1016 66,1024 114,1024" style="fill:rgb(31,33,104)"/>
<polygon points="136,976 128,1005 204,972" style="fill:rgb(48,52,145)"/>
<polygon points="1540,724 1397,772 1441,813" style="fill:rgb(26,27,73)"/>
<polygon points="1528,666 1540,630 1533,590" style="fill:rgb(20,24,65)"/>
<polygon points="1533,590 1540,406 1526,478" style="fill:rgb(17,20,51)"/>
<polygon points="1540,406 1463,434 1526,478" style="fill:rgb(21,23,65)"/>
<polygon points="1540,406 1531,380 1463,434" style="fill:rgb(23,26,84)"/>
<polygon points="7,693 8,803 24,720" style="fill:rgb(60,68,165)"/>
<polygon points="122,1016 128,1005 66,1024" style="fill:rgb(40,42,127)"/>
<polygon points="7,818 8,803 0,813" style="fill:rgb(34,34,117)"/>
<polygon points="128,1005 136,976 66,1024" style="fill:rgb(47,53,152)"/>
<polygon points="128,1005 122,1016 214,980" style="fill:rgb(36,36,120)"/>
<polygon points="1540,630 1540,406 1533,590" style="fill:rgb(12,11,29)"/>
<polygon points="7,263 8,216 4,237" style="fill:rgb(88,101,171)"/>
<polygon points="3,244 7,263 4,237" style="fill:rgb(65,76,145)"/>
<polygon points="6,324 0,277 0,621" style="fill:rgb(47,53,124)"/>
<polygon points="7,263 0,277 6,324" style="fill:rgb(62,69,140)"/>
<polygon points="0,813 8,803 7,693" style="fill:rgb(39,43,122)"/>
<polygon points="8,803 7,818 47,784" style="fill:rgb(50,57,156)"/>
<polygon points="0,621 0,813 7,693" style="fill:rgb(26,30,97)"/>
<polygon points="43,913 188,919 55,840" style="fill:rgb(44,50,151)"/>
<polygon points="43,913 55,840 7,818" style="fill:rgb(39,37,144)"/>
<polygon points="122,1016 114,1024 303,1015" style="fill:rgb(25,27,77)"/>
<polygon points="6,925 43,913 7,818" style="fill:rgb(37,33,140)"/>
<polygon points="7,263 123,311 8,216" style="fill:rgb(112,126,198)"/>
<polygon points="7,263 3,244 0,277" style="fill:rgb(55,64,136)"/>
<polygon points="1528,666 1540,724 1540,630" style="fill:rgb(17,16,39)"/>
<polygon points="1535,785 1540,724 1441,813" style="fill:rgb(24,25,65)"/>
<polygon points="8,216 123,311 205,134" style="fill:rgb(112,126,199)"/>
<polygon points="4,44 8,216 205,134" style="fill:rgb(109,123,198)"/>
<polygon points="1540,406 1540,314 1531,380" style="fill:rgb(22,25,72)"/>
<polygon points="1531,380 1540,314 1375,397" style="fill:rgb(28,29,95)"/>
<polygon points="1453,869 1535,785 1441,813" style="fill:rgb(24,27,59)"/>
<polygon points="1540,314 1540,301 1364,387" style="fill:rgb(43,51,136)"/>
<polygon points="1540,301 1540,291 1364,387" style="fill:rgb(62,72,160)"/>
<polygon points="1500,170 1348,94 1282,220" style="fill:rgb(102,115,190)"/>
<polygon points="1348,94 1426,37 971,65" style="fill:rgb(87,101,186)"/>
<polygon points="1540,291 1534,258 1345,370" style="fill:rgb(96,109,182)"/>
<polygon points="1534,258 1500,170 1345,370" style="fill:rgb(100,114,186)"/>
<polygon points="1534,49 1426,37 1438,76" style="fill:rgb(93,105,187)"/>
<polygon points="1438,76 1426,37 1348,94" style="fill:rgb(93,105,186)"/>
<polygon points="1286,1024 1438,1024 1375,875" style="fill:rgb(31,32,63)"/>
<polygon points="1453,869 1494,966 1535,785" style="fill:rgb(24,25,52)"/>
<polygon points="0,813 6,925 7,818" style="fill:rgb(20,20,94)"/>
<polygon points="43,913 66,1024 136,976" style="fill:rgb(54,60,157)"/>
<polygon points="6,1002 66,1024 43,913" style="fill:rgb(51,58,154)"/>
<polygon points="1438,1024 1494,966 1375,875" style="fill:rgb(29,30,60)"/>
<polygon points="0,1024 6,1002 6,925" style="fill:rgb(26,27,99)"/>
<polygon points="6,925 6,1002 43,913" style="fill:rgb(45,49,148)"/>
<polygon points="6,1002 7,1024 66,1024" style="fill:rgb(54,60,154)"/>
<polygon points="0,813 0,1024 6,925" style="fill:rgb(18,18,81)"/>
<polygon points="6,1002 0,1024 7,1024" style="fill:rgb(30,31,102)"/>
<polygon points="5,0 4,44 205,134" style="fill:rgb(110,124,198)"/>
<polygon points="8,216 4,44 4,237" style="fill:rgb(91,103,175)"/>
<polygon points="4,237 4,44 3,244" style="fill:rgb(69,80,153)"/>
<polygon points="3,244 0,0 0,277" style="fill:rgb(49,58,130)"/>
<polygon points="5,0 205,134 343,18" style="fill:rgb(110,124,198)"/>
<polygon points="1534,258 1534,49 1500,170" style="fill:rgb(95,108,184)"/>
<polygon points="1500,170 1534,49 1438,76" style="fill:rgb(99,112,188)"/>
<polygon points="1540,291 1534,49 1534,258" style="fill:rgb(59,71,143)"/>
<polygon points="524,0 5,0 343,18" style="fill:rgb(106,120,195)"/>
<polygon points="1438,1024 1540,1024 1494,966" style="fill:rgb(26,26,49)"/>
<polygon points="1494,966 1540,1024 1535,785" style="fill:rgb(22,22,42)"/>
<polygon points="1535,785 1540,1024 1540,724" style="fill:rgb(13,11,22)"/>
<polygon points="5,0 0,0 4,44" style="fill:rgb(71,84,155)"/>
<polygon points="4,44 0,0 3,244" style="fill:rgb(53,64,137)"/>
<polygon points="1540,0 1533,0 1534,49" style="fill:rgb(68,78,155)"/>
<polygon points="1534,49 1533,0 1426,37" style="fill:rgb(91,103,184)"/>
<polygon points="1426,37 1533,0 909,47" style="fill:rgb(96,108,189)"/>
<polygon points="1540,291 1540,0 1534,49" style="fill:rgb(56,65,135)"/>
</svg>