<?xml version="1.0"?>
<svg width="900" height="646"
     xmlns="http://www.w3.org/2000/svg"
     shape-rendering="crispEdges">
<polygon points="430,338 418,325 429,353" style="fill:rgb(168,184,202)"/>
<polygon points="418,325 340,350 429,353" style="fill:rgb(81,119,173)"/>
<polygon points="459,262 395,289 418,325" style="fill:rgb(189,208,217)"/>
<polygon points="418,325 395,289 377,306" style="fill:rgb(189,210,221)"/>
<polygon points="395,289 381,289 377,306" style="fill:rgb(219,227,223)"/>
<polygon points="314,329 340,350 377,306" style="fill:rgb(171,198,216)"/>
<polygon points="377,306 340,350 418,325" style="fill:rgb(95,131,181)"/>
<polygon points="429,353 482,301 430,338" style="fill:rgb(107,138,180)"/>
<polygon points="430,338 472,287 418,325" style="fill:rgb(192,205,213)"/>
<polygon points="482,301 472,287 430,338" style="fill:rgb(158,182,203)"/>
<polygon points="395,289 400,260 381,289" style="fill:rgb(230,233,223)"/>
<polygon points="436,251 400,260 395,289" style="fill:rgb(231,231,223)"/>
<polygon points="381,289 314,329 377,306" style="fill:rgb(196,214,223)"/>
<polygon points="340,350 341,395 429,353" style="fill:rgb(77,116,168)"/>
<polygon points="341,395 395,432 429,353" style="fill:rgb(73,111,158)"/>
<polygon points="429,353 527,335 482,301" style="fill:rgb(82,115,167)"/>
<polygon points="483,274 459,262 472,287" style="fill:rgb(126,146,197)"/>
<polygon points="472,287 459,262 418,325" style="fill:rgb(210,216,219)"/>
<polygon points="459,262 436,251 395,289" style="fill:rgb(224,227,224)"/>
<polygon points="297,318 314,329 381,289" style="fill:rgb(207,221,220)"/>
<polygon points="340,350 315,371 341,395" style="fill:rgb(83,120,171)"/>
<polygon points="314,329 315,371 340,350" style="fill:rgb(164,194,212)"/>
<polygon points="491,278 483,274 472,287" style="fill:rgb(115,137,195)"/>
<polygon points="482,301 491,278 472,287" style="fill:rgb(123,149,195)"/>
<polygon points="314,329 300,361 315,371" style="fill:rgb(188,211,222)"/>
<polygon points="315,371 283,385 341,395" style="fill:rgb(77,114,166)"/>
<polygon points="365,234 297,318 381,289" style="fill:rgb(135,194,199)"/>
<polygon points="314,329 284,335 300,361" style="fill:rgb(179,206,219)"/>
<polygon points="576,379 527,335 429,353" style="fill:rgb(71,108,164)"/>
<polygon points="482,301 527,335 491,278" style="fill:rgb(129,156,197)"/>
<polygon points="367,213 365,234 400,260" style="fill:rgb(125,183,196)"/>
<polygon points="400,260 365,234 381,289" style="fill:rgb(136,191,198)"/>
<polygon points="527,335 507,266 491,278" style="fill:rgb(110,137,191)"/>
<polygon points="491,278 507,266 483,274" style="fill:rgb(181,205,222)"/>
<polygon points="491,233 485,230 459,262" style="fill:rgb(210,219,215)"/>
<polygon points="459,262 485,230 436,251" style="fill:rgb(220,227,220)"/>
<polygon points="436,251 367,213 400,260" style="fill:rgb(130,185,194)"/>
<polygon points="297,318 284,335 314,329" style="fill:rgb(214,226,223)"/>
<polygon points="277,366 283,385 300,361" style="fill:rgb(168,197,214)"/>
<polygon points="300,361 283,385 315,371" style="fill:rgb(95,130,175)"/>
<polygon points="278,542 421,507 395,432" style="fill:rgb(65,92,161)"/>
<polygon points="284,335 277,366 300,361" style="fill:rgb(167,198,216)"/>
<polygon points="491,233 459,262 483,274" style="fill:rgb(228,230,225)"/>
<polygon points="507,266 491,233 483,274" style="fill:rgb(183,205,216)"/>
<polygon points="485,230 367,213 436,251" style="fill:rgb(124,181,190)"/>
<polygon points="365,234 201,267 297,318" style="fill:rgb(132,192,199)"/>
<polygon points="236,339 266,354 284,335" style="fill:rgb(199,223,221)"/>
<polygon points="527,261 510,243 507,266" style="fill:rgb(86,126,180)"/>
<polygon points="507,266 510,243 491,233" style="fill:rgb(98,142,183)"/>
<polygon points="527,335 527,261 507,266" style="fill:rgb(102,137,187)"/>
<polygon points="284,335 266,354 277,366" style="fill:rgb(144,183,209)"/>
<polygon points="277,366 249,419 283,385" style="fill:rgb(156,187,208)"/>
<polygon points="236,339 284,335 297,318" style="fill:rgb(137,197,199)"/>
<polygon points="589,354 560,317 527,335" style="fill:rgb(86,122,174)"/>
<polygon points="527,335 560,317 527,261" style="fill:rgb(92,130,182)"/>
<polygon points="557,239 519,233 527,261" style="fill:rgb(152,183,207)"/>
<polygon points="527,261 519,233 510,243" style="fill:rgb(90,131,179)"/>
<polygon points="510,243 519,233 491,233" style="fill:rgb(199,213,217)"/>
<polygon points="491,233 528,191 485,230" style="fill:rgb(229,233,223)"/>
<polygon points="485,230 355,169 367,213" style="fill:rgb(113,170,186)"/>
<polygon points="257,520 395,432 341,395" style="fill:rgb(76,110,148)"/>
<polygon points="395,432 576,379 429,353" style="fill:rgb(69,107,158)"/>
<polygon points="560,317 561,279 527,261" style="fill:rgb(123,160,198)"/>
<polygon points="539,514 576,379 395,432" style="fill:rgb(68,103,159)"/>
<polygon points="560,317 622,292 561,279" style="fill:rgb(104,143,186)"/>
<polygon points="201,267 236,339 297,318" style="fill:rgb(134,197,200)"/>
<polygon points="224,408 249,419 277,366" style="fill:rgb(123,163,193)"/>
<polygon points="224,408 277,366 215,381" style="fill:rgb(138,178,204)"/>
<polygon points="283,385 249,419 341,395" style="fill:rgb(77,113,162)"/>
<polygon points="576,379 589,354 527,335" style="fill:rgb(109,140,184)"/>
<polygon points="559,227 557,239 635,230" style="fill:rgb(93,131,185)"/>
<polygon points="561,279 557,239 527,261" style="fill:rgb(144,177,206)"/>
<polygon points="530,185 355,169 485,230" style="fill:rgb(109,165,182)"/>
<polygon points="191,215 201,267 365,234" style="fill:rgb(122,182,196)"/>
<polygon points="528,191 491,233 519,233" style="fill:rgb(227,226,221)"/>
<polygon points="563,211 635,230 598,189" style="fill:rgb(98,141,177)"/>
<polygon points="557,239 559,227 519,233" style="fill:rgb(168,195,212)"/>
<polygon points="559,227 544,210 519,233" style="fill:rgb(185,202,211)"/>
<polygon points="530,185 528,191 544,210" style="fill:rgb(218,224,218)"/>
<polygon points="544,210 528,191 519,233" style="fill:rgb(222,223,219)"/>
<polygon points="576,379 597,396 589,354" style="fill:rgb(105,133,174)"/>
<polygon points="599,427 597,396 576,379" style="fill:rgb(120,147,184)"/>
<polygon points="559,227 552,212 544,210" style="fill:rgb(111,154,181)"/>
<polygon points="215,381 277,366 266,354" style="fill:rgb(152,189,212)"/>
<polygon points="249,419 257,520 341,395" style="fill:rgb(73,110,154)"/>
<polygon points="236,339 215,381 266,354" style="fill:rgb(177,210,214)"/>
<polygon points="552,212 530,185 544,210" style="fill:rgb(114,154,178)"/>
<polygon points="528,191 530,185 485,230" style="fill:rgb(158,186,189)"/>
<polygon points="559,227 563,211 552,212" style="fill:rgb(95,136,176)"/>
<polygon points="552,212 541,166 530,185" style="fill:rgb(137,164,184)"/>
<polygon points="622,292 557,239 561,279" style="fill:rgb(116,155,196)"/>
<polygon points="622,292 560,317 589,354" style="fill:rgb(89,124,175)"/>
<polygon points="539,514 599,427 576,379" style="fill:rgb(63,94,159)"/>
<polygon points="182,437 220,436 224,408" style="fill:rgb(108,148,184)"/>
<polygon points="224,408 220,436 249,419" style="fill:rgb(116,154,185)"/>
<polygon points="421,507 539,514 395,432" style="fill:rgb(63,85,163)"/>
<polygon points="676,321 589,354 597,396" style="fill:rgb(77,106,164)"/>
<polygon points="676,321 622,292 589,354" style="fill:rgb(79,104,172)"/>
<polygon points="580,176 541,166 563,211" style="fill:rgb(93,127,177)"/>
<polygon points="563,211 541,166 552,212" style="fill:rgb(197,207,212)"/>
<polygon points="530,185 541,166 355,169" style="fill:rgb(102,158,178)"/>
<polygon points="191,215 365,234 367,213" style="fill:rgb(117,176,192)"/>
<polygon points="236,339 181,349 215,381" style="fill:rgb(132,197,204)"/>
<polygon points="215,381 180,394 224,408" style="fill:rgb(135,173,204)"/>
<polygon points="201,267 181,349 236,339" style="fill:rgb(135,198,201)"/>
<polygon points="541,166 344,124 355,169" style="fill:rgb(96,150,176)"/>
<polygon points="355,169 191,215 367,213" style="fill:rgb(110,168,187)"/>
<polygon points="149,507 257,520 220,436" style="fill:rgb(72,108,152)"/>
<polygon points="220,436 257,520 249,419" style="fill:rgb(71,109,155)"/>
<polygon points="421,507 514,572 539,514" style="fill:rgb(62,88,162)"/>
<polygon points="181,349 180,394 215,381" style="fill:rgb(97,138,191)"/>
<polygon points="257,520 278,542 395,432" style="fill:rgb(77,109,145)"/>
<polygon points="598,189 580,176 563,211" style="fill:rgb(113,148,184)"/>
<polygon points="539,514 617,469 599,427" style="fill:rgb(61,99,160)"/>
<polygon points="693,391 676,321 597,396" style="fill:rgb(67,101,158)"/>
<polygon points="635,230 563,211 559,227" style="fill:rgb(88,127,180)"/>
<polygon points="173,416 182,437 224,408" style="fill:rgb(116,157,193)"/>
<polygon points="126,371 173,416 180,394" style="fill:rgb(94,132,186)"/>
<polygon points="180,394 173,416 224,408" style="fill:rgb(139,176,206)"/>
<polygon points="452,625 514,572 421,507" style="fill:rgb(62,91,154)"/>
<polygon points="539,514 586,617 617,469" style="fill:rgb(53,88,154)"/>
<polygon points="622,292 635,230 557,239" style="fill:rgb(81,120,180)"/>
<polygon points="657,220 635,230 698,299" style="fill:rgb(106,147,183)"/>
<polygon points="657,220 599,177 598,189" style="fill:rgb(106,152,180)"/>
<polygon points="598,189 599,177 580,176" style="fill:rgb(210,217,223)"/>
<polygon points="580,176 570,116 541,166" style="fill:rgb(95,145,176)"/>
<polygon points="541,166 570,116 344,124" style="fill:rgb(93,144,175)"/>
<polygon points="200,159 191,215 355,169" style="fill:rgb(105,162,184)"/>
<polygon points="81,327 126,371 181,349" style="fill:rgb(136,199,201)"/>
<polygon points="181,349 126,371 180,394" style="fill:rgb(94,137,191)"/>
<polygon points="693,391 597,396 599,427" style="fill:rgb(83,108,154)"/>
<polygon points="698,299 635,230 622,292" style="fill:rgb(77,115,180)"/>
<polygon points="635,230 657,220 598,189" style="fill:rgb(92,133,175)"/>
<polygon points="694,157 570,116 599,177" style="fill:rgb(94,145,175)"/>
<polygon points="599,177 570,116 580,176" style="fill:rgb(97,149,177)"/>
<polygon points="344,124 200,159 355,169" style="fill:rgb(97,150,179)"/>
<polygon points="570,116 335,74 344,124" style="fill:rgb(88,136,174)"/>
<polygon points="344,124 202,103 200,159" style="fill:rgb(92,143,176)"/>
<polygon points="278,542 452,625 421,507" style="fill:rgb(69,97,151)"/>
<polygon points="111,390 126,371 69,366" style="fill:rgb(114,184,192)"/>
<polygon points="81,327 181,349 201,267" style="fill:rgb(134,195,198)"/>
<polygon points="173,416 108,442 182,437" style="fill:rgb(87,125,178)"/>
<polygon points="699,400 693,391 599,427" style="fill:rgb(92,123,178)"/>
<polygon points="676,321 698,299 622,292" style="fill:rgb(70,105,172)"/>
<polygon points="693,391 700,370 676,321" style="fill:rgb(68,96,159)"/>
<polygon points="723,341 698,299 676,321" style="fill:rgb(67,98,169)"/>
<polygon points="693,391 713,370 700,370" style="fill:rgb(168,162,148)"/>
<polygon points="617,469 699,400 599,427" style="fill:rgb(67,106,170)"/>
<polygon points="707,439 699,400 617,469" style="fill:rgb(55,93,164)"/>
<polygon points="81,327 201,267 68,271" style="fill:rgb(126,186,193)"/>
<polygon points="126,371 111,390 173,416" style="fill:rgb(93,132,187)"/>
<polygon points="182,437 149,507 220,436" style="fill:rgb(69,107,160)"/>
<polygon points="257,520 206,646 278,542" style="fill:rgb(60,82,158)"/>
<polygon points="699,400 713,370 693,391" style="fill:rgb(117,134,163)"/>
<polygon points="700,370 723,341 676,321" style="fill:rgb(64,94,162)"/>
<polygon points="108,442 149,507 182,437" style="fill:rgb(70,108,164)"/>
<polygon points="278,542 206,646 452,625" style="fill:rgb(59,80,154)"/>
<polygon points="699,400 719,370 713,370" style="fill:rgb(79,100,154)"/>
<polygon points="713,370 723,341 700,370" style="fill:rgb(67,92,157)"/>
<polygon points="504,646 529,632 514,572" style="fill:rgb(60,91,145)"/>
<polygon points="514,572 586,617 539,514" style="fill:rgb(52,92,159)"/>
<polygon points="715,456 707,439 617,469" style="fill:rgb(63,95,155)"/>
<polygon points="699,400 742,386 719,370" style="fill:rgb(89,119,176)"/>
<polygon points="719,370 723,341 713,370" style="fill:rgb(60,81,148)"/>
<polygon points="732,252 701,205 657,220" style="fill:rgb(112,170,187)"/>
<polygon points="452,625 504,646 514,572" style="fill:rgb(60,94,146)"/>
<polygon points="206,646 504,646 452,625" style="fill:rgb(64,89,155)"/>
<polygon points="111,390 108,442 173,416" style="fill:rgb(94,131,184)"/>
<polygon points="335,74 202,103 344,124" style="fill:rgb(89,136,177)"/>
<polygon points="68,271 201,267 191,215" style="fill:rgb(120,180,192)"/>
<polygon points="732,252 657,220 698,299" style="fill:rgb(90,130,179)"/>
<polygon points="657,220 694,157 599,177" style="fill:rgb(103,158,180)"/>
<polygon points="654,643 586,617 529,632" style="fill:rgb(40,54,109)"/>
<polygon points="529,632 586,617 514,572" style="fill:rgb(51,85,159)"/>
<polygon points="753,406 742,386 699,400" style="fill:rgb(55,96,169)"/>
<polygon points="767,328 737,323 723,341" style="fill:rgb(83,100,144)"/>
<polygon points="703,554 715,456 617,469" style="fill:rgb(58,90,154)"/>
<polygon points="764,370 723,341 719,370" style="fill:rgb(130,145,166)"/>
<polygon points="723,341 737,323 698,299" style="fill:rgb(66,93,163)"/>
<polygon points="68,271 191,215 78,211" style="fill:rgb(113,172,188)"/>
<polygon points="111,390 25,398 108,442" style="fill:rgb(82,122,182)"/>
<polygon points="753,395 742,386 753,406" style="fill:rgb(59,93,162)"/>
<polygon points="746,290 698,299 737,323" style="fill:rgb(89,133,177)"/>
<polygon points="746,290 732,252 698,299" style="fill:rgb(84,120,179)"/>
<polygon points="844,204 694,157 701,205" style="fill:rgb(102,158,179)"/>
<polygon points="701,205 694,157 657,220" style="fill:rgb(104,161,181)"/>
<polygon points="755,314 746,290 737,323" style="fill:rgb(96,129,180)"/>
<polygon points="81,327 69,366 126,371" style="fill:rgb(130,194,196)"/>
<polygon points="766,324 755,314 737,323" style="fill:rgb(120,148,192)"/>
<polygon points="746,290 794,284 732,252" style="fill:rgb(123,180,187)"/>
<polygon points="753,406 699,400 707,439" style="fill:rgb(55,91,164)"/>
<polygon points="742,386 764,370 719,370" style="fill:rgb(98,126,177)"/>
<polygon points="715,456 753,406 707,439" style="fill:rgb(89,116,166)"/>
<polygon points="753,395 764,370 742,386" style="fill:rgb(62,101,171)"/>
<polygon points="78,211 191,215 200,159" style="fill:rgb(105,163,183)"/>
<polygon points="0,332 35,380 69,366" style="fill:rgb(124,188,184)"/>
<polygon points="771,391 764,370 753,395" style="fill:rgb(69,99,167)"/>
<polygon points="767,328 766,324 737,323" style="fill:rgb(94,103,140)"/>
<polygon points="796,293 794,284 746,290" style="fill:rgb(185,210,213)"/>
<polygon points="874,156 699,93 694,157" style="fill:rgb(89,138,170)"/>
<polygon points="764,370 767,328 723,341" style="fill:rgb(160,162,160)"/>
<polygon points="52,158 78,211 200,159" style="fill:rgb(100,156,177)"/>
<polygon points="103,569 137,576 149,507" style="fill:rgb(69,106,151)"/>
<polygon points="149,507 137,576 257,520" style="fill:rgb(69,105,149)"/>
<polygon points="103,569 149,507 21,507" style="fill:rgb(68,104,154)"/>
<polygon points="699,93 579,28 570,116" style="fill:rgb(86,127,173)"/>
<polygon points="570,116 579,28 335,74" style="fill:rgb(87,130,174)"/>
<polygon points="586,617 703,554 617,469" style="fill:rgb(56,86,148)"/>
<polygon points="790,449 773,402 753,406" style="fill:rgb(82,107,161)"/>
<polygon points="773,402 771,391 753,395" style="fill:rgb(188,184,169)"/>
<polygon points="764,370 793,334 767,328" style="fill:rgb(71,90,155)"/>
<polygon points="773,402 753,395 753,406" style="fill:rgb(142,150,161)"/>
<polygon points="137,576 206,646 257,520" style="fill:rgb(58,81,155)"/>
<polygon points="790,449 753,406 715,456" style="fill:rgb(60,94,156)"/>
<polygon points="800,354 793,334 764,370" style="fill:rgb(67,88,158)"/>
<polygon points="703,554 734,526 715,456" style="fill:rgb(53,86,154)"/>
<polygon points="586,617 707,573 703,554" style="fill:rgb(35,47,91)"/>
<polygon points="703,554 726,567 734,526" style="fill:rgb(36,42,92)"/>
<polygon points="0,332 69,366 81,327" style="fill:rgb(127,190,187)"/>
<polygon points="69,366 25,398 111,390" style="fill:rgb(84,129,179)"/>
<polygon points="25,398 35,380 0,409" style="fill:rgb(97,160,179)"/>
<polygon points="21,507 149,507 108,442" style="fill:rgb(70,108,164)"/>
<polygon points="137,576 118,646 206,646" style="fill:rgb(48,61,136)"/>
<polygon points="844,204 701,205 732,252" style="fill:rgb(114,171,187)"/>
<polygon points="694,157 699,93 570,116" style="fill:rgb(89,136,173)"/>
<polygon points="767,328 793,334 766,324" style="fill:rgb(67,88,147)"/>
<polygon points="796,293 746,290 755,314" style="fill:rgb(178,203,212)"/>
<polygon points="800,354 764,370 771,391" style="fill:rgb(65,92,164)"/>
<polygon points="586,617 654,643 707,573" style="fill:rgb(40,53,107)"/>
<polygon points="504,646 654,643 529,632" style="fill:rgb(43,55,102)"/>
<polygon points="669,646 726,567 707,573" style="fill:rgb(66,54,95)"/>
<polygon points="707,573 726,567 703,554" style="fill:rgb(43,47,99)"/>
<polygon points="814,361 771,391 773,402" style="fill:rgb(61,89,156)"/>
<polygon points="814,361 800,354 771,391" style="fill:rgb(65,91,156)"/>
<polygon points="796,293 755,314 766,324" style="fill:rgb(158,187,211)"/>
<polygon points="0,332 81,327 68,271" style="fill:rgb(121,184,184)"/>
<polygon points="35,380 25,398 69,366" style="fill:rgb(90,139,180)"/>
<polygon points="793,334 796,293 766,324" style="fill:rgb(153,174,203)"/>
<polygon points="790,449 715,456 734,526" style="fill:rgb(52,86,156)"/>
<polygon points="793,334 831,317 796,293" style="fill:rgb(150,179,206)"/>
<polygon points="579,28 193,17 335,74" style="fill:rgb(89,127,172)"/>
<polygon points="335,74 193,17 202,103" style="fill:rgb(88,129,176)"/>
<polygon points="202,103 52,158 200,159" style="fill:rgb(92,144,175)"/>
<polygon points="803,472 790,449 734,526" style="fill:rgb(49,83,154)"/>
<polygon points="814,361 806,339 800,354" style="fill:rgb(163,183,205)"/>
<polygon points="800,354 806,339 793,334" style="fill:rgb(163,180,205)"/>
<polygon points="654,643 669,646 707,573" style="fill:rgb(62,56,100)"/>
<polygon points="504,646 669,646 654,643" style="fill:rgb(58,66,112)"/>
<polygon points="46,79 52,158 202,103" style="fill:rgb(85,137,170)"/>
<polygon points="78,211 0,240 68,271" style="fill:rgb(110,169,182)"/>
<polygon points="790,449 814,361 773,402" style="fill:rgb(74,97,157)"/>
<polygon points="806,339 831,317 793,334" style="fill:rgb(138,169,200)"/>
<polygon points="831,290 825,267 794,284" style="fill:rgb(93,132,191)"/>
<polygon points="0,240 0,332 68,271" style="fill:rgb(113,175,179)"/>
<polygon points="833,490 803,472 734,526" style="fill:rgb(33,41,90)"/>
<polygon points="790,449 880,433 814,361" style="fill:rgb(58,88,162)"/>
<polygon points="835,470 803,472 833,490" style="fill:rgb(33,43,90)"/>
<polygon points="0,332 0,409 35,380" style="fill:rgb(123,188,180)"/>
<polygon points="0,488 21,507 108,442" style="fill:rgb(80,122,173)"/>
<polygon points="746,0 662,12 699,93" style="fill:rgb(80,120,168)"/>
<polygon points="699,93 662,12 579,28" style="fill:rgb(84,122,172)"/>
<polygon points="579,28 662,12 193,17" style="fill:rgb(79,125,167)"/>
<polygon points="0,646 118,646 103,569" style="fill:rgb(42,55,121)"/>
<polygon points="103,569 118,646 137,576" style="fill:rgb(43,56,127)"/>
<polygon points="814,361 831,317 806,339" style="fill:rgb(91,126,178)"/>
<polygon points="794,284 825,267 732,252" style="fill:rgb(121,178,189)"/>
<polygon points="900,301 831,317 814,361" style="fill:rgb(86,125,173)"/>
<polygon points="0,488 108,442 25,398" style="fill:rgb(79,121,178)"/>
<polygon points="831,290 794,284 796,293" style="fill:rgb(192,212,221)"/>
<polygon points="52,158 0,240 78,211" style="fill:rgb(103,159,175)"/>
<polygon points="831,317 831,290 796,293" style="fill:rgb(179,202,217)"/>
<polygon points="0,409 0,488 25,398" style="fill:rgb(54,122,168)"/>
<polygon points="21,507 0,646 103,569" style="fill:rgb(44,59,126)"/>
<polygon points="833,490 734,526 726,567" style="fill:rgb(48,46,96)"/>
<polygon points="803,472 835,470 790,449" style="fill:rgb(49,82,154)"/>
<polygon points="892,256 825,267 831,290" style="fill:rgb(92,131,188)"/>
<polygon points="900,474 833,490 883,567" style="fill:rgb(40,46,103)"/>
<polygon points="193,17 46,79 202,103" style="fill:rgb(85,127,173)"/>
<polygon points="52,158 0,150 0,240" style="fill:rgb(98,149,164)"/>
<polygon points="46,79 0,150 52,158" style="fill:rgb(90,138,163)"/>
<polygon points="892,256 831,290 900,301" style="fill:rgb(93,133,184)"/>
<polygon points="892,256 844,204 825,267" style="fill:rgb(112,170,186)"/>
<polygon points="825,267 844,204 732,252" style="fill:rgb(118,175,188)"/>
<polygon points="876,456 880,433 835,470" style="fill:rgb(33,41,82)"/>
<polygon points="835,470 880,433 790,449" style="fill:rgb(51,83,161)"/>
<polygon points="900,474 876,456 833,490" style="fill:rgb(57,52,100)"/>
<polygon points="833,490 876,456 835,470" style="fill:rgb(35,42,89)"/>
<polygon points="193,17 75,0 46,79" style="fill:rgb(84,123,166)"/>
<polygon points="46,79 4,64 0,150" style="fill:rgb(80,131,161)"/>
<polygon points="662,12 75,0 193,17" style="fill:rgb(71,124,162)"/>
<polygon points="900,72 746,0 699,93" style="fill:rgb(83,122,166)"/>
<polygon points="662,12 746,0 75,0" style="fill:rgb(59,121,160)"/>
<polygon points="900,301 831,290 831,317" style="fill:rgb(89,126,182)"/>
<polygon points="844,204 874,156 694,157" style="fill:rgb(96,149,173)"/>
<polygon points="900,423 900,301 814,361" style="fill:rgb(76,116,159)"/>
<polygon points="25,22 4,64 46,79" style="fill:rgb(77,122,159)"/>
<polygon points="876,456 900,423 880,433" style="fill:rgb(39,49,89)"/>
<polygon points="880,433 900,423 814,361" style="fill:rgb(61,94,157)"/>
<polygon points="900,203 874,156 844,204" style="fill:rgb(95,150,171)"/>
<polygon points="75,0 25,22 46,79" style="fill:rgb(82,121,160)"/>
<polygon points="825,639 833,490 726,567" style="fill:rgb(39,44,100)"/>
<polygon points="876,456 900,474 900,423" style="fill:rgb(66,57,100)"/>
<polygon points="669,646 825,639 726,567" style="fill:rgb(37,45,95)"/>
<polygon points="0,488 0,646 21,507" style="fill:rgb(47,63,131)"/>
<polygon points="900,301 900,203 892,256" style="fill:rgb(104,157,176)"/>
<polygon points="892,256 900,203 844,204" style="fill:rgb(106,163,180)"/>
<polygon points="825,639 883,567 833,490" style="fill:rgb(43,47,101)"/>
<polygon points="669,646 841,646 825,639" style="fill:rgb(53,61,112)"/>
<polygon points="825,639 841,646 883,567" style="fill:rgb(57,66,127)"/>
<polygon points="75,0 0,0 25,22" style="fill:rgb(66,119,152)"/>
<polygon points="25,22 0,0 4,64" style="fill:rgb(51,118,151)"/>
<polygon points="4,64 0,0 0,150" style="fill:rgb(74,125,155)"/>
<polygon points="900,203 900,72 874,156" style="fill:rgb(89,139,167)"/>
<polygon points="874,156 900,72 699,93" style="fill:rgb(86,130,166)"/>
<polygon points="841,646 900,646 883,567" style="fill:rgb(61,59,106)"/>
<polygon points="883,567 900,646 900,474" style="fill:rgb(54,67,129)"/>
<polygon points="900,72 900,0 746,0" style="fill:rgb(76,115,160)"/>
</svg>