<?xml version="1.0"?>
<svg width="3771" height="3771"
     xmlns="http://www.w3.org/2000/svg"
     shape-rendering="crispEdges">
<!-- original width=4748 height=3771-->
<polygon points="2353,1934 2336,1822 2290,1859" style="fill:rgb(90,57,70)"/>
<polygon points="2353,1934 2533,1831 2336,1822" style="fill:rgb(142,95,106)"/>
<polygon points="2230,1605 2135,1846 2290,1859" style="fill:rgb(42,33,50)"/>
<polygon points="2290,1859 2055,2039 2353,1934" style="fill:rgb(34,27,45)"/>
<polygon points="2533,1831 2344,1625 2336,1822" style="fill:rgb(180,125,127)"/>
<polygon points="2336,1822 2230,1605 2290,1859" style="fill:rgb(108,68,80)"/>
<polygon points="2344,1625 2230,1605 2336,1822" style="fill:rgb(221,204,210)"/>
<polygon points="1873,1801 2055,2039 2135,1846" style="fill:rgb(49,47,79)"/>
<polygon points="2135,1846 2055,2039 2290,1859" style="fill:rgb(36,33,56)"/>
<polygon points="2230,1605 2071,1669 2135,1846" style="fill:rgb(129,134,179)"/>
<polygon points="2344,1625 2201,1545 2230,1605" style="fill:rgb(183,164,176)"/>
<polygon points="2230,1605 2201,1545 2071,1669" style="fill:rgb(165,164,194)"/>
<polygon points="1879,1742 1873,1801 2071,1669" style="fill:rgb(98,100,149)"/>
<polygon points="2071,1669 1873,1801 2135,1846" style="fill:rgb(69,69,109)"/>
<polygon points="2201,1545 1966,1583 2071,1669" style="fill:rgb(204,199,209)"/>
<polygon points="1966,1583 1879,1742 2071,1669" style="fill:rgb(185,176,189)"/>
<polygon points="2533,1831 2741,1596 2344,1625" style="fill:rgb(190,129,124)"/>
<polygon points="2230,1377 2195,1402 2201,1545" style="fill:rgb(186,133,142)"/>
<polygon points="2230,1377 2201,1545 2344,1625" style="fill:rgb(153,92,89)"/>
<polygon points="2201,1545 2109,1429 1966,1583" style="fill:rgb(205,197,206)"/>
<polygon points="2195,1402 2109,1429 2201,1545" style="fill:rgb(226,208,215)"/>
<polygon points="2419,1235 2230,1377 2344,1625" style="fill:rgb(162,93,85)"/>
<polygon points="2195,1402 2172,1197 2109,1429" style="fill:rgb(237,226,233)"/>
<polygon points="2741,1596 2729,1525 2344,1625" style="fill:rgb(192,132,125)"/>
<polygon points="1716,1828 1769,1962 1873,1801" style="fill:rgb(54,52,86)"/>
<polygon points="1873,1801 1769,1962 2055,2039" style="fill:rgb(33,29,49)"/>
<polygon points="2037,1146 1900,1492 2109,1429" style="fill:rgb(193,189,196)"/>
<polygon points="2109,1429 1900,1492 1966,1583" style="fill:rgb(183,175,183)"/>
<polygon points="1966,1583 1737,1579 1879,1742" style="fill:rgb(192,190,209)"/>
<polygon points="1879,1742 1716,1828 1873,1801" style="fill:rgb(74,76,118)"/>
<polygon points="1737,1579 1716,1828 1879,1742" style="fill:rgb(171,163,184)"/>
<polygon points="2729,1525 2419,1235 2344,1625" style="fill:rgb(188,119,106)"/>
<polygon points="2230,1377 2213,1219 2195,1402" style="fill:rgb(180,116,142)"/>
<polygon points="2419,1235 2213,1219 2230,1377" style="fill:rgb(145,78,76)"/>
<polygon points="1728,1437 1737,1579 1900,1492" style="fill:rgb(210,212,227)"/>
<polygon points="1900,1492 1737,1579 1966,1583" style="fill:rgb(205,206,222)"/>
<polygon points="2227,1111 2172,1197 2213,1219" style="fill:rgb(172,98,102)"/>
<polygon points="2213,1219 2172,1197 2195,1402" style="fill:rgb(229,204,215)"/>
<polygon points="1716,1828 1636,1989 1769,1962" style="fill:rgb(58,58,93)"/>
<polygon points="1769,1962 1859,2525 2055,2039" style="fill:rgb(24,20,38)"/>
<polygon points="1378,2094 1636,1989 1226,1817" style="fill:rgb(175,170,199)"/>
<polygon points="2912,1265 2720,1251 2729,1525" style="fill:rgb(185,116,114)"/>
<polygon points="2729,1525 2625,1193 2419,1235" style="fill:rgb(203,135,123)"/>
<polygon points="2419,1235 2388,1119 2213,1219" style="fill:rgb(151,90,92)"/>
<polygon points="2720,1251 2625,1193 2729,1525" style="fill:rgb(196,130,119)"/>
<polygon points="2936,2921 3085,1857 2533,1831" style="fill:rgb(31,29,53)"/>
<polygon points="2533,1831 3085,1857 2741,1596" style="fill:rgb(37,33,54)"/>
<polygon points="3027,1265 2912,1265 2729,1525" style="fill:rgb(84,59,62)"/>
<polygon points="3270,1973 3085,1857 3320,2597" style="fill:rgb(52,48,80)"/>
<polygon points="3085,1857 3085,1781 2741,1596" style="fill:rgb(57,55,85)"/>
<polygon points="2037,1146 1728,1437 1900,1492" style="fill:rgb(235,237,242)"/>
<polygon points="1226,1817 1636,1989 1716,1828" style="fill:rgb(188,186,212)"/>
<polygon points="2625,1193 2388,1119 2419,1235" style="fill:rgb(161,103,99)"/>
<polygon points="2388,1119 2227,1111 2213,1219" style="fill:rgb(163,103,109)"/>
<polygon points="2172,1197 2037,1146 2109,1429" style="fill:rgb(193,187,198)"/>
<polygon points="2720,1251 2646,1152 2625,1193" style="fill:rgb(129,72,68)"/>
<polygon points="2625,1193 2646,1152 2388,1119" style="fill:rgb(82,39,47)"/>
<polygon points="2227,1111 2037,1146 2172,1197" style="fill:rgb(204,192,203)"/>
<polygon points="1501,2317 1859,2525 1769,1962" style="fill:rgb(25,22,40)"/>
<polygon points="2055,2039 2129,2871 2353,1934" style="fill:rgb(29,26,49)"/>
<polygon points="3027,1265 2729,1525 2741,1596" style="fill:rgb(83,64,68)"/>
<polygon points="2720,1251 2882,1215 2646,1152" style="fill:rgb(66,34,38)"/>
<polygon points="2912,1265 2882,1215 2720,1251" style="fill:rgb(177,103,98)"/>
<polygon points="3085,1857 3207,1864 3085,1781" style="fill:rgb(74,73,109)"/>
<polygon points="3051,1270 3027,1265 2741,1596" style="fill:rgb(144,119,119)"/>
<polygon points="3270,1973 3207,1864 3085,1857" style="fill:rgb(70,69,104)"/>
<polygon points="3207,1864 3235,1764 3085,1781" style="fill:rgb(204,205,223)"/>
<polygon points="2912,1265 3027,1265 2882,1215" style="fill:rgb(75,50,53)"/>
<polygon points="3051,1270 2741,1596 3085,1781" style="fill:rgb(171,156,163)"/>
<polygon points="2646,1152 2365,958 2388,1119" style="fill:rgb(118,77,84)"/>
<polygon points="2388,1119 2365,958 2227,1111" style="fill:rgb(180,149,170)"/>
<polygon points="2227,1111 2300,762 2037,1146" style="fill:rgb(223,217,225)"/>
<polygon points="2380,794 2365,958 2711,842" style="fill:rgb(166,100,92)"/>
<polygon points="3004,1040 2646,1152 2882,1215" style="fill:rgb(57,38,40)"/>
<polygon points="2663,2944 2533,1831 2353,1934" style="fill:rgb(30,27,49)"/>
<polygon points="3207,1864 3270,1973 3235,1764" style="fill:rgb(208,211,229)"/>
<polygon points="3159,1294 3051,1270 3085,1781" style="fill:rgb(168,159,172)"/>
<polygon points="3027,1265 3004,1040 2882,1215" style="fill:rgb(71,50,55)"/>
<polygon points="1859,2525 2129,2871 2055,2039" style="fill:rgb(25,21,41)"/>
<polygon points="1378,2094 1501,2317 1636,1989" style="fill:rgb(161,145,172)"/>
<polygon points="1636,1989 1501,2317 1769,1962" style="fill:rgb(43,41,69)"/>
<polygon points="1859,2525 1762,2672 1958,2739" style="fill:rgb(148,120,133)"/>
<polygon points="1429,2477 1762,2672 1859,2525" style="fill:rgb(24,20,38)"/>
<polygon points="1226,1817 1716,1828 1238,1661" style="fill:rgb(202,203,225)"/>
<polygon points="3461,1297 3159,1294 3235,1764" style="fill:rgb(238,241,247)"/>
<polygon points="3235,1764 3159,1294 3085,1781" style="fill:rgb(212,213,228)"/>
<polygon points="3051,1270 3004,1040 3027,1265" style="fill:rgb(116,87,85)"/>
<polygon points="1762,2672 1930,2803 1958,2739" style="fill:rgb(143,115,131)"/>
<polygon points="1958,2739 2129,2871 1859,2525" style="fill:rgb(27,24,44)"/>
<polygon points="2056,2896 2129,2871 1958,2739" style="fill:rgb(35,30,51)"/>
<polygon points="1930,2803 2056,2896 1958,2739" style="fill:rgb(65,53,77)"/>
<polygon points="2056,2896 2187,2931 2129,2871" style="fill:rgb(126,109,144)"/>
<polygon points="2129,2871 2663,2944 2353,1934" style="fill:rgb(30,27,50)"/>
<polygon points="3103,1024 3004,1040 3051,1270" style="fill:rgb(137,107,104)"/>
<polygon points="2031,618 1787,953 2037,1146" style="fill:rgb(220,222,229)"/>
<polygon points="2037,1146 1787,953 1728,1437" style="fill:rgb(246,247,249)"/>
<polygon points="1238,1661 1716,1828 1737,1579" style="fill:rgb(212,214,232)"/>
<polygon points="2711,842 2365,958 2646,1152" style="fill:rgb(183,117,106)"/>
<polygon points="2365,958 2300,762 2227,1111" style="fill:rgb(229,216,225)"/>
<polygon points="1189,2163 1429,2477 1501,2317" style="fill:rgb(131,107,131)"/>
<polygon points="1501,2317 1429,2477 1859,2525" style="fill:rgb(26,22,41)"/>
<polygon points="1762,2672 1797,2838 1930,2803" style="fill:rgb(143,113,126)"/>
<polygon points="1930,2803 1945,2931 2056,2896" style="fill:rgb(198,154,156)"/>
<polygon points="3004,1040 2711,842 2646,1152" style="fill:rgb(85,56,55)"/>
<polygon points="1703,2941 1797,2838 1600,2936" style="fill:rgb(145,117,140)"/>
<polygon points="2073,3185 2206,3157 2187,2931" style="fill:rgb(196,143,144)"/>
<polygon points="2187,2931 2663,2944 2129,2871" style="fill:rgb(77,74,119)"/>
<polygon points="2338,715 2300,762 2380,794" style="fill:rgb(154,109,100)"/>
<polygon points="2380,794 2300,762 2365,958" style="fill:rgb(210,174,176)"/>
<polygon points="1238,1661 1737,1579 1293,1328" style="fill:rgb(232,234,244)"/>
<polygon points="1378,2094 1189,2163 1501,2317" style="fill:rgb(145,125,153)"/>
<polygon points="1808,2891 1945,2931 1930,2803" style="fill:rgb(202,143,148)"/>
<polygon points="2187,2931 2607,3004 2663,2944" style="fill:rgb(59,54,90)"/>
<polygon points="1293,1328 1737,1579 1728,1437" style="fill:rgb(239,242,248)"/>
<polygon points="3159,1294 3103,1024 3051,1270" style="fill:rgb(194,185,193)"/>
<polygon points="3004,1040 2936,755 2711,842" style="fill:rgb(86,62,64)"/>
<polygon points="1703,2941 1808,2891 1797,2838" style="fill:rgb(224,204,214)"/>
<polygon points="1797,2838 1808,2891 1930,2803" style="fill:rgb(227,207,215)"/>
<polygon points="3500,2346 3462,2132 3270,1973" style="fill:rgb(195,198,217)"/>
<polygon points="3270,1973 3533,1705 3235,1764" style="fill:rgb(214,217,231)"/>
<polygon points="3159,1294 3329,1189 3103,1024" style="fill:rgb(224,227,234)"/>
<polygon points="2206,3157 2607,3004 2187,2931" style="fill:rgb(42,35,60)"/>
<polygon points="2663,2944 2936,2921 2533,1831" style="fill:rgb(28,26,49)"/>
<polygon points="2577,644 2338,715 2380,794" style="fill:rgb(96,65,60)"/>
<polygon points="2300,762 2031,618 2037,1146" style="fill:rgb(189,184,193)"/>
<polygon points="1261,1150 1293,1328 1728,1437" style="fill:rgb(239,241,247)"/>
<polygon points="1098,1863 1189,2163 1226,1817" style="fill:rgb(105,71,63)"/>
<polygon points="1226,1817 1189,2163 1378,2094" style="fill:rgb(164,154,183)"/>
<polygon points="2778,3089 2936,2921 2663,2944" style="fill:rgb(63,60,99)"/>
<polygon points="3103,1024 3067,920 3004,1040" style="fill:rgb(136,109,110)"/>
<polygon points="2711,842 2577,644 2380,794" style="fill:rgb(86,52,46)"/>
<polygon points="3462,2132 3533,1705 3270,1973" style="fill:rgb(209,211,225)"/>
<polygon points="3103,1024 3189,723 3067,920" style="fill:rgb(216,216,226)"/>
<polygon points="3461,1297 3329,1189 3159,1294" style="fill:rgb(194,197,212)"/>
<polygon points="2936,2921 3320,2597 3085,1857" style="fill:rgb(40,37,66)"/>
<polygon points="1261,1150 1270,1311 1293,1328" style="fill:rgb(235,237,245)"/>
<polygon points="1293,1328 1270,1311 1238,1661" style="fill:rgb(198,190,188)"/>
<polygon points="1238,1661 1111,1739 1226,1817" style="fill:rgb(119,86,79)"/>
<polygon points="3500,2346 3531,2197 3462,2132" style="fill:rgb(167,162,179)"/>
<polygon points="3462,2132 3531,2197 3533,1705" style="fill:rgb(174,173,189)"/>
<polygon points="1047,1681 1111,1739 1238,1661" style="fill:rgb(101,69,63)"/>
<polygon points="1600,2936 1797,2838 1762,2672" style="fill:rgb(137,108,124)"/>
<polygon points="1808,2891 1672,3042 1945,2931" style="fill:rgb(182,116,124)"/>
<polygon points="2073,3185 2187,2931 2056,2896" style="fill:rgb(209,164,162)"/>
<polygon points="1600,2936 1762,2672 1429,2477" style="fill:rgb(25,22,40)"/>
<polygon points="1111,1739 1098,1863 1226,1817" style="fill:rgb(116,79,71)"/>
<polygon points="3320,2597 3500,2346 3270,1973" style="fill:rgb(174,176,202)"/>
<polygon points="2737,621 2577,644 2711,842" style="fill:rgb(80,57,53)"/>
<polygon points="3533,1705 3461,1297 3235,1764" style="fill:rgb(226,228,237)"/>
<polygon points="2986,678 2951,738 3110,680" style="fill:rgb(156,138,138)"/>
<polygon points="2951,738 2936,755 3067,920" style="fill:rgb(152,134,137)"/>
<polygon points="3067,920 2936,755 3004,1040" style="fill:rgb(117,93,94)"/>
<polygon points="2737,621 2567,614 2577,644" style="fill:rgb(134,104,100)"/>
<polygon points="2577,644 2567,614 2338,715" style="fill:rgb(141,108,98)"/>
<polygon points="2338,715 2031,618 2300,762" style="fill:rgb(207,199,204)"/>
<polygon points="2073,3185 2056,2896 1945,2931" style="fill:rgb(206,149,151)"/>
<polygon points="2607,3004 2778,3089 2663,2944" style="fill:rgb(55,50,83)"/>
<polygon points="2592,3235 2778,3089 2607,3004" style="fill:rgb(35,30,55)"/>
<polygon points="3304,3022 3430,2771 3320,2597" style="fill:rgb(140,137,170)"/>
<polygon points="2951,738 3067,920 3110,680" style="fill:rgb(182,169,174)"/>
<polygon points="2936,755 2737,621 2711,842" style="fill:rgb(71,51,50)"/>
<polygon points="1567,2957 1600,2936 1219,2838" style="fill:rgb(89,91,129)"/>
<polygon points="1745,3195 2073,3185 1945,2931" style="fill:rgb(154,83,102)"/>
<polygon points="2432,277 2031,618 2338,715" style="fill:rgb(200,194,200)"/>
<polygon points="1787,953 1261,1150 1728,1437" style="fill:rgb(243,246,249)"/>
<polygon points="1276,0 1261,1150 1787,953" style="fill:rgb(242,244,248)"/>
<polygon points="1270,1311 1047,1681 1238,1661" style="fill:rgb(168,124,100)"/>
<polygon points="2739,529 2558,589 2567,614" style="fill:rgb(184,168,169)"/>
<polygon points="2567,614 2558,589 2338,715" style="fill:rgb(184,154,148)"/>
<polygon points="747,2105 1193,2502 1189,2163" style="fill:rgb(110,75,65)"/>
<polygon points="1189,2163 1193,2502 1429,2477" style="fill:rgb(108,86,106)"/>
<polygon points="1111,1739 1015,1708 1098,1863" style="fill:rgb(153,108,95)"/>
<polygon points="1098,1863 912,1921 1189,2163" style="fill:rgb(151,105,88)"/>
<polygon points="695,1659 1047,1681 761,1113" style="fill:rgb(190,146,131)"/>
<polygon points="2951,738 2737,621 2936,755" style="fill:rgb(108,86,84)"/>
<polygon points="1487,2999 1567,2957 1219,2838" style="fill:rgb(197,197,222)"/>
<polygon points="1600,2936 1672,3042 1703,2941" style="fill:rgb(218,181,197)"/>
<polygon points="1672,3042 1808,2891 1703,2941" style="fill:rgb(202,143,157)"/>
<polygon points="2206,3157 2419,3251 2607,3004" style="fill:rgb(32,27,50)"/>
<polygon points="695,1659 1015,1708 1047,1681" style="fill:rgb(80,50,41)"/>
<polygon points="1047,1681 1015,1708 1111,1739" style="fill:rgb(93,62,58)"/>
<polygon points="1567,2957 1672,3042 1600,2936" style="fill:rgb(200,149,173)"/>
<polygon points="3533,1705 3543,1273 3461,1297" style="fill:rgb(195,197,208)"/>
<polygon points="3461,1297 3554,1108 3329,1189" style="fill:rgb(215,219,227)"/>
<polygon points="3815,1538 3543,1273 3533,1705" style="fill:rgb(239,242,247)"/>
<polygon points="1987,3313 2169,3221 2073,3185" style="fill:rgb(81,72,112)"/>
<polygon points="2073,3185 2169,3221 2206,3157" style="fill:rgb(110,72,94)"/>
<polygon points="3110,680 3067,920 3189,723" style="fill:rgb(192,187,198)"/>
<polygon points="2951,738 2986,678 2737,621" style="fill:rgb(169,150,150)"/>
<polygon points="2713,3293 2938,3112 2778,3089" style="fill:rgb(133,132,180)"/>
<polygon points="2778,3089 2938,3112 2936,2921" style="fill:rgb(51,47,78)"/>
<polygon points="2169,3221 2419,3251 2206,3157" style="fill:rgb(38,32,58)"/>
<polygon points="2419,3251 2592,3235 2607,3004" style="fill:rgb(32,27,50)"/>
<polygon points="3461,2776 3500,2346 3320,2597" style="fill:rgb(171,172,200)"/>
<polygon points="3691,2339 3677,2276 3500,2346" style="fill:rgb(207,210,227)"/>
<polygon points="3500,2346 3677,2276 3531,2197" style="fill:rgb(204,207,224)"/>
<polygon points="3531,2197 3816,1674 3533,1705" style="fill:rgb(231,233,242)"/>
<polygon points="2986,678 2739,529 2737,621" style="fill:rgb(179,163,162)"/>
<polygon points="2737,621 2739,529 2567,614" style="fill:rgb(182,165,164)"/>
<polygon points="2558,589 2432,277 2338,715" style="fill:rgb(203,193,196)"/>
<polygon points="3304,3022 3320,2597 2936,2921" style="fill:rgb(43,39,66)"/>
<polygon points="1567,2957 1487,2999 1672,3042" style="fill:rgb(220,188,204)"/>
<polygon points="1672,3042 1745,3195 1945,2931" style="fill:rgb(149,81,100)"/>
<polygon points="1219,2838 1600,2936 1429,2477" style="fill:rgb(31,26,46)"/>
<polygon points="3189,723 3103,1024 3495,861" style="fill:rgb(234,237,241)"/>
<polygon points="2986,678 3109,0 2739,529" style="fill:rgb(170,155,157)"/>
<polygon points="3560,2815 3691,2339 3500,2346" style="fill:rgb(178,180,206)"/>
<polygon points="3707,1130 3554,1108 3543,1273" style="fill:rgb(250,252,253)"/>
<polygon points="3495,861 3103,1024 3329,1189" style="fill:rgb(249,250,252)"/>
<polygon points="747,2105 912,1921 572,1794" style="fill:rgb(117,78,65)"/>
<polygon points="1015,1708 912,1921 1098,1863" style="fill:rgb(167,120,103)"/>
<polygon points="3457,3054 3461,2776 3430,2771" style="fill:rgb(157,160,195)"/>
<polygon points="3430,2771 3461,2776 3320,2597" style="fill:rgb(157,158,189)"/>
<polygon points="3816,1674 3531,2197 3677,2276" style="fill:rgb(219,220,232)"/>
<polygon points="3543,1273 3554,1108 3461,1297" style="fill:rgb(199,202,211)"/>
<polygon points="2552,377 2659,0 2556,0" style="fill:rgb(60,53,54)"/>
<polygon points="2739,529 2632,462 2558,589" style="fill:rgb(132,115,115)"/>
<polygon points="1610,3172 1745,3195 1672,3042" style="fill:rgb(139,82,114)"/>
<polygon points="2169,3221 2235,3378 2419,3251" style="fill:rgb(81,78,124)"/>
<polygon points="2592,3235 2713,3293 2778,3089" style="fill:rgb(89,81,121)"/>
<polygon points="2938,3112 3118,3125 2936,2921" style="fill:rgb(53,48,81)"/>
<polygon points="2585,3429 2713,3293 2592,3235" style="fill:rgb(87,73,109)"/>
<polygon points="2585,3429 2592,3235 2419,3251" style="fill:rgb(84,73,110)"/>
<polygon points="3068,3235 3118,3125 2938,3112" style="fill:rgb(189,189,220)"/>
<polygon points="1193,2502 1219,2838 1429,2477" style="fill:rgb(92,73,91)"/>
<polygon points="1487,2999 1610,3172 1672,3042" style="fill:rgb(147,80,109)"/>
<polygon points="987,2777 1219,2838 1193,2502" style="fill:rgb(81,59,68)"/>
<polygon points="1745,3195 1987,3313 2073,3185" style="fill:rgb(98,71,107)"/>
<polygon points="4014,2272 3816,1674 3677,2276" style="fill:rgb(196,187,194)"/>
<polygon points="1460,3097 1610,3172 1487,2999" style="fill:rgb(132,78,111)"/>
<polygon points="1745,3195 1960,3367 1987,3313" style="fill:rgb(54,46,76)"/>
<polygon points="3118,3125 3304,3022 2936,2921" style="fill:rgb(43,38,66)"/>
<polygon points="1987,3313 2235,3378 2169,3221" style="fill:rgb(67,61,98)"/>
<polygon points="1252,2972 1460,3097 1487,2999" style="fill:rgb(144,88,121)"/>
<polygon points="3816,1674 3815,1538 3533,1705" style="fill:rgb(224,225,234)"/>
<polygon points="2552,377 2632,462 2659,0" style="fill:rgb(82,69,70)"/>
<polygon points="2632,462 2552,377 2558,589" style="fill:rgb(59,50,52)"/>
<polygon points="3560,2815 3800,2352 3691,2339" style="fill:rgb(148,142,167)"/>
<polygon points="3691,2339 3800,2352 3677,2276" style="fill:rgb(167,160,180)"/>
<polygon points="3560,2815 3500,2346 3461,2776" style="fill:rgb(137,128,153)"/>
<polygon points="3457,3054 3560,2815 3461,2776" style="fill:rgb(124,110,136)"/>
<polygon points="3189,723 3369,607 3110,680" style="fill:rgb(209,211,220)"/>
<polygon points="2556,0 2432,277 2552,377" style="fill:rgb(187,176,181)"/>
<polygon points="3554,1108 3495,861 3329,1189" style="fill:rgb(249,251,252)"/>
<polygon points="3556,878 3495,861 3554,1108" style="fill:rgb(248,250,251)"/>
<polygon points="1935,3517 1960,3367 1540,3399" style="fill:rgb(59,51,82)"/>
<polygon points="1987,3313 1960,3367 2235,3378" style="fill:rgb(39,34,61)"/>
<polygon points="1960,3367 1745,3195 1540,3399" style="fill:rgb(43,35,61)"/>
<polygon points="3118,3125 3259,3145 3304,3022" style="fill:rgb(46,41,69)"/>
<polygon points="3304,3022 3457,3054 3430,2771" style="fill:rgb(136,137,173)"/>
<polygon points="2927,3346 3068,3235 2938,3112" style="fill:rgb(154,148,189)"/>
<polygon points="2927,3346 2938,3112 2713,3293" style="fill:rgb(166,165,207)"/>
<polygon points="1219,2838 1252,2972 1487,2999" style="fill:rgb(216,212,227)"/>
<polygon points="1074,2899 1252,2972 1219,2838" style="fill:rgb(214,206,223)"/>
<polygon points="3815,1538 3707,1130 3543,1273" style="fill:rgb(232,234,240)"/>
<polygon points="3068,3235 3218,3171 3118,3125" style="fill:rgb(162,157,192)"/>
<polygon points="3218,3171 3259,3145 3118,3125" style="fill:rgb(45,39,71)"/>
<polygon points="2376,3486 2419,3251 2235,3378" style="fill:rgb(171,173,215)"/>
<polygon points="2376,3486 2585,3429 2419,3251" style="fill:rgb(176,174,214)"/>
<polygon points="3669,892 3556,878 3554,1108" style="fill:rgb(252,252,253)"/>
<polygon points="3495,861 3369,607 3189,723" style="fill:rgb(240,243,247)"/>
<polygon points="2585,3429 2927,3346 2713,3293" style="fill:rgb(116,103,150)"/>
<polygon points="3068,3235 3303,3197 3218,3171" style="fill:rgb(133,123,158)"/>
<polygon points="2659,0 2739,529 3109,0" style="fill:rgb(162,146,146)"/>
<polygon points="2552,377 2432,277 2558,589" style="fill:rgb(184,174,178)"/>
<polygon points="1276,0 761,1113 1261,1150" style="fill:rgb(233,235,243)"/>
<polygon points="1935,3517 2376,3486 2235,3378" style="fill:rgb(126,122,175)"/>
<polygon points="2585,3429 2576,3506 2927,3346" style="fill:rgb(108,91,135)"/>
<polygon points="687,1714 912,1921 1015,1708" style="fill:rgb(163,118,104)"/>
<polygon points="912,1921 747,2105 1189,2163" style="fill:rgb(142,100,89)"/>
<polygon points="3303,3197 3259,3145 3218,3171" style="fill:rgb(54,46,73)"/>
<polygon points="3391,3171 3304,3022 3259,3145" style="fill:rgb(161,161,193)"/>
<polygon points="3391,3171 3457,3054 3304,3022" style="fill:rgb(177,178,208)"/>
<polygon points="4051,2343 4014,2272 3800,2352" style="fill:rgb(186,171,173)"/>
<polygon points="621,2692 987,2777 1193,2502" style="fill:rgb(84,54,51)"/>
<polygon points="987,2777 1074,2899 1219,2838" style="fill:rgb(181,186,206)"/>
<polygon points="1148,3060 1431,3234 1460,3097" style="fill:rgb(60,33,59)"/>
<polygon points="1460,3097 1431,3234 1610,3172" style="fill:rgb(59,37,64)"/>
<polygon points="3386,3530 3303,3197 3068,3235" style="fill:rgb(140,125,159)"/>
<polygon points="3395,598 3369,607 3495,861" style="fill:rgb(225,228,233)"/>
<polygon points="1148,3060 1460,3097 1252,2972" style="fill:rgb(148,84,116)"/>
<polygon points="1960,3367 1935,3517 2235,3378" style="fill:rgb(103,98,147)"/>
<polygon points="2376,3486 2576,3506 2585,3429" style="fill:rgb(136,127,175)"/>
<polygon points="3443,3179 3391,3171 3303,3197" style="fill:rgb(83,71,97)"/>
<polygon points="3830,1107 3669,892 3707,1130" style="fill:rgb(218,221,229)"/>
<polygon points="3707,1130 3669,892 3554,1108" style="fill:rgb(250,251,253)"/>
<polygon points="3537,573 3395,598 3495,861" style="fill:rgb(238,240,244)"/>
<polygon points="3537,573 3495,861 3556,878" style="fill:rgb(184,186,196)"/>
<polygon points="2659,0 2632,462 2739,529" style="fill:rgb(145,127,126)"/>
<polygon points="761,1113 1047,1681 1270,1311" style="fill:rgb(180,135,113)"/>
<polygon points="3443,3179 3303,3197 3386,3530" style="fill:rgb(81,70,98)"/>
<polygon points="3303,3197 3391,3171 3259,3145" style="fill:rgb(96,88,117)"/>
<polygon points="695,1659 687,1714 1015,1708" style="fill:rgb(81,53,50)"/>
<polygon points="854,2833 1061,2952 1074,2899" style="fill:rgb(193,97,138)"/>
<polygon points="1074,2899 1061,2952 1252,2972" style="fill:rgb(205,165,193)"/>
<polygon points="3815,1538 3830,1107 3707,1130" style="fill:rgb(218,220,228)"/>
<polygon points="4073,1328 3830,1107 3815,1538" style="fill:rgb(181,168,171)"/>
<polygon points="4015,1666 3815,1538 3816,1674" style="fill:rgb(189,176,179)"/>
<polygon points="1061,2952 1148,3060 1252,2972" style="fill:rgb(152,92,125)"/>
<polygon points="4014,2272 4015,1666 3816,1674" style="fill:rgb(174,158,160)"/>
<polygon points="1540,3399 1745,3195 1610,3172" style="fill:rgb(131,85,121)"/>
<polygon points="2376,3486 2474,3567 2576,3506" style="fill:rgb(104,94,146)"/>
<polygon points="1935,3517 2474,3567 2376,3486" style="fill:rgb(119,112,166)"/>
<polygon points="2576,3506 2532,3627 2927,3346" style="fill:rgb(77,61,97)"/>
<polygon points="3386,3530 3068,3235 3266,3621" style="fill:rgb(118,100,135)"/>
<polygon points="3391,3171 3443,3179 3457,3054" style="fill:rgb(151,147,181)"/>
<polygon points="3652,3137 3795,2880 3560,2815" style="fill:rgb(105,90,113)"/>
<polygon points="3795,2880 3800,2352 3560,2815" style="fill:rgb(122,108,129)"/>
<polygon points="3800,2352 4014,2272 3677,2276" style="fill:rgb(189,178,187)"/>
<polygon points="1337,3357 1540,3399 1431,3234" style="fill:rgb(147,99,136)"/>
<polygon points="1431,3234 1540,3399 1610,3172" style="fill:rgb(141,91,129)"/>
<polygon points="4014,2272 4072,1681 4015,1666" style="fill:rgb(197,183,185)"/>
<polygon points="4015,1666 4064,1514 3815,1538" style="fill:rgb(178,164,165)"/>
<polygon points="681,1101 761,1113 501,0" style="fill:rgb(232,234,242)"/>
<polygon points="1261,1150 761,1113 1270,1311" style="fill:rgb(228,230,239)"/>
<polygon points="695,1659 572,1794 687,1714" style="fill:rgb(134,92,77)"/>
<polygon points="4072,1681 4064,1514 4015,1666" style="fill:rgb(191,177,178)"/>
<polygon points="1935,3517 2532,3627 2474,3567" style="fill:rgb(87,75,120)"/>
<polygon points="2474,3567 2532,3627 2576,3506" style="fill:rgb(76,63,102)"/>
<polygon points="3652,3137 3560,2815 3457,3054" style="fill:rgb(93,82,108)"/>
<polygon points="3700,565 3537,573 3556,878" style="fill:rgb(250,251,252)"/>
<polygon points="2986,678 3110,680 3109,0" style="fill:rgb(182,173,183)"/>
<polygon points="3700,565 3556,878 3669,892" style="fill:rgb(251,252,253)"/>
<polygon points="3842,580 3669,892 3830,1107" style="fill:rgb(214,216,224)"/>
<polygon points="621,2692 854,2833 987,2777" style="fill:rgb(183,185,204)"/>
<polygon points="987,2777 854,2833 1074,2899" style="fill:rgb(215,217,228)"/>
<polygon points="1061,2952 965,3030 1148,3060" style="fill:rgb(155,93,128)"/>
<polygon points="1148,3060 1337,3357 1431,3234" style="fill:rgb(45,23,48)"/>
<polygon points="608,2260 1193,2502 747,2105" style="fill:rgb(96,62,52)"/>
<polygon points="4064,2526 4051,2343 3800,2352" style="fill:rgb(189,174,176)"/>
<polygon points="4014,2272 4273,2058 4072,1681" style="fill:rgb(214,203,205)"/>
<polygon points="284,1720 572,1794 695,1659" style="fill:rgb(129,82,61)"/>
<polygon points="687,1714 572,1794 912,1921" style="fill:rgb(153,105,83)"/>
<polygon points="4051,2343 4073,2271 4014,2272" style="fill:rgb(181,166,167)"/>
<polygon points="394,1993 608,2260 747,2105" style="fill:rgb(47,31,36)"/>
<polygon points="1069,3205 1337,3357 1148,3060" style="fill:rgb(74,38,64)"/>
<polygon points="1540,3399 1724,3771 1935,3517" style="fill:rgb(48,39,66)"/>
<polygon points="858,2989 965,3030 1061,2952" style="fill:rgb(205,183,213)"/>
<polygon points="621,2692 822,2846 854,2833" style="fill:rgb(219,218,233)"/>
<polygon points="854,2833 858,2989 1061,2952" style="fill:rgb(160,80,118)"/>
<polygon points="4147,1349 4073,1328 4064,1514" style="fill:rgb(189,175,175)"/>
<polygon points="4064,1514 4073,1328 3815,1538" style="fill:rgb(180,166,168)"/>
<polygon points="4147,1349 4064,1514 4286,1466" style="fill:rgb(195,179,180)"/>
<polygon points="3787,3145 3652,3137 3766,3771" style="fill:rgb(108,89,111)"/>
<polygon points="3443,3179 3652,3137 3457,3054" style="fill:rgb(97,82,107)"/>
<polygon points="4051,2343 4131,2272 4073,2271" style="fill:rgb(71,65,80)"/>
<polygon points="4073,2271 4273,2058 4014,2272" style="fill:rgb(210,197,200)"/>
<polygon points="4261,2432 4131,2272 4051,2343" style="fill:rgb(61,53,71)"/>
<polygon points="1276,0 1787,953 2031,618" style="fill:rgb(248,249,251)"/>
<polygon points="761,1113 681,1101 695,1659" style="fill:rgb(173,128,108)"/>
<polygon points="3978,2789 3800,2352 3795,2880" style="fill:rgb(208,195,199)"/>
<polygon points="3978,2789 4064,2526 3800,2352" style="fill:rgb(191,176,179)"/>
<polygon points="713,3063 1069,3205 965,3030" style="fill:rgb(66,32,63)"/>
<polygon points="965,3030 1069,3205 1148,3060" style="fill:rgb(57,26,51)"/>
<polygon points="4064,2526 4083,2485 4051,2343" style="fill:rgb(87,71,81)"/>
<polygon points="713,3063 858,2989 822,2846" style="fill:rgb(210,199,220)"/>
<polygon points="822,2846 858,2989 854,2833" style="fill:rgb(175,63,115)"/>
<polygon points="4073,1328 4053,1121 3830,1107" style="fill:rgb(174,161,164)"/>
<polygon points="4056,2883 3978,2789 3795,2880" style="fill:rgb(195,179,183)"/>
<polygon points="4261,2432 4051,2343 4083,2485" style="fill:rgb(61,44,61)"/>
<polygon points="4262,1661 4064,1514 4072,1681" style="fill:rgb(72,59,70)"/>
<polygon points="4073,1328 4147,1349 4053,1121" style="fill:rgb(232,233,240)"/>
<polygon points="3842,580 3700,565 3669,892" style="fill:rgb(221,223,230)"/>
<polygon points="3110,680 3164,0 3109,0" style="fill:rgb(224,224,235)"/>
<polygon points="3369,607 3164,0 3110,680" style="fill:rgb(246,247,249)"/>
<polygon points="2432,277 2037,0 2031,618" style="fill:rgb(199,193,200)"/>
<polygon points="2556,0 2037,0 2432,277" style="fill:rgb(196,189,194)"/>
<polygon points="3369,607 3381,0 3164,0" style="fill:rgb(250,250,251)"/>
<polygon points="608,2260 621,2692 1193,2502" style="fill:rgb(87,55,47)"/>
<polygon points="611,2755 621,2692 449,2656" style="fill:rgb(200,191,215)"/>
<polygon points="3386,3530 3652,3137 3443,3179" style="fill:rgb(79,66,89)"/>
<polygon points="3652,3137 3787,3145 3795,2880" style="fill:rgb(122,103,123)"/>
<polygon points="4301,1772 4262,1661 4072,1681" style="fill:rgb(185,169,174)"/>
<polygon points="4300,2191 4273,2058 4131,2272" style="fill:rgb(205,192,194)"/>
<polygon points="4131,2272 4273,2058 4073,2271" style="fill:rgb(209,196,201)"/>
<polygon points="4300,2191 4131,2272 4261,2432" style="fill:rgb(159,148,160)"/>
<polygon points="449,2656 621,2692 608,2260" style="fill:rgb(90,55,49)"/>
<polygon points="621,2692 611,2755 822,2846" style="fill:rgb(217,216,233)"/>
<polygon points="583,3194 1114,3434 1069,3205" style="fill:rgb(90,49,76)"/>
<polygon points="342,1970 394,1993 572,1794" style="fill:rgb(55,37,42)"/>
<polygon points="572,1794 394,1993 747,2105" style="fill:rgb(39,29,38)"/>
<polygon points="3266,3621 3068,3235 2927,3346" style="fill:rgb(98,84,122)"/>
<polygon points="4396,1621 4272,1536 4262,1661" style="fill:rgb(57,48,66)"/>
<polygon points="4262,1661 4272,1536 4064,1514" style="fill:rgb(77,65,78)"/>
<polygon points="4147,1349 4748,1397 4053,1121" style="fill:rgb(232,235,238)"/>
<polygon points="394,1993 413,2213 608,2260" style="fill:rgb(91,58,51)"/>
<polygon points="4273,2058 4301,1772 4072,1681" style="fill:rgb(208,196,200)"/>
<polygon points="3236,3771 3266,3621 2927,3346" style="fill:rgb(76,61,91)"/>
<polygon points="4261,2432 4083,2485 4256,2520" style="fill:rgb(66,51,69)"/>
<polygon points="4375,2072 4355,1764 4301,1772" style="fill:rgb(90,82,97)"/>
<polygon points="4256,2520 4064,2526 4249,2811" style="fill:rgb(206,192,195)"/>
<polygon points="4053,1121 3842,580 3830,1107" style="fill:rgb(180,167,171)"/>
<polygon points="3369,607 3395,598 3381,0" style="fill:rgb(184,184,193)"/>
<polygon points="4004,496 3842,580 4076,528" style="fill:rgb(170,157,161)"/>
<polygon points="713,3063 965,3030 858,2989" style="fill:rgb(172,145,188)"/>
<polygon points="1069,3205 1114,3434 1337,3357" style="fill:rgb(97,48,73)"/>
<polygon points="1337,3357 1724,3771 1540,3399" style="fill:rgb(45,34,60)"/>
<polygon points="1935,3517 1724,3771 2532,3627" style="fill:rgb(50,38,67)"/>
<polygon points="4042,3130 4056,2883 3795,2880" style="fill:rgb(197,181,184)"/>
<polygon points="4379,1496 4286,1466 4272,1536" style="fill:rgb(101,92,104)"/>
<polygon points="4272,1536 4286,1466 4064,1514" style="fill:rgb(213,210,217)"/>
<polygon points="573,2858 615,2863 611,2755" style="fill:rgb(97,67,95)"/>
<polygon points="611,2755 615,2863 822,2846" style="fill:rgb(204,196,215)"/>
<polygon points="1114,3434 1724,3771 1337,3357" style="fill:rgb(42,30,54)"/>
<polygon points="2532,3627 3236,3771 2927,3346" style="fill:rgb(65,50,79)"/>
<polygon points="4256,2520 4083,2485 4064,2526" style="fill:rgb(161,146,152)"/>
<polygon points="107,2250 390,2320 413,2213" style="fill:rgb(34,23,31)"/>
<polygon points="413,2213 390,2320 608,2260" style="fill:rgb(36,23,31)"/>
<polygon points="284,1720 342,1970 572,1794" style="fill:rgb(123,77,56)"/>
<polygon points="394,1993 342,1970 413,2213" style="fill:rgb(123,77,56)"/>
<polygon points="4375,2072 4301,1772 4273,2058" style="fill:rgb(71,55,67)"/>
<polygon points="4301,1772 4355,1764 4262,1661" style="fill:rgb(50,46,61)"/>
<polygon points="611,2954 713,3063 822,2846" style="fill:rgb(209,204,223)"/>
<polygon points="4249,2811 4064,2526 3978,2789" style="fill:rgb(213,200,203)"/>
<polygon points="4395,2395 4344,2150 4300,2191" style="fill:rgb(94,81,98)"/>
<polygon points="4395,2395 4300,2191 4261,2432" style="fill:rgb(55,48,69)"/>
<polygon points="4300,2191 4344,2150 4273,2058" style="fill:rgb(67,60,73)"/>
<polygon points="501,0 495,1055 681,1101" style="fill:rgb(226,227,235)"/>
<polygon points="681,1101 495,1055 695,1659" style="fill:rgb(145,100,74)"/>
<polygon points="449,2656 573,2858 611,2755" style="fill:rgb(91,57,65)"/>
<polygon points="615,2863 611,2954 822,2846" style="fill:rgb(212,207,225)"/>
<polygon points="3395,598 3414,0 3381,0" style="fill:rgb(155,156,167)"/>
<polygon points="559,2888 611,2954 615,2863" style="fill:rgb(220,214,231)"/>
<polygon points="4748,2283 4375,2072 4344,2150" style="fill:rgb(213,200,203)"/>
<polygon points="4344,2150 4375,2072 4273,2058" style="fill:rgb(57,47,64)"/>
<polygon points="390,2320 449,2656 608,2260" style="fill:rgb(82,50,43)"/>
<polygon points="573,2858 559,2888 615,2863" style="fill:rgb(220,222,241)"/>
<polygon points="3395,598 3576,55 3414,0" style="fill:rgb(234,236,242)"/>
<polygon points="391,2875 559,2888 573,2858" style="fill:rgb(206,196,215)"/>
<polygon points="211,1645 284,1720 695,1659" style="fill:rgb(79,48,39)"/>
<polygon points="342,1970 104,2186 413,2213" style="fill:rgb(110,71,57)"/>
<polygon points="0,2668 374,2840 449,2656" style="fill:rgb(79,46,40)"/>
<polygon points="501,0 452,1041 495,1055" style="fill:rgb(216,214,222)"/>
<polygon points="495,1055 211,1645 695,1659" style="fill:rgb(135,89,63)"/>
<polygon points="4697,1763 4396,1621 4355,1764" style="fill:rgb(191,177,183)"/>
<polygon points="4355,1764 4396,1621 4262,1661" style="fill:rgb(57,48,64)"/>
<polygon points="4286,1466 4379,1496 4147,1349" style="fill:rgb(189,172,177)"/>
<polygon points="4396,1621 4379,1496 4272,1536" style="fill:rgb(68,57,75)"/>
<polygon points="1724,3771 3236,3771 2532,3627" style="fill:rgb(52,39,67)"/>
<polygon points="3266,3621 3236,3771 3386,3530" style="fill:rgb(115,93,122)"/>
<polygon points="4033,3449 4042,3130 3787,3145" style="fill:rgb(196,179,183)"/>
<polygon points="3787,3145 4042,3130 3795,2880" style="fill:rgb(206,192,196)"/>
<polygon points="4056,2883 4249,2811 3978,2789" style="fill:rgb(173,153,158)"/>
<polygon points="4188,3168 4042,3130 4033,3449" style="fill:rgb(106,69,72)"/>
<polygon points="4256,2520 4395,2395 4261,2432" style="fill:rgb(51,41,63)"/>
<polygon points="4375,2072 4697,1763 4355,1764" style="fill:rgb(211,200,204)"/>
<polygon points="4390,2752 4395,2395 4256,2520" style="fill:rgb(59,46,67)"/>
<polygon points="4243,2871 4249,2811 4056,2883" style="fill:rgb(206,200,208)"/>
<polygon points="4188,3168 4243,2871 4056,2883" style="fill:rgb(139,98,94)"/>
<polygon points="4249,2811 4390,2752 4256,2520" style="fill:rgb(54,41,60)"/>
<polygon points="452,1041 211,1645 495,1055" style="fill:rgb(133,90,65)"/>
<polygon points="284,1720 183,1798 342,1970" style="fill:rgb(122,77,58)"/>
<polygon points="3395,598 3537,573 3576,55" style="fill:rgb(221,223,229)"/>
<polygon points="539,3147 611,2954 464,3107" style="fill:rgb(176,172,203)"/>
<polygon points="539,3147 594,3143 611,2954" style="fill:rgb(136,128,179)"/>
<polygon points="611,2954 594,3143 713,3063" style="fill:rgb(221,220,237)"/>
<polygon points="713,3063 583,3194 1069,3205" style="fill:rgb(70,35,68)"/>
<polygon points="2037,0 1276,0 2031,618" style="fill:rgb(244,245,247)"/>
<polygon points="4076,528 3842,580 4053,1121" style="fill:rgb(175,164,167)"/>
<polygon points="3842,580 3846,249 3700,565" style="fill:rgb(214,215,224)"/>
<polygon points="151,1704 183,1798 284,1720" style="fill:rgb(134,86,68)"/>
<polygon points="449,2656 374,2840 573,2858" style="fill:rgb(67,40,47)"/>
<polygon points="3576,55 3537,573 3719,112" style="fill:rgb(251,252,252)"/>
<polygon points="0,2668 449,2656 390,2320" style="fill:rgb(92,56,46)"/>
<polygon points="374,2840 391,2875 573,2858" style="fill:rgb(170,156,186)"/>
<polygon points="4748,1397 4076,528 4053,1121" style="fill:rgb(250,250,250)"/>
<polygon points="3719,112 3537,573 3700,565" style="fill:rgb(250,251,252)"/>
<polygon points="539,3147 583,3194 594,3143" style="fill:rgb(93,82,121)"/>
<polygon points="594,3143 583,3194 713,3063" style="fill:rgb(145,109,173)"/>
<polygon points="1114,3434 881,3771 1724,3771" style="fill:rgb(43,31,56)"/>
<polygon points="211,1645 151,1704 284,1720" style="fill:rgb(108,67,55)"/>
<polygon points="0,1924 104,2186 342,1970" style="fill:rgb(32,23,33)"/>
<polygon points="0,1640 151,1704 211,1645" style="fill:rgb(67,39,34)"/>
<polygon points="3846,249 3842,580 4004,496" style="fill:rgb(182,170,174)"/>
<polygon points="464,3107 611,2954 451,3100" style="fill:rgb(139,120,147)"/>
<polygon points="4071,0 3846,249 4004,496" style="fill:rgb(160,147,151)"/>
<polygon points="4381,2863 4249,2811 4243,2871" style="fill:rgb(55,43,59)"/>
<polygon points="4381,2863 4390,2752 4249,2811" style="fill:rgb(56,39,57)"/>
<polygon points="3846,249 3719,112 3700,565" style="fill:rgb(211,213,223)"/>
<polygon points="451,3100 559,2888 391,2875" style="fill:rgb(90,54,58)"/>
<polygon points="451,3100 611,2954 559,2888" style="fill:rgb(96,59,67)"/>
<polygon points="539,3147 453,3251 583,3194" style="fill:rgb(138,133,178)"/>
<polygon points="4228,3185 4188,3168 4082,3462" style="fill:rgb(166,126,120)"/>
<polygon points="4042,3130 4188,3168 4056,2883" style="fill:rgb(117,81,85)"/>
<polygon points="380,3244 451,3100 0,3266" style="fill:rgb(87,58,65)"/>
<polygon points="464,3107 453,3251 539,3147" style="fill:rgb(178,178,214)"/>
<polygon points="50,2182 104,2186 0,1924" style="fill:rgb(35,22,28)"/>
<polygon points="380,3244 464,3107 451,3100" style="fill:rgb(127,102,135)"/>
<polygon points="4228,3185 4381,2863 4243,2871" style="fill:rgb(54,40,56)"/>
<polygon points="104,2186 107,2250 413,2213" style="fill:rgb(61,45,52)"/>
<polygon points="4748,2792 4419,2813 4748,3147" style="fill:rgb(113,87,94)"/>
<polygon points="4381,2863 4419,2813 4390,2752" style="fill:rgb(122,100,111)"/>
<polygon points="4748,2792 4748,2283 4395,2395" style="fill:rgb(215,203,205)"/>
<polygon points="4748,2283 4697,1763 4375,2072" style="fill:rgb(216,204,207)"/>
<polygon points="4033,3449 3787,3145 3766,3771" style="fill:rgb(200,184,190)"/>
<polygon points="4188,3168 4228,3185 4243,2871" style="fill:rgb(155,119,122)"/>
<polygon points="3766,3771 3652,3137 3386,3530" style="fill:rgb(82,66,88)"/>
<polygon points="0,1924 342,1970 183,1798" style="fill:rgb(43,31,38)"/>
<polygon points="104,2186 50,2182 107,2250" style="fill:rgb(31,19,24)"/>
<polygon points="0,3266 391,2875 374,2840" style="fill:rgb(75,44,43)"/>
<polygon points="451,3100 391,2875 0,3266" style="fill:rgb(70,41,42)"/>
<polygon points="380,3244 453,3251 464,3107" style="fill:rgb(202,200,225)"/>
<polygon points="583,3194 785,3677 1114,3434" style="fill:rgb(50,36,62)"/>
<polygon points="151,1704 0,1924 183,1798" style="fill:rgb(105,68,57)"/>
<polygon points="0,1640 0,1924 151,1704" style="fill:rgb(130,83,66)"/>
<polygon points="4151,3530 4082,3462 4123,3674" style="fill:rgb(182,153,151)"/>
<polygon points="4033,3449 4082,3462 4188,3168" style="fill:rgb(120,80,79)"/>
<polygon points="0,1365 0,1640 211,1645" style="fill:rgb(143,93,72)"/>
<polygon points="4396,1621 4748,1397 4379,1496" style="fill:rgb(204,191,195)"/>
<polygon points="4379,1496 4748,1397 4147,1349" style="fill:rgb(180,164,166)"/>
<polygon points="4748,2283 4344,2150 4395,2395" style="fill:rgb(190,175,181)"/>
<polygon points="3236,3771 3766,3771 3386,3530" style="fill:rgb(78,62,85)"/>
<polygon points="427,3425 785,3677 583,3194" style="fill:rgb(63,45,71)"/>
<polygon points="0,2668 390,2320 107,2250" style="fill:rgb(102,65,56)"/>
<polygon points="453,3251 427,3425 583,3194" style="fill:rgb(89,74,113)"/>
<polygon points="785,3677 881,3771 1114,3434" style="fill:rgb(46,33,56)"/>
<polygon points="452,1041 0,1365 211,1645" style="fill:rgb(150,96,69)"/>
<polygon points="0,1044 0,1365 452,1041" style="fill:rgb(128,85,65)"/>
<polygon points="4071,0 3838,0 3846,249" style="fill:rgb(175,163,168)"/>
<polygon points="3846,249 3838,0 3719,112" style="fill:rgb(218,220,228)"/>
<polygon points="3719,112 3838,0 3576,55" style="fill:rgb(230,231,236)"/>
<polygon points="3576,55 3838,0 3414,0" style="fill:rgb(236,236,238)"/>
<polygon points="4071,0 4004,496 4076,528" style="fill:rgb(189,182,188)"/>
<polygon points="4748,2792 4390,2752 4419,2813" style="fill:rgb(195,175,180)"/>
<polygon points="4748,2792 4395,2395 4390,2752" style="fill:rgb(212,198,202)"/>
<polygon points="4406,3192 4381,2863 4228,3185" style="fill:rgb(49,36,52)"/>
<polygon points="4151,3530 4228,3185 4082,3462" style="fill:rgb(183,150,142)"/>
<polygon points="4294,3572 4406,3192 4228,3185" style="fill:rgb(58,44,57)"/>
<polygon points="4123,3674 4082,3462 4033,3449" style="fill:rgb(144,105,99)"/>
<polygon points="4748,2283 4748,1397 4697,1763" style="fill:rgb(204,189,191)"/>
<polygon points="4697,1763 4748,1397 4396,1621" style="fill:rgb(213,202,205)"/>
<polygon points="380,3244 427,3425 453,3251" style="fill:rgb(166,159,194)"/>
<polygon points="785,3677 0,3771 881,3771" style="fill:rgb(82,55,59)"/>
<polygon points="0,3266 427,3425 380,3244" style="fill:rgb(56,36,45)"/>
<polygon points="0,1924 0,2668 50,2182" style="fill:rgb(100,67,62)"/>
<polygon points="50,2182 0,2668 107,2250" style="fill:rgb(104,68,63)"/>
<polygon points="410,0 0,1044 452,1041" style="fill:rgb(202,192,199)"/>
<polygon points="3766,3771 4019,3720 4033,3449" style="fill:rgb(184,166,173)"/>
<polygon points="4151,3530 4294,3572 4228,3185" style="fill:rgb(101,79,84)"/>
<polygon points="4019,3720 4123,3674 4033,3449" style="fill:rgb(141,105,99)"/>
<polygon points="4748,0 4071,0 4076,528" style="fill:rgb(247,248,250)"/>
<polygon points="4123,3674 4236,3598 4151,3530" style="fill:rgb(177,155,162)"/>
<polygon points="4748,3147 4381,2863 4406,3192" style="fill:rgb(123,96,106)"/>
<polygon points="4748,3147 4419,2813 4381,2863" style="fill:rgb(119,91,100)"/>
<polygon points="4341,3573 4294,3572 4359,3727" style="fill:rgb(156,138,147)"/>
<polygon points="4236,3598 4294,3572 4151,3530" style="fill:rgb(61,50,63)"/>
<polygon points="4359,3727 4294,3572 4236,3598" style="fill:rgb(97,73,74)"/>
<polygon points="4294,3572 4341,3573 4406,3192" style="fill:rgb(83,66,75)"/>
<polygon points="1276,0 501,0 761,1113" style="fill:rgb(234,235,243)"/>
<polygon points="4341,3573 4539,3385 4406,3192" style="fill:rgb(180,148,139)"/>
<polygon points="501,0 410,0 452,1041" style="fill:rgb(211,206,215)"/>
<polygon points="4539,3385 4748,3147 4406,3192" style="fill:rgb(165,127,116)"/>
<polygon points="0,2668 0,3266 374,2840" style="fill:rgb(65,37,35)"/>
<polygon points="427,3425 0,3771 785,3677" style="fill:rgb(45,31,43)"/>
<polygon points="4123,3674 4359,3727 4236,3598" style="fill:rgb(124,94,92)"/>
<polygon points="4341,3573 4748,3535 4539,3385" style="fill:rgb(203,182,179)"/>
<polygon points="4539,3385 4748,3380 4748,3147" style="fill:rgb(167,131,119)"/>
<polygon points="4019,3720 4359,3727 4123,3674" style="fill:rgb(179,155,160)"/>
<polygon points="3766,3771 4359,3727 4019,3720" style="fill:rgb(194,179,190)"/>
<polygon points="4748,3535 4748,3380 4539,3385" style="fill:rgb(200,175,168)"/>
<polygon points="4359,3727 4748,3535 4341,3573" style="fill:rgb(226,220,229)"/>
<polygon points="410,0 0,0 0,1044" style="fill:rgb(194,183,190)"/>
<polygon points="0,3266 0,3771 427,3425" style="fill:rgb(45,30,41)"/>
<polygon points="4748,1397 4748,0 4076,528" style="fill:rgb(251,251,251)"/>
<polygon points="4359,3727 4748,3771 4748,3535" style="fill:rgb(231,226,233)"/>
<polygon points="3766,3771 4748,3771 4359,3727" style="fill:rgb(206,196,208)"/>
</svg>
