<?xml version="1.0"?>
<svg width="1800" height="1146"
     xmlns="http://www.w3.org/2000/svg"
     shape-rendering="crispEdges">
<polygon points="897,574 876,618 904,612" style="fill:rgb(141,179,165)"/>
<polygon points="876,618 880,639 904,612" style="fill:rgb(129,167,162)"/>
<polygon points="880,639 908,643 904,612" style="fill:rgb(119,157,153)"/>
<polygon points="801,565 838,630 876,618" style="fill:rgb(114,162,157)"/>
<polygon points="876,618 838,630 880,639" style="fill:rgb(99,145,147)"/>
<polygon points="897,574 850,535 876,618" style="fill:rgb(156,189,170)"/>
<polygon points="838,630 850,654 880,639" style="fill:rgb(95,134,150)"/>
<polygon points="880,639 929,674 908,643" style="fill:rgb(59,90,126)"/>
<polygon points="860,533 850,535 897,574" style="fill:rgb(105,151,147)"/>
<polygon points="908,643 948,634 904,612" style="fill:rgb(137,168,154)"/>
<polygon points="904,612 948,634 897,574" style="fill:rgb(89,139,137)"/>
<polygon points="801,565 803,616 838,630" style="fill:rgb(98,146,156)"/>
<polygon points="838,630 796,628 850,654" style="fill:rgb(35,68,98)"/>
<polygon points="916,715 929,674 880,639" style="fill:rgb(43,74,111)"/>
<polygon points="908,643 929,674 948,634" style="fill:rgb(105,147,155)"/>
<polygon points="850,535 801,565 876,618" style="fill:rgb(157,193,174)"/>
<polygon points="763,583 796,628 803,616" style="fill:rgb(98,139,161)"/>
<polygon points="803,616 796,628 838,630" style="fill:rgb(53,92,118)"/>
<polygon points="860,533 826,510 850,535" style="fill:rgb(152,187,168)"/>
<polygon points="850,535 826,510 801,565" style="fill:rgb(160,195,174)"/>
<polygon points="1022,510 931,499 897,574" style="fill:rgb(72,113,133)"/>
<polygon points="897,574 931,499 860,533" style="fill:rgb(68,112,132)"/>
<polygon points="860,533 825,495 826,510" style="fill:rgb(107,146,141)"/>
<polygon points="929,674 965,668 948,634" style="fill:rgb(110,148,166)"/>
<polygon points="1022,510 966,476 931,499" style="fill:rgb(80,118,134)"/>
<polygon points="929,674 965,679 965,668" style="fill:rgb(81,110,145)"/>
<polygon points="876,466 825,495 860,533" style="fill:rgb(76,113,132)"/>
<polygon points="826,510 784,535 801,565" style="fill:rgb(141,181,169)"/>
<polygon points="770,503 784,535 826,510" style="fill:rgb(107,148,147)"/>
<polygon points="801,565 763,583 803,616" style="fill:rgb(100,143,158)"/>
<polygon points="918,804 916,715 754,842" style="fill:rgb(40,71,99)"/>
<polygon points="850,654 916,715 880,639" style="fill:rgb(37,65,96)"/>
<polygon points="929,674 916,715 965,679" style="fill:rgb(47,78,115)"/>
<polygon points="784,535 763,583 801,565" style="fill:rgb(104,149,157)"/>
<polygon points="931,499 876,466 860,533" style="fill:rgb(73,113,134)"/>
<polygon points="1031,648 948,634 965,668" style="fill:rgb(106,146,152)"/>
<polygon points="1022,510 897,574 948,634" style="fill:rgb(70,114,133)"/>
<polygon points="931,499 896,434 876,466" style="fill:rgb(132,151,154)"/>
<polygon points="866,412 841,458 876,466" style="fill:rgb(111,117,164)"/>
<polygon points="876,466 841,458 825,495" style="fill:rgb(90,108,143)"/>
<polygon points="825,495 770,503 826,510" style="fill:rgb(69,114,127)"/>
<polygon points="765,474 770,503 825,495" style="fill:rgb(68,110,127)"/>
<polygon points="784,535 746,521 763,583" style="fill:rgb(99,141,152)"/>
<polygon points="1034,677 965,668 965,679" style="fill:rgb(119,147,188)"/>
<polygon points="1034,677 1031,648 965,668" style="fill:rgb(109,144,168)"/>
<polygon points="770,503 746,521 784,535" style="fill:rgb(104,143,155)"/>
<polygon points="992,716 995,712 965,679" style="fill:rgb(102,125,166)"/>
<polygon points="916,715 992,716 965,679" style="fill:rgb(52,84,122)"/>
<polygon points="1031,648 1022,510 948,634" style="fill:rgb(72,116,137)"/>
<polygon points="939,428 896,434 931,499" style="fill:rgb(162,170,166)"/>
<polygon points="866,412 820,443 841,458" style="fill:rgb(144,168,167)"/>
<polygon points="841,458 820,443 825,495" style="fill:rgb(115,135,159)"/>
<polygon points="770,503 765,474 746,521" style="fill:rgb(81,118,134)"/>
<polygon points="995,712 1034,677 965,679" style="fill:rgb(127,153,197)"/>
<polygon points="1031,648 1081,618 1022,510" style="fill:rgb(77,120,140)"/>
<polygon points="1033,739 1034,677 995,712" style="fill:rgb(138,160,203)"/>
<polygon points="718,558 717,616 763,583" style="fill:rgb(68,99,149)"/>
<polygon points="763,583 717,616 796,628" style="fill:rgb(78,117,156)"/>
<polygon points="796,628 705,692 850,654" style="fill:rgb(36,58,83)"/>
<polygon points="820,443 765,474 825,495" style="fill:rgb(90,129,151)"/>
<polygon points="595,566 718,558 612,387" style="fill:rgb(71,87,144)"/>
<polygon points="746,521 718,558 763,583" style="fill:rgb(70,112,139)"/>
<polygon points="1022,510 1020,482 966,476" style="fill:rgb(142,156,155)"/>
<polygon points="966,476 939,428 931,499" style="fill:rgb(153,163,161)"/>
<polygon points="1092,546 1020,482 1022,510" style="fill:rgb(129,149,156)"/>
<polygon points="958,434 939,428 966,476" style="fill:rgb(157,167,164)"/>
<polygon points="896,434 866,412 876,466" style="fill:rgb(105,126,160)"/>
<polygon points="1020,482 958,434 966,476" style="fill:rgb(162,170,164)"/>
<polygon points="896,392 866,412 896,434" style="fill:rgb(118,149,159)"/>
<polygon points="820,443 765,451 765,474" style="fill:rgb(81,152,135)"/>
<polygon points="844,318 765,451 820,443" style="fill:rgb(80,160,135)"/>
<polygon points="765,474 612,387 746,521" style="fill:rgb(61,102,127)"/>
<polygon points="958,434 965,419 939,428" style="fill:rgb(249,238,215)"/>
<polygon points="939,428 918,400 896,434" style="fill:rgb(217,213,193)"/>
<polygon points="1020,482 965,419 958,434" style="fill:rgb(233,224,202)"/>
<polygon points="1095,678 1081,618 1031,648" style="fill:rgb(78,119,139)"/>
<polygon points="659,668 696,651 595,566" style="fill:rgb(87,125,153)"/>
<polygon points="717,616 696,651 796,628" style="fill:rgb(27,60,90)"/>
<polygon points="965,419 918,400 939,428" style="fill:rgb(242,229,203)"/>
<polygon points="918,400 896,392 896,434" style="fill:rgb(125,156,160)"/>
<polygon points="866,412 844,318 820,443" style="fill:rgb(84,160,138)"/>
<polygon points="696,651 705,692 796,628" style="fill:rgb(33,58,83)"/>
<polygon points="916,715 989,773 992,716" style="fill:rgb(43,79,116)"/>
<polygon points="992,716 1033,739 995,712" style="fill:rgb(79,106,147)"/>
<polygon points="1034,677 1095,678 1031,648" style="fill:rgb(106,141,163)"/>
<polygon points="918,804 989,773 916,715" style="fill:rgb(41,77,112)"/>
<polygon points="989,773 1033,739 992,716" style="fill:rgb(61,98,137)"/>
<polygon points="754,842 916,715 850,654" style="fill:rgb(38,62,88)"/>
<polygon points="918,400 910,386 896,392" style="fill:rgb(191,198,189)"/>
<polygon points="965,419 910,386 918,400" style="fill:rgb(184,191,178)"/>
<polygon points="1081,618 1092,546 1022,510" style="fill:rgb(108,140,156)"/>
<polygon points="1020,482 1098,428 965,419" style="fill:rgb(92,163,140)"/>
<polygon points="1091,708 1095,678 1034,677" style="fill:rgb(117,145,187)"/>
<polygon points="1081,618 1154,616 1092,546" style="fill:rgb(108,142,162)"/>
<polygon points="965,419 902,370 910,386" style="fill:rgb(127,166,154)"/>
<polygon points="910,386 902,370 896,392" style="fill:rgb(191,200,185)"/>
<polygon points="896,392 902,370 866,412" style="fill:rgb(94,145,148)"/>
<polygon points="1084,725 1091,708 1034,677" style="fill:rgb(119,143,182)"/>
<polygon points="1084,725 1034,677 1033,739" style="fill:rgb(134,157,198)"/>
<polygon points="1050,806 1047,767 989,773" style="fill:rgb(82,119,152)"/>
<polygon points="989,773 1047,767 1033,739" style="fill:rgb(76,116,152)"/>
<polygon points="1047,767 1084,725 1033,739" style="fill:rgb(142,164,210)"/>
<polygon points="696,651 659,668 705,692" style="fill:rgb(34,59,87)"/>
<polygon points="705,692 754,842 850,654" style="fill:rgb(49,61,82)"/>
<polygon points="595,566 696,651 717,616" style="fill:rgb(82,110,157)"/>
<polygon points="595,566 717,616 718,558" style="fill:rgb(72,92,146)"/>
<polygon points="956,856 1008,829 989,773" style="fill:rgb(53,98,134)"/>
<polygon points="1047,767 1076,815 1084,725" style="fill:rgb(143,164,214)"/>
<polygon points="659,668 651,720 705,692" style="fill:rgb(33,57,83)"/>
<polygon points="773,901 932,858 918,804" style="fill:rgb(62,95,119)"/>
<polygon points="918,804 956,856 989,773" style="fill:rgb(59,100,130)"/>
<polygon points="1008,829 1050,806 989,773" style="fill:rgb(82,116,142)"/>
<polygon points="1095,678 1091,708 1186,695" style="fill:rgb(111,139,168)"/>
<polygon points="1152,651 1095,678 1186,695" style="fill:rgb(90,125,148)"/>
<polygon points="1152,651 1081,618 1095,678" style="fill:rgb(74,116,139)"/>
<polygon points="1152,651 1154,616 1081,618" style="fill:rgb(88,126,146)"/>
<polygon points="932,858 956,856 918,804" style="fill:rgb(73,99,123)"/>
<polygon points="1258,449 1098,428 1092,546" style="fill:rgb(99,168,143)"/>
<polygon points="1092,546 1098,428 1020,482" style="fill:rgb(97,163,142)"/>
<polygon points="965,419 1075,324 902,370" style="fill:rgb(84,164,141)"/>
<polygon points="1186,695 1091,708 1197,717" style="fill:rgb(44,53,78)"/>
<polygon points="651,720 754,842 705,692" style="fill:rgb(37,57,81)"/>
<polygon points="1000,236 844,318 902,370" style="fill:rgb(69,162,139)"/>
<polygon points="902,370 844,318 866,412" style="fill:rgb(81,163,138)"/>
<polygon points="1008,829 1068,815 1050,806" style="fill:rgb(63,85,109)"/>
<polygon points="1050,806 1068,815 1047,767" style="fill:rgb(132,156,201)"/>
<polygon points="1076,815 1068,815 1076,882" style="fill:rgb(195,190,148)"/>
<polygon points="1024,883 1068,815 1008,829" style="fill:rgb(69,93,122)"/>
<polygon points="1068,815 1076,815 1047,767" style="fill:rgb(139,161,207)"/>
<polygon points="612,387 765,474 765,451" style="fill:rgb(85,124,142)"/>
<polygon points="612,387 718,558 746,521" style="fill:rgb(59,98,132)"/>
<polygon points="524,630 630,755 651,720" style="fill:rgb(95,137,156)"/>
<polygon points="940,907 978,878 956,856" style="fill:rgb(156,162,144)"/>
<polygon points="956,856 978,878 1008,829" style="fill:rgb(58,102,137)"/>
<polygon points="940,907 956,856 932,858" style="fill:rgb(161,166,145)"/>
<polygon points="524,630 651,720 659,668" style="fill:rgb(90,137,159)"/>
<polygon points="651,720 630,755 754,842" style="fill:rgb(34,59,86)"/>
<polygon points="878,956 940,907 932,858" style="fill:rgb(66,81,105)"/>
<polygon points="978,878 1024,883 1008,829" style="fill:rgb(80,108,125)"/>
<polygon points="1197,717 1091,708 1084,725" style="fill:rgb(43,53,76)"/>
<polygon points="1152,651 1194,696 1154,616" style="fill:rgb(77,120,144)"/>
<polygon points="1154,616 1278,520 1092,546" style="fill:rgb(91,173,146)"/>
<polygon points="1023,908 1024,883 978,878" style="fill:rgb(154,162,143)"/>
<polygon points="1076,815 1119,818 1084,725" style="fill:rgb(72,84,114)"/>
<polygon points="1099,871 1108,828 1076,815" style="fill:rgb(217,200,147)"/>
<polygon points="1108,828 1119,818 1076,815" style="fill:rgb(98,110,113)"/>
<polygon points="1197,717 1194,696 1186,695" style="fill:rgb(61,52,70)"/>
<polygon points="1186,695 1194,696 1152,651" style="fill:rgb(82,118,141)"/>
<polygon points="617,958 773,901 754,842" style="fill:rgb(41,79,106)"/>
<polygon points="754,842 773,901 918,804" style="fill:rgb(45,80,107)"/>
<polygon points="607,802 622,788 630,755" style="fill:rgb(83,110,137)"/>
<polygon points="630,755 622,788 754,842" style="fill:rgb(34,61,88)"/>
<polygon points="508,572 559,578 507,535" style="fill:rgb(100,146,169)"/>
<polygon points="595,566 559,578 659,668" style="fill:rgb(101,153,153)"/>
<polygon points="1271,333 1075,324 1098,428" style="fill:rgb(85,165,142)"/>
<polygon points="1098,428 1075,324 965,419" style="fill:rgb(85,163,140)"/>
<polygon points="1201,744 1197,717 1084,725" style="fill:rgb(66,86,118)"/>
<polygon points="1119,818 1155,800 1084,725" style="fill:rgb(74,91,119)"/>
<polygon points="1129,835 1155,800 1119,818" style="fill:rgb(153,161,143)"/>
<polygon points="1129,835 1119,818 1108,828" style="fill:rgb(81,101,118)"/>
<polygon points="1201,744 1201,722 1197,717" style="fill:rgb(119,114,106)"/>
<polygon points="1197,717 1217,715 1194,696" style="fill:rgb(183,102,90)"/>
<polygon points="991,937 1023,908 978,878" style="fill:rgb(156,163,143)"/>
<polygon points="1024,883 1076,882 1068,815" style="fill:rgb(72,95,116)"/>
<polygon points="1099,871 1129,835 1108,828" style="fill:rgb(109,122,132)"/>
<polygon points="1023,908 1076,882 1024,883" style="fill:rgb(73,99,121)"/>
<polygon points="844,318 612,387 765,451" style="fill:rgb(76,157,134)"/>
<polygon points="538,786 607,802 630,755" style="fill:rgb(125,158,178)"/>
<polygon points="622,788 607,802 754,842" style="fill:rgb(33,61,89)"/>
<polygon points="1116,888 1099,871 1076,882" style="fill:rgb(100,114,119)"/>
<polygon points="1076,882 1099,871 1076,815" style="fill:rgb(219,200,144)"/>
<polygon points="1218,742 1201,744 1224,804" style="fill:rgb(236,183,157)"/>
<polygon points="1155,800 1201,744 1084,725" style="fill:rgb(72,91,126)"/>
<polygon points="508,572 534,603 559,578" style="fill:rgb(126,174,167)"/>
<polygon points="559,578 534,603 659,668" style="fill:rgb(139,174,162)"/>
<polygon points="1218,742 1217,715 1201,722" style="fill:rgb(229,180,155)"/>
<polygon points="1201,722 1217,715 1197,717" style="fill:rgb(209,159,137)"/>
<polygon points="1194,696 1293,665 1154,616" style="fill:rgb(81,126,144)"/>
<polygon points="940,907 991,937 978,878" style="fill:rgb(149,157,138)"/>
<polygon points="1068,930 1116,888 1076,882" style="fill:rgb(88,107,119)"/>
<polygon points="949,996 991,937 940,907" style="fill:rgb(145,153,134)"/>
<polygon points="1218,742 1227,709 1217,715" style="fill:rgb(94,96,117)"/>
<polygon points="1217,715 1227,709 1194,696" style="fill:rgb(155,94,94)"/>
<polygon points="773,901 878,956 932,858" style="fill:rgb(62,81,107)"/>
<polygon points="1211,810 1201,744 1155,800" style="fill:rgb(81,93,121)"/>
<polygon points="1201,744 1218,742 1201,722" style="fill:rgb(244,198,168)"/>
<polygon points="1211,810 1155,800 1207,833" style="fill:rgb(105,111,132)"/>
<polygon points="470,620 524,630 534,603" style="fill:rgb(102,153,177)"/>
<polygon points="534,603 524,630 659,668" style="fill:rgb(104,151,152)"/>
<polygon points="849,1001 836,960 706,1002" style="fill:rgb(85,99,115)"/>
<polygon points="773,901 836,960 878,956" style="fill:rgb(58,74,100)"/>
<polygon points="1068,930 1076,882 1023,908" style="fill:rgb(73,95,116)"/>
<polygon points="1099,871 1116,888 1129,835" style="fill:rgb(79,99,114)"/>
<polygon points="1075,324 1000,236 902,370" style="fill:rgb(74,163,141)"/>
<polygon points="613,281 579,338 612,387" style="fill:rgb(69,154,134)"/>
<polygon points="507,535 559,578 595,566" style="fill:rgb(100,145,158)"/>
<polygon points="991,937 1068,930 1023,908" style="fill:rgb(118,118,121)"/>
<polygon points="1042,994 1068,930 991,937" style="fill:rgb(136,124,121)"/>
<polygon points="528,411 507,535 595,566" style="fill:rgb(68,99,139)"/>
<polygon points="538,786 579,829 607,802" style="fill:rgb(131,158,174)"/>
<polygon points="607,802 583,914 754,842" style="fill:rgb(36,63,87)"/>
<polygon points="1263,737 1227,709 1218,742" style="fill:rgb(68,88,118)"/>
<polygon points="1263,737 1258,698 1227,709" style="fill:rgb(66,80,105)"/>
<polygon points="1227,709 1258,698 1194,696" style="fill:rgb(72,83,102)"/>
<polygon points="1224,804 1211,810 1207,833" style="fill:rgb(193,157,142)"/>
<polygon points="1207,833 1155,800 1202,853" style="fill:rgb(131,133,132)"/>
<polygon points="496,736 538,786 630,755" style="fill:rgb(112,151,175)"/>
<polygon points="496,736 630,755 524,630" style="fill:rgb(99,143,167)"/>
<polygon points="1283,559 1279,541 1154,616" style="fill:rgb(131,175,164)"/>
<polygon points="1075,324 1341,244 1000,236" style="fill:rgb(69,163,142)"/>
<polygon points="1155,800 1129,835 1202,853" style="fill:rgb(135,139,134)"/>
<polygon points="1211,810 1224,804 1201,744" style="fill:rgb(227,177,152)"/>
<polygon points="1293,665 1283,559 1154,616" style="fill:rgb(85,137,152)"/>
<polygon points="1202,853 1129,835 1116,888" style="fill:rgb(125,133,131)"/>
<polygon points="1386,598 1278,520 1279,541" style="fill:rgb(116,187,159)"/>
<polygon points="1279,541 1278,520 1154,616" style="fill:rgb(99,178,151)"/>
<polygon points="1278,520 1258,449 1092,546" style="fill:rgb(101,171,145)"/>
<polygon points="613,281 612,387 844,318" style="fill:rgb(69,158,134)"/>
<polygon points="612,387 528,411 595,566" style="fill:rgb(61,92,139)"/>
<polygon points="579,338 528,411 612,387" style="fill:rgb(75,106,149)"/>
<polygon points="1224,804 1263,737 1218,742" style="fill:rgb(74,89,113)"/>
<polygon points="1258,698 1293,665 1194,696" style="fill:rgb(87,123,136)"/>
<polygon points="947,1014 949,996 878,956" style="fill:rgb(83,100,105)"/>
<polygon points="878,956 949,996 940,907" style="fill:rgb(69,86,107)"/>
<polygon points="538,786 555,832 579,829" style="fill:rgb(80,114,145)"/>
<polygon points="579,829 583,914 607,802" style="fill:rgb(41,65,92)"/>
<polygon points="706,1002 836,960 773,901" style="fill:rgb(67,91,111)"/>
<polygon points="836,960 849,1001 878,956" style="fill:rgb(86,107,117)"/>
<polygon points="1123,931 1202,853 1116,888" style="fill:rgb(115,127,129)"/>
<polygon points="1260,834 1273,807 1224,804" style="fill:rgb(81,97,113)"/>
<polygon points="1305,762 1288,724 1263,737" style="fill:rgb(192,153,134)"/>
<polygon points="1042,994 1123,931 1068,930" style="fill:rgb(127,128,125)"/>
<polygon points="1068,930 1123,931 1116,888" style="fill:rgb(126,132,130)"/>
<polygon points="1288,724 1293,665 1258,698" style="fill:rgb(93,120,133)"/>
<polygon points="475,891 545,867 555,832" style="fill:rgb(71,105,118)"/>
<polygon points="470,620 496,736 524,630" style="fill:rgb(98,144,173)"/>
<polygon points="470,620 534,603 508,572" style="fill:rgb(101,159,175)"/>
<polygon points="766,115 613,281 844,318" style="fill:rgb(68,162,140)"/>
<polygon points="579,338 495,416 528,411" style="fill:rgb(90,113,151)"/>
<polygon points="438,551 508,572 507,535" style="fill:rgb(93,150,165)"/>
<polygon points="438,551 470,620 508,572" style="fill:rgb(101,157,187)"/>
<polygon points="1273,807 1263,737 1224,804" style="fill:rgb(63,83,106)"/>
<polygon points="1263,737 1288,724 1258,698" style="fill:rgb(197,157,140)"/>
<polygon points="849,1001 947,1014 878,956" style="fill:rgb(105,116,112)"/>
<polygon points="1011,1009 1042,994 991,937" style="fill:rgb(134,121,116)"/>
<polygon points="1011,1009 991,937 949,996" style="fill:rgb(123,122,119)"/>
<polygon points="264,458 189,315 166,415" style="fill:rgb(75,155,130)"/>
<polygon points="528,411 495,416 507,535" style="fill:rgb(66,95,139)"/>
<polygon points="947,1014 1011,1009 949,996" style="fill:rgb(126,124,115)"/>
<polygon points="1288,724 1312,672 1293,665" style="fill:rgb(73,105,145)"/>
<polygon points="1293,665 1384,610 1283,559" style="fill:rgb(84,134,148)"/>
<polygon points="1283,559 1386,598 1279,541" style="fill:rgb(164,195,176)"/>
<polygon points="501,900 545,867 475,891" style="fill:rgb(82,110,118)"/>
<polygon points="555,832 545,867 579,829" style="fill:rgb(88,117,128)"/>
<polygon points="545,867 583,914 579,829" style="fill:rgb(38,65,91)"/>
<polygon points="1260,834 1224,804 1207,833" style="fill:rgb(125,126,126)"/>
<polygon points="1288,724 1327,691 1312,672" style="fill:rgb(128,134,145)"/>
<polygon points="1260,834 1207,833 1202,853" style="fill:rgb(118,127,127)"/>
<polygon points="1244,911 1260,834 1202,853" style="fill:rgb(91,97,129)"/>
<polygon points="1244,911 1202,853 1123,931" style="fill:rgb(88,93,136)"/>
<polygon points="617,958 706,1002 773,901" style="fill:rgb(53,86,106)"/>
<polygon points="849,1001 1142,1146 947,1014" style="fill:rgb(65,48,50)"/>
<polygon points="495,416 438,551 507,535" style="fill:rgb(100,116,158)"/>
<polygon points="470,620 451,728 496,736" style="fill:rgb(101,143,169)"/>
<polygon points="1298,809 1305,762 1273,807" style="fill:rgb(178,147,131)"/>
<polygon points="1273,807 1305,762 1263,737" style="fill:rgb(187,151,132)"/>
<polygon points="558,1025 617,958 583,914" style="fill:rgb(47,80,102)"/>
<polygon points="583,914 617,958 754,842" style="fill:rgb(41,73,98)"/>
<polygon points="1339,699 1327,691 1340,717" style="fill:rgb(73,74,89)"/>
<polygon points="1312,672 1384,610 1293,665" style="fill:rgb(79,123,145)"/>
<polygon points="1456,463 1271,333 1258,449" style="fill:rgb(94,166,142)"/>
<polygon points="496,736 451,728 538,786" style="fill:rgb(46,81,118)"/>
<polygon points="378,676 451,728 470,620" style="fill:rgb(95,140,167)"/>
<polygon points="1011,1009 1055,1022 1042,994" style="fill:rgb(77,101,125)"/>
<polygon points="1042,994 1055,1022 1123,931" style="fill:rgb(83,101,132)"/>
<polygon points="947,1014 1055,1022 1011,1009" style="fill:rgb(104,109,112)"/>
<polygon points="1142,1146 1055,1022 947,1014" style="fill:rgb(63,46,48)"/>
<polygon points="1260,834 1298,809 1273,807" style="fill:rgb(92,101,116)"/>
<polygon points="1340,717 1327,691 1288,724" style="fill:rgb(96,89,104)"/>
<polygon points="1289,870 1298,809 1260,834" style="fill:rgb(78,92,122)"/>
<polygon points="1340,717 1288,724 1305,762" style="fill:rgb(188,141,125)"/>
<polygon points="1327,691 1373,671 1312,672" style="fill:rgb(182,169,160)"/>
<polygon points="1456,463 1258,449 1278,520" style="fill:rgb(99,173,146)"/>
<polygon points="1258,449 1271,333 1098,428" style="fill:rgb(91,165,141)"/>
<polygon points="1350,742 1340,717 1305,762" style="fill:rgb(205,162,145)"/>
<polygon points="1323,777 1324,769 1305,762" style="fill:rgb(97,99,105)"/>
<polygon points="1298,809 1323,777 1305,762" style="fill:rgb(85,89,115)"/>
<polygon points="1324,769 1350,742 1305,762" style="fill:rgb(134,115,113)"/>
<polygon points="1154,1006 1244,911 1123,931" style="fill:rgb(84,95,133)"/>
<polygon points="1298,809 1320,821 1323,777" style="fill:rgb(89,97,129)"/>
<polygon points="395,521 402,564 438,551" style="fill:rgb(76,109,147)"/>
<polygon points="438,551 402,564 470,620" style="fill:rgb(99,154,173)"/>
<polygon points="1350,752 1324,769 1323,777" style="fill:rgb(188,176,137)"/>
<polygon points="1350,752 1350,742 1324,769" style="fill:rgb(129,124,111)"/>
<polygon points="1370,703 1366,691 1339,699" style="fill:rgb(161,117,108)"/>
<polygon points="1339,699 1366,691 1327,691" style="fill:rgb(135,106,106)"/>
<polygon points="1244,911 1289,870 1260,834" style="fill:rgb(105,110,112)"/>
<polygon points="1341,244 958,113 1000,236" style="fill:rgb(63,164,144)"/>
<polygon points="1000,236 958,113 844,318" style="fill:rgb(63,164,142)"/>
<polygon points="1289,870 1320,821 1298,809" style="fill:rgb(86,97,131)"/>
<polygon points="1370,703 1339,699 1340,717" style="fill:rgb(211,171,153)"/>
<polygon points="1338,811 1350,752 1323,777" style="fill:rgb(237,213,156)"/>
<polygon points="1370,742 1370,703 1340,717" style="fill:rgb(195,155,140)"/>
<polygon points="1055,1022 1154,1006 1123,931" style="fill:rgb(84,104,140)"/>
<polygon points="1244,911 1319,890 1289,870" style="fill:rgb(118,125,126)"/>
<polygon points="475,891 538,786 451,728" style="fill:rgb(40,74,104)"/>
<polygon points="475,891 555,832 538,786" style="fill:rgb(47,86,115)"/>
<polygon points="545,867 501,900 583,914" style="fill:rgb(40,63,85)"/>
<polygon points="1387,672 1373,671 1366,691" style="fill:rgb(196,171,154)"/>
<polygon points="1366,691 1373,671 1327,691" style="fill:rgb(192,173,159)"/>
<polygon points="1055,1022 1153,1010 1154,1006" style="fill:rgb(85,88,103)"/>
<polygon points="1154,1006 1341,977 1244,911" style="fill:rgb(109,119,120)"/>
<polygon points="958,113 766,115 844,318" style="fill:rgb(62,163,141)"/>
<polygon points="1370,742 1340,717 1350,742" style="fill:rgb(211,166,148)"/>
<polygon points="495,416 395,521 438,551" style="fill:rgb(94,114,155)"/>
<polygon points="376,498 395,521 495,416" style="fill:rgb(74,145,136)"/>
<polygon points="365,573 389,614 402,564" style="fill:rgb(113,165,160)"/>
<polygon points="402,564 389,614 470,620" style="fill:rgb(106,158,172)"/>
<polygon points="1387,672 1384,610 1373,671" style="fill:rgb(206,169,155)"/>
<polygon points="1373,671 1384,610 1312,672" style="fill:rgb(69,107,148)"/>
<polygon points="1422,617 1386,598 1384,610" style="fill:rgb(117,152,145)"/>
<polygon points="1384,610 1386,598 1283,559" style="fill:rgb(129,170,158)"/>
<polygon points="1320,821 1338,811 1323,777" style="fill:rgb(197,189,150)"/>
<polygon points="1350,752 1370,742 1350,742" style="fill:rgb(193,154,140)"/>
<polygon points="1336,870 1338,811 1320,821" style="fill:rgb(101,108,118)"/>
<polygon points="1391,758 1370,742 1350,752" style="fill:rgb(143,126,113)"/>
<polygon points="1389,700 1387,672 1366,691" style="fill:rgb(209,180,162)"/>
<polygon points="368,725 475,891 451,728" style="fill:rgb(39,71,102)"/>
<polygon points="501,900 558,1025 583,914" style="fill:rgb(45,73,94)"/>
<polygon points="617,958 558,1025 706,1002" style="fill:rgb(55,86,103)"/>
<polygon points="1389,700 1366,691 1370,703" style="fill:rgb(202,180,165)"/>
<polygon points="1370,742 1389,700 1370,703" style="fill:rgb(73,76,98)"/>
<polygon points="1427,638 1422,617 1384,610" style="fill:rgb(222,183,160)"/>
<polygon points="322,620 378,676 389,614" style="fill:rgb(102,144,181)"/>
<polygon points="389,614 378,676 470,620" style="fill:rgb(103,148,183)"/>
<polygon points="326,522 264,458 283,534" style="fill:rgb(93,131,174)"/>
<polygon points="363,552 365,573 402,564" style="fill:rgb(88,140,156)"/>
<polygon points="376,498 264,458 326,522" style="fill:rgb(94,137,186)"/>
<polygon points="363,552 402,564 395,521" style="fill:rgb(67,96,142)"/>
<polygon points="1377,817 1391,758 1350,752" style="fill:rgb(241,217,159)"/>
<polygon points="1370,742 1414,722 1389,700" style="fill:rgb(73,85,115)"/>
<polygon points="1289,870 1336,870 1320,821" style="fill:rgb(83,94,126)"/>
<polygon points="1341,977 1319,890 1244,911" style="fill:rgb(117,125,126)"/>
<polygon points="376,498 368,515 395,521" style="fill:rgb(96,138,186)"/>
<polygon points="368,515 363,552 395,521" style="fill:rgb(67,95,142)"/>
<polygon points="1319,890 1336,870 1289,870" style="fill:rgb(78,90,104)"/>
<polygon points="1377,817 1350,752 1338,811" style="fill:rgb(243,217,159)"/>
<polygon points="1411,686 1412,673 1387,672" style="fill:rgb(69,72,89)"/>
<polygon points="1411,686 1387,672 1389,700" style="fill:rgb(69,79,105)"/>
<polygon points="322,620 367,713 378,676" style="fill:rgb(86,92,158)"/>
<polygon points="378,676 367,713 451,728" style="fill:rgb(85,92,156)"/>
<polygon points="322,620 389,614 365,573" style="fill:rgb(97,148,162)"/>
<polygon points="1414,722 1411,686 1389,700" style="fill:rgb(65,80,106)"/>
<polygon points="367,713 368,725 451,728" style="fill:rgb(75,90,148)"/>
<polygon points="1419,668 1387,672 1412,673" style="fill:rgb(138,130,134)"/>
<polygon points="1427,638 1384,610 1387,672" style="fill:rgb(224,185,161)"/>
<polygon points="1386,598 1456,463 1278,520" style="fill:rgb(95,182,152)"/>
<polygon points="1429,682 1412,673 1411,686" style="fill:rgb(208,172,150)"/>
<polygon points="1429,682 1419,668 1412,673" style="fill:rgb(147,123,113)"/>
<polygon points="1382,834 1377,817 1338,811" style="fill:rgb(193,170,150)"/>
<polygon points="1391,758 1414,722 1370,742" style="fill:rgb(76,87,118)"/>
<polygon points="368,515 350,533 363,552" style="fill:rgb(61,91,136)"/>
<polygon points="363,552 322,556 365,573" style="fill:rgb(89,144,153)"/>
<polygon points="367,713 257,634 368,725" style="fill:rgb(44,77,119)"/>
<polygon points="326,522 350,533 368,515" style="fill:rgb(92,136,175)"/>
<polygon points="556,1062 558,1025 461,1052" style="fill:rgb(66,91,106)"/>
<polygon points="447,984 558,1025 501,900" style="fill:rgb(46,74,94)"/>
<polygon points="706,1002 553,1086 849,1001" style="fill:rgb(63,50,51)"/>
<polygon points="1419,668 1427,638 1387,672" style="fill:rgb(190,169,155)"/>
<polygon points="1427,724 1414,722 1424,769" style="fill:rgb(191,164,152)"/>
<polygon points="1419,668 1449,661 1427,638" style="fill:rgb(191,169,158)"/>
<polygon points="1377,817 1402,772 1391,758" style="fill:rgb(234,211,154)"/>
<polygon points="1427,724 1411,686 1414,722" style="fill:rgb(191,163,144)"/>
<polygon points="1427,724 1429,682 1411,686" style="fill:rgb(232,192,169)"/>
<polygon points="1449,661 1436,606 1427,638" style="fill:rgb(210,179,159)"/>
<polygon points="1427,638 1436,606 1422,617" style="fill:rgb(188,172,153)"/>
<polygon points="1422,617 1436,606 1386,598" style="fill:rgb(102,162,141)"/>
<polygon points="1422,852 1424,769 1402,772" style="fill:rgb(75,83,103)"/>
<polygon points="1336,870 1382,834 1338,811" style="fill:rgb(193,166,151)"/>
<polygon points="1393,890 1382,834 1336,870" style="fill:rgb(171,150,138)"/>
<polygon points="1424,769 1414,722 1391,758" style="fill:rgb(73,86,109)"/>
<polygon points="1429,682 1439,678 1419,668" style="fill:rgb(100,95,107)"/>
<polygon points="1424,769 1391,758 1402,772" style="fill:rgb(114,114,117)"/>
<polygon points="1427,724 1439,678 1429,682" style="fill:rgb(181,153,145)"/>
<polygon points="316,601 322,620 365,573" style="fill:rgb(98,146,157)"/>
<polygon points="376,498 326,522 368,515" style="fill:rgb(94,137,185)"/>
<polygon points="350,533 322,556 363,552" style="fill:rgb(64,95,138)"/>
<polygon points="376,498 495,416 264,458" style="fill:rgb(72,154,131)"/>
<polygon points="326,522 322,556 350,533" style="fill:rgb(69,97,142)"/>
<polygon points="1422,852 1402,772 1377,817" style="fill:rgb(221,203,152)"/>
<polygon points="1486,696 1449,661 1439,678" style="fill:rgb(71,86,121)"/>
<polygon points="1486,696 1439,678 1427,724" style="fill:rgb(82,90,124)"/>
<polygon points="1439,678 1449,661 1419,668" style="fill:rgb(70,79,106)"/>
<polygon points="322,556 316,601 365,573" style="fill:rgb(121,168,164)"/>
<polygon points="283,534 316,601 322,556" style="fill:rgb(98,147,161)"/>
<polygon points="447,984 501,900 475,891" style="fill:rgb(51,79,97)"/>
<polygon points="558,1025 556,1062 706,1002" style="fill:rgb(72,96,105)"/>
<polygon points="1509,351 1341,244 1271,333" style="fill:rgb(75,163,141)"/>
<polygon points="1271,333 1341,244 1075,324" style="fill:rgb(76,163,141)"/>
<polygon points="1647,580 1456,463 1436,606" style="fill:rgb(95,177,149)"/>
<polygon points="1436,606 1456,463 1386,598" style="fill:rgb(95,180,152)"/>
<polygon points="379,1023 447,984 475,891" style="fill:rgb(53,82,101)"/>
<polygon points="379,1023 475,891 309,1016" style="fill:rgb(73,103,118)"/>
<polygon points="1382,834 1422,852 1377,817" style="fill:rgb(195,183,146)"/>
<polygon points="1319,890 1393,890 1336,870" style="fill:rgb(121,119,119)"/>
<polygon points="1341,977 1393,890 1319,890" style="fill:rgb(115,114,115)"/>
<polygon points="472,1082 553,1086 556,1062" style="fill:rgb(79,85,90)"/>
<polygon points="556,1062 553,1086 706,1002" style="fill:rgb(64,56,60)"/>
<polygon points="1055,1022 1142,1146 1153,1010" style="fill:rgb(63,47,48)"/>
<polygon points="1153,1010 1341,977 1154,1006" style="fill:rgb(79,69,74)"/>
<polygon points="1463,875 1422,852 1393,890" style="fill:rgb(106,111,118)"/>
<polygon points="1393,890 1422,852 1382,834" style="fill:rgb(101,108,116)"/>
<polygon points="1424,769 1458,795 1427,724" style="fill:rgb(76,90,132)"/>
<polygon points="1565,45 834,0 958,113" style="fill:rgb(57,159,139)"/>
<polygon points="958,113 834,0 766,115" style="fill:rgb(58,160,139)"/>
<polygon points="189,315 579,338 613,281" style="fill:rgb(66,157,133)"/>
<polygon points="1422,852 1458,795 1424,769" style="fill:rgb(78,93,127)"/>
<polygon points="1449,661 1500,661 1436,606" style="fill:rgb(94,147,135)"/>
<polygon points="495,416 189,315 264,458" style="fill:rgb(73,156,130)"/>
<polygon points="326,522 283,534 322,556" style="fill:rgb(68,100,141)"/>
<polygon points="316,601 268,630 322,620" style="fill:rgb(88,106,160)"/>
<polygon points="322,620 268,630 367,713" style="fill:rgb(84,92,160)"/>
<polygon points="553,1086 1142,1146 849,1001" style="fill:rgb(66,50,51)"/>
<polygon points="1153,1010 1371,1074 1341,977" style="fill:rgb(64,47,48)"/>
<polygon points="1458,795 1486,696 1427,724" style="fill:rgb(84,94,140)"/>
<polygon points="1486,696 1491,667 1449,661" style="fill:rgb(75,87,115)"/>
<polygon points="1532,690 1491,667 1486,696" style="fill:rgb(200,173,157)"/>
<polygon points="1532,690 1500,661 1491,667" style="fill:rgb(152,133,124)"/>
<polygon points="1491,667 1500,661 1449,661" style="fill:rgb(77,82,97)"/>
<polygon points="283,534 268,630 316,601" style="fill:rgb(91,119,151)"/>
<polygon points="447,984 461,1052 558,1025" style="fill:rgb(55,82,101)"/>
<polygon points="379,1023 461,1052 447,984" style="fill:rgb(57,86,104)"/>
<polygon points="283,534 257,634 268,630" style="fill:rgb(91,107,148)"/>
<polygon points="268,630 257,634 367,713" style="fill:rgb(65,85,138)"/>
<polygon points="495,416 579,338 189,315" style="fill:rgb(69,156,131)"/>
<polygon points="199,536 222,635 257,634" style="fill:rgb(45,74,110)"/>
<polygon points="371,1059 472,1082 461,1052" style="fill:rgb(81,101,110)"/>
<polygon points="461,1052 472,1082 556,1062" style="fill:rgb(78,99,108)"/>
<polygon points="553,1086 410,1146 1142,1146" style="fill:rgb(68,52,53)"/>
<polygon points="1422,852 1463,875 1458,795" style="fill:rgb(114,108,114)"/>
<polygon points="1533,763 1531,696 1486,696" style="fill:rgb(76,88,130)"/>
<polygon points="1504,962 1463,875 1393,890" style="fill:rgb(99,109,115)"/>
<polygon points="1504,962 1393,890 1341,977" style="fill:rgb(112,119,120)"/>
<polygon points="1533,763 1486,696 1458,795" style="fill:rgb(85,96,143)"/>
<polygon points="1500,661 1647,580 1436,606" style="fill:rgb(93,163,140)"/>
<polygon points="1531,696 1532,690 1486,696" style="fill:rgb(60,59,73)"/>
<polygon points="309,1016 475,891 245,964" style="fill:rgb(59,90,110)"/>
<polygon points="199,536 257,634 283,534" style="fill:rgb(90,105,143)"/>
<polygon points="257,634 222,635 368,725" style="fill:rgb(37,71,107)"/>
<polygon points="1463,875 1509,832 1458,795" style="fill:rgb(100,101,111)"/>
<polygon points="1531,696 1551,710 1532,690" style="fill:rgb(223,201,171)"/>
<polygon points="1509,832 1533,763 1458,795" style="fill:rgb(87,96,140)"/>
<polygon points="1456,463 1509,351 1271,333" style="fill:rgb(88,165,142)"/>
<polygon points="1715,428 1509,351 1456,463" style="fill:rgb(90,165,141)"/>
<polygon points="1533,763 1539,759 1531,696" style="fill:rgb(64,69,82)"/>
<polygon points="1651,598 1647,580 1500,661" style="fill:rgb(104,157,154)"/>
<polygon points="1547,788 1539,759 1533,763" style="fill:rgb(68,75,85)"/>
<polygon points="1539,759 1551,710 1531,696" style="fill:rgb(243,220,180)"/>
<polygon points="1142,1146 1371,1074 1153,1010" style="fill:rgb(65,49,50)"/>
<polygon points="1463,875 1537,861 1509,832" style="fill:rgb(95,98,104)"/>
<polygon points="1559,782 1547,788 1562,873" style="fill:rgb(122,123,127)"/>
<polygon points="1509,832 1547,788 1533,763" style="fill:rgb(67,85,125)"/>
<polygon points="1539,759 1559,782 1551,710" style="fill:rgb(242,208,172)"/>
<polygon points="197,493 199,536 283,534" style="fill:rgb(101,105,152)"/>
<polygon points="309,1016 371,1059 379,1023" style="fill:rgb(71,99,113)"/>
<polygon points="379,1023 371,1059 461,1052" style="fill:rgb(70,95,107)"/>
<polygon points="166,415 197,493 264,458" style="fill:rgb(97,129,154)"/>
<polygon points="264,458 197,493 283,534" style="fill:rgb(96,126,159)"/>
<polygon points="1537,861 1547,788 1509,832" style="fill:rgb(63,78,109)"/>
<polygon points="1547,788 1559,782 1539,759" style="fill:rgb(218,192,161)"/>
<polygon points="1541,885 1537,861 1463,875" style="fill:rgb(83,97,112)"/>
<polygon points="245,964 368,725 104,810" style="fill:rgb(38,74,103)"/>
<polygon points="245,964 475,891 368,725" style="fill:rgb(38,76,104)"/>
<polygon points="1504,962 1541,885 1463,875" style="fill:rgb(70,91,124)"/>
<polygon points="1537,861 1562,873 1547,788" style="fill:rgb(95,105,118)"/>
<polygon points="1371,1074 1504,962 1341,977" style="fill:rgb(62,46,47)"/>
<polygon points="197,493 163,530 199,536" style="fill:rgb(95,99,145)"/>
<polygon points="199,536 129,566 222,635" style="fill:rgb(35,65,100)"/>
<polygon points="167,1030 410,1146 371,1059" style="fill:rgb(75,60,62)"/>
<polygon points="371,1059 410,1146 472,1082" style="fill:rgb(75,58,59)"/>
<polygon points="472,1082 410,1146 553,1086" style="fill:rgb(71,53,55)"/>
<polygon points="1572,966 1562,873 1541,885" style="fill:rgb(95,93,101)"/>
<polygon points="1541,885 1562,873 1537,861" style="fill:rgb(91,95,102)"/>
<polygon points="1702,345 1527,241 1509,351" style="fill:rgb(72,161,140)"/>
<polygon points="1509,351 1527,241 1341,244" style="fill:rgb(71,162,141)"/>
<polygon points="1341,244 1526,97 958,113" style="fill:rgb(63,164,144)"/>
<polygon points="1500,661 1532,690 1651,598" style="fill:rgb(106,144,154)"/>
<polygon points="104,810 368,725 222,635" style="fill:rgb(38,69,98)"/>
<polygon points="309,1016 167,1030 371,1059" style="fill:rgb(89,109,119)"/>
<polygon points="197,493 96,437 163,530" style="fill:rgb(104,105,153)"/>
<polygon points="189,315 613,281 99,111" style="fill:rgb(69,161,138)"/>
<polygon points="99,111 613,281 766,115" style="fill:rgb(66,162,141)"/>
<polygon points="89,535 163,530 68,490" style="fill:rgb(96,102,143)"/>
<polygon points="89,535 129,566 163,530" style="fill:rgb(85,99,136)"/>
<polygon points="163,530 129,566 199,536" style="fill:rgb(43,67,100)"/>
<polygon points="1572,966 1551,960 1504,962" style="fill:rgb(81,83,89)"/>
<polygon points="1504,962 1551,960 1541,885" style="fill:rgb(73,91,118)"/>
<polygon points="1651,598 1551,710 1771,662" style="fill:rgb(92,132,174)"/>
<polygon points="1651,598 1532,690 1551,710" style="fill:rgb(95,133,155)"/>
<polygon points="1551,710 1559,782 1771,662" style="fill:rgb(97,129,155)"/>
<polygon points="1688,924 1559,782 1562,873" style="fill:rgb(133,126,126)"/>
<polygon points="167,1030 231,993 89,977" style="fill:rgb(87,108,122)"/>
<polygon points="245,964 231,993 309,1016" style="fill:rgb(78,101,116)"/>
<polygon points="1142,1146 1438,1146 1371,1074" style="fill:rgb(71,51,49)"/>
<polygon points="1371,1074 1438,1146 1504,962" style="fill:rgb(73,51,50)"/>
<polygon points="1438,1146 1572,966 1504,962" style="fill:rgb(72,50,50)"/>
<polygon points="1551,960 1572,966 1541,885" style="fill:rgb(138,132,131)"/>
<polygon points="96,437 197,493 166,415" style="fill:rgb(99,132,154)"/>
<polygon points="129,566 104,810 222,635" style="fill:rgb(37,69,99)"/>
<polygon points="91,366 96,437 166,415" style="fill:rgb(97,131,155)"/>
<polygon points="0,608 104,810 129,566" style="fill:rgb(43,74,103)"/>
<polygon points="1565,45 1526,97 1719,93" style="fill:rgb(56,158,139)"/>
<polygon points="1527,241 1526,97 1341,244" style="fill:rgb(63,163,144)"/>
<polygon points="96,437 68,490 163,530" style="fill:rgb(104,104,154)"/>
<polygon points="89,535 0,608 129,566" style="fill:rgb(38,67,100)"/>
<polygon points="189,315 91,366 166,415" style="fill:rgb(73,154,130)"/>
<polygon points="0,453 62,494 68,490" style="fill:rgb(73,86,131)"/>
<polygon points="0,453 68,490 96,437" style="fill:rgb(99,107,153)"/>
<polygon points="68,490 62,494 89,535" style="fill:rgb(62,80,121)"/>
<polygon points="89,977 231,993 245,964" style="fill:rgb(73,97,113)"/>
<polygon points="231,993 167,1030 309,1016" style="fill:rgb(91,110,122)"/>
<polygon points="1800,522 1715,428 1647,580" style="fill:rgb(92,169,145)"/>
<polygon points="1647,580 1715,428 1456,463" style="fill:rgb(96,170,144)"/>
<polygon points="1800,522 1647,580 1651,598" style="fill:rgb(92,153,157)"/>
<polygon points="1715,428 1702,345 1509,351" style="fill:rgb(85,162,140)"/>
<polygon points="1650,1093 1656,985 1572,966" style="fill:rgb(73,47,45)"/>
<polygon points="1572,966 1688,924 1562,873" style="fill:rgb(95,105,111)"/>
<polygon points="1656,985 1688,924 1572,966" style="fill:rgb(72,60,61)"/>
<polygon points="1719,93 1526,97 1527,241" style="fill:rgb(59,162,143)"/>
<polygon points="1526,97 1565,45 958,113" style="fill:rgb(56,160,141)"/>
<polygon points="104,810 72,937 245,964" style="fill:rgb(43,78,101)"/>
<polygon points="0,787 72,937 104,810" style="fill:rgb(42,74,97)"/>
<polygon points="72,937 89,977 245,964" style="fill:rgb(62,90,110)"/>
<polygon points="0,453 0,608 62,494" style="fill:rgb(33,64,99)"/>
<polygon points="62,494 0,608 89,535" style="fill:rgb(36,65,99)"/>
<polygon points="1800,771 1771,662 1559,782" style="fill:rgb(94,125,147)"/>
<polygon points="1800,345 1740,277 1702,345" style="fill:rgb(70,159,136)"/>
<polygon points="0,427 0,453 96,437" style="fill:rgb(94,114,153)"/>
<polygon points="91,366 0,427 96,437" style="fill:rgb(91,132,160)"/>
<polygon points="0,608 0,787 104,810" style="fill:rgb(43,80,108)"/>
<polygon points="72,937 0,986 89,977" style="fill:rgb(49,86,109)"/>
<polygon points="1800,1000 1742,903 1688,924" style="fill:rgb(63,51,53)"/>
<polygon points="1688,924 1742,903 1559,782" style="fill:rgb(112,135,132)"/>
<polygon points="1800,345 1702,345 1715,428" style="fill:rgb(81,161,138)"/>
<polygon points="1702,345 1740,277 1527,241" style="fill:rgb(65,159,138)"/>
<polygon points="1438,1146 1650,1093 1572,966" style="fill:rgb(80,48,43)"/>
<polygon points="1800,1000 1800,920 1742,903" style="fill:rgb(59,49,52)"/>
<polygon points="1800,771 1800,522 1771,662" style="fill:rgb(86,124,158)"/>
<polygon points="1771,662 1800,522 1651,598" style="fill:rgb(91,132,177)"/>
<polygon points="189,315 0,263 91,366" style="fill:rgb(67,156,131)"/>
<polygon points="91,366 0,263 0,427" style="fill:rgb(94,126,160)"/>
<polygon points="834,0 99,111 766,115" style="fill:rgb(59,159,138)"/>
<polygon points="1742,903 1800,771 1559,782" style="fill:rgb(110,130,131)"/>
<polygon points="99,111 0,263 189,315" style="fill:rgb(67,160,137)"/>
<polygon points="1800,522 1800,345 1715,428" style="fill:rgb(86,166,141)"/>
<polygon points="1740,277 1719,93 1527,241" style="fill:rgb(59,160,141)"/>
<polygon points="0,787 0,986 72,937" style="fill:rgb(43,79,100)"/>
<polygon points="89,977 0,1067 167,1030" style="fill:rgb(93,114,127)"/>
<polygon points="167,1030 0,1146 410,1146" style="fill:rgb(68,56,59)"/>
<polygon points="1800,1000 1688,924 1656,985" style="fill:rgb(67,50,51)"/>
<polygon points="1742,903 1800,920 1800,771" style="fill:rgb(116,135,130)"/>
<polygon points="1800,57 1719,93 1740,277" style="fill:rgb(60,159,139)"/>
<polygon points="1719,93 1681,0 1565,45" style="fill:rgb(56,153,133)"/>
<polygon points="1565,45 1681,0 834,0" style="fill:rgb(55,156,135)"/>
<polygon points="1650,1093 1800,1000 1656,985" style="fill:rgb(75,48,42)"/>
<polygon points="0,986 0,1067 89,977" style="fill:rgb(73,101,118)"/>
<polygon points="0,1067 0,1116 167,1030" style="fill:rgb(92,111,120)"/>
<polygon points="0,1116 0,1146 167,1030" style="fill:rgb(68,65,68)"/>
<polygon points="1800,345 1800,57 1740,277" style="fill:rgb(58,157,137)"/>
<polygon points="1719,93 1800,57 1681,0" style="fill:rgb(56,151,129)"/>
<polygon points="1438,1146 1800,1146 1650,1093" style="fill:rgb(94,54,36)"/>
<polygon points="1650,1093 1800,1146 1800,1000" style="fill:rgb(85,50,36)"/>
<polygon points="834,0 0,0 99,111" style="fill:rgb(58,157,135)"/>
<polygon points="99,111 0,0 0,263" style="fill:rgb(61,158,136)"/>
<polygon points="1800,57 1800,0 1681,0" style="fill:rgb(48,146,124)"/>
</svg>