<?xml version="1.0"?>
<svg width="2419" height="1701"
     xmlns="http://www.w3.org/2000/svg"
     shape-rendering="crispEdges">
<polygon points="1136,852 1243,765 1075,773" style="fill:rgb(141,131,109)"/>
<polygon points="1243,765 1061,659 1075,773" style="fill:rgb(145,135,112)"/>
<polygon points="1243,765 1267,650 1061,659" style="fill:rgb(148,138,115)"/>
<polygon points="1136,852 1254,931 1243,765" style="fill:rgb(148,135,110)"/>
<polygon points="1243,765 1377,688 1267,650" style="fill:rgb(164,154,121)"/>
<polygon points="1267,650 1256,590 1061,659" style="fill:rgb(164,153,119)"/>
<polygon points="929,933 1060,957 1075,773" style="fill:rgb(124,114,91)"/>
<polygon points="1075,773 1060,957 1136,852" style="fill:rgb(129,116,93)"/>
<polygon points="1136,852 1097,1008 1254,931" style="fill:rgb(134,122,96)"/>
<polygon points="1061,659 939,768 1075,773" style="fill:rgb(141,132,104)"/>
<polygon points="1518,874 1377,688 1243,765" style="fill:rgb(158,146,115)"/>
<polygon points="1267,650 1362,633 1256,590" style="fill:rgb(169,159,124)"/>
<polygon points="1044,454 993,600 1061,659" style="fill:rgb(162,155,126)"/>
<polygon points="1061,659 933,649 939,768" style="fill:rgb(148,136,105)"/>
<polygon points="1060,957 1097,1008 1136,852" style="fill:rgb(128,116,91)"/>
<polygon points="1377,688 1362,633 1267,650" style="fill:rgb(167,155,121)"/>
<polygon points="993,600 933,649 1061,659" style="fill:rgb(155,143,113)"/>
<polygon points="1097,1008 1264,1008 1254,931" style="fill:rgb(144,130,101)"/>
<polygon points="1254,931 1518,874 1243,765" style="fill:rgb(152,140,112)"/>
<polygon points="738,817 929,933 939,768" style="fill:rgb(119,118,91)"/>
<polygon points="939,768 929,933 1075,773" style="fill:rgb(116,112,88)"/>
<polygon points="1060,957 993,999 1097,1008" style="fill:rgb(134,127,97)"/>
<polygon points="929,933 993,999 1060,957" style="fill:rgb(112,106,84)"/>
<polygon points="993,999 1128,1066 1097,1008" style="fill:rgb(144,133,99)"/>
<polygon points="1097,1008 1128,1066 1264,1008" style="fill:rgb(144,131,99)"/>
<polygon points="1299,1067 1322,1036 1264,1008" style="fill:rgb(124,109,90)"/>
<polygon points="1264,1008 1322,1036 1254,931" style="fill:rgb(148,135,109)"/>
<polygon points="1128,1066 1194,1086 1264,1008" style="fill:rgb(132,119,93)"/>
<polygon points="1194,1086 1299,1067 1264,1008" style="fill:rgb(115,102,83)"/>
<polygon points="869,587 845,660 933,649" style="fill:rgb(146,136,106)"/>
<polygon points="933,649 845,660 939,768" style="fill:rgb(146,136,102)"/>
<polygon points="1157,327 1044,454 1256,590" style="fill:rgb(169,163,129)"/>
<polygon points="1256,590 1044,454 1061,659" style="fill:rgb(164,157,126)"/>
<polygon points="993,600 869,587 933,649" style="fill:rgb(153,143,116)"/>
<polygon points="1044,454 869,587 993,600" style="fill:rgb(165,158,127)"/>
<polygon points="1128,1066 1135,1118 1194,1086" style="fill:rgb(133,120,97)"/>
<polygon points="1194,1086 1293,1123 1299,1067" style="fill:rgb(132,117,97)"/>
<polygon points="931,1049 1135,1118 1128,1066" style="fill:rgb(129,117,90)"/>
<polygon points="929,933 931,1049 993,999" style="fill:rgb(122,115,88)"/>
<polygon points="993,999 931,1049 1128,1066" style="fill:rgb(131,121,93)"/>
<polygon points="894,1032 931,1049 929,933" style="fill:rgb(129,118,90)"/>
<polygon points="869,587 837,601 845,660" style="fill:rgb(141,133,105)"/>
<polygon points="719,622 837,601 762,504" style="fill:rgb(138,129,106)"/>
<polygon points="771,968 894,1032 929,933" style="fill:rgb(139,125,95)"/>
<polygon points="897,1092 894,1032 745,1055" style="fill:rgb(118,106,86)"/>
<polygon points="1515,923 1254,931 1322,1036" style="fill:rgb(150,137,109)"/>
<polygon points="1515,923 1518,874 1254,931" style="fill:rgb(154,141,113)"/>
<polygon points="1377,688 1593,645 1362,633" style="fill:rgb(173,162,124)"/>
<polygon points="1273,1155 1293,1123 1194,1086" style="fill:rgb(141,126,105)"/>
<polygon points="1299,1067 1390,1078 1322,1036" style="fill:rgb(125,109,90)"/>
<polygon points="1365,1120 1390,1078 1299,1067" style="fill:rgb(121,105,87)"/>
<polygon points="1505,1000 1515,923 1322,1036" style="fill:rgb(150,136,111)"/>
<polygon points="1416,411 1357,438 1529,451" style="fill:rgb(166,164,124)"/>
<polygon points="1362,633 1357,438 1256,590" style="fill:rgb(169,161,129)"/>
<polygon points="1165,1195 1273,1155 1194,1086" style="fill:rgb(134,119,97)"/>
<polygon points="1293,1123 1365,1120 1299,1067" style="fill:rgb(121,106,89)"/>
<polygon points="1334,1177 1365,1120 1293,1123" style="fill:rgb(134,121,102)"/>
<polygon points="1390,1078 1505,1000 1322,1036" style="fill:rgb(136,121,102)"/>
<polygon points="738,817 939,768 845,660" style="fill:rgb(122,116,91)"/>
<polygon points="894,1032 897,1092 931,1049" style="fill:rgb(119,108,84)"/>
<polygon points="931,1049 1066,1212 1135,1118" style="fill:rgb(144,133,101)"/>
<polygon points="1135,1118 1165,1195 1194,1086" style="fill:rgb(135,121,98)"/>
<polygon points="1571,1064 1505,1000 1534,1118" style="fill:rgb(114,100,87)"/>
<polygon points="719,622 738,817 845,660" style="fill:rgb(123,114,93)"/>
<polygon points="1066,1212 1165,1195 1135,1118" style="fill:rgb(142,131,98)"/>
<polygon points="738,817 768,935 929,933" style="fill:rgb(134,124,93)"/>
<polygon points="1646,959 1518,874 1515,923" style="fill:rgb(160,148,119)"/>
<polygon points="1646,959 1592,775 1518,874" style="fill:rgb(166,156,126)"/>
<polygon points="1518,874 1592,775 1377,688" style="fill:rgb(161,151,121)"/>
<polygon points="673,988 771,968 768,935" style="fill:rgb(143,130,102)"/>
<polygon points="768,935 771,968 929,933" style="fill:rgb(147,134,102)"/>
<polygon points="1281,1244 1334,1177 1273,1155" style="fill:rgb(132,118,97)"/>
<polygon points="1273,1155 1334,1177 1293,1123" style="fill:rgb(145,133,110)"/>
<polygon points="1534,1118 1505,1000 1390,1078" style="fill:rgb(119,104,89)"/>
<polygon points="1529,451 1357,438 1362,633" style="fill:rgb(173,166,132)"/>
<polygon points="1357,438 1157,327 1256,590" style="fill:rgb(170,166,132)"/>
<polygon points="1347,357 1157,327 1357,438" style="fill:rgb(164,161,127)"/>
<polygon points="762,504 837,601 869,587" style="fill:rgb(150,144,115)"/>
<polygon points="897,1092 1066,1212 931,1049" style="fill:rgb(121,113,89)"/>
<polygon points="1165,1195 1281,1244 1273,1155" style="fill:rgb(125,111,88)"/>
<polygon points="1592,775 1593,645 1377,688" style="fill:rgb(170,159,123)"/>
<polygon points="1416,411 1347,357 1357,438" style="fill:rgb(166,167,130)"/>
<polygon points="793,439 869,587 1044,454" style="fill:rgb(163,155,122)"/>
<polygon points="837,601 719,622 845,660" style="fill:rgb(138,127,104)"/>
<polygon points="1515,427 1446,394 1416,411" style="fill:rgb(123,131,108)"/>
<polygon points="1416,411 1378,344 1347,357" style="fill:rgb(153,153,124)"/>
<polygon points="1157,327 975,330 1044,454" style="fill:rgb(170,168,135)"/>
<polygon points="793,439 762,504 869,587" style="fill:rgb(158,147,112)"/>
<polygon points="1378,344 1349,331 1347,357" style="fill:rgb(132,135,115)"/>
<polygon points="1347,357 1220,273 1157,327" style="fill:rgb(156,152,124)"/>
<polygon points="1446,394 1378,344 1416,411" style="fill:rgb(137,134,110)"/>
<polygon points="657,750 674,827 738,817" style="fill:rgb(145,131,101)"/>
<polygon points="738,817 674,827 768,935" style="fill:rgb(131,116,90)"/>
<polygon points="1230,1293 1281,1244 1165,1195" style="fill:rgb(134,120,93)"/>
<polygon points="1534,1118 1390,1078 1527,1145" style="fill:rgb(131,117,100)"/>
<polygon points="1593,645 1529,451 1362,633" style="fill:rgb(175,168,133)"/>
<polygon points="1446,394 1484,306 1378,344" style="fill:rgb(63,62,62)"/>
<polygon points="975,330 793,439 1044,454" style="fill:rgb(165,160,128)"/>
<polygon points="1529,451 1515,427 1416,411" style="fill:rgb(158,158,118)"/>
<polygon points="1548,425 1510,414 1515,427" style="fill:rgb(114,118,103)"/>
<polygon points="1515,427 1510,414 1446,394" style="fill:rgb(99,91,81)"/>
<polygon points="1349,331 1220,273 1347,357" style="fill:rgb(133,132,112)"/>
<polygon points="1157,327 1093,233 975,330" style="fill:rgb(164,160,132)"/>
<polygon points="1231,261 1220,273 1349,331" style="fill:rgb(115,119,109)"/>
<polygon points="673,988 745,1055 771,968" style="fill:rgb(137,124,95)"/>
<polygon points="771,968 745,1055 894,1032" style="fill:rgb(133,117,92)"/>
<polygon points="897,1092 855,1237 1066,1212" style="fill:rgb(114,105,86)"/>
<polygon points="590,766 657,750 557,701" style="fill:rgb(149,133,103)"/>
<polygon points="719,622 657,750 738,817" style="fill:rgb(120,110,93)"/>
<polygon points="1390,1078 1365,1120 1450,1192" style="fill:rgb(127,113,94)"/>
<polygon points="1505,1000 1611,1006 1515,923" style="fill:rgb(148,133,109)"/>
<polygon points="999,1314 1156,1277 1066,1212" style="fill:rgb(113,106,88)"/>
<polygon points="1066,1212 1156,1277 1165,1195" style="fill:rgb(131,122,92)"/>
<polygon points="1571,1064 1611,1006 1505,1000" style="fill:rgb(126,112,96)"/>
<polygon points="1592,775 1756,694 1593,645" style="fill:rgb(173,163,126)"/>
<polygon points="1450,1192 1365,1120 1334,1177" style="fill:rgb(120,107,90)"/>
<polygon points="1644,989 1646,959 1611,1006" style="fill:rgb(137,122,103)"/>
<polygon points="1345,1251 1450,1192 1334,1177" style="fill:rgb(138,126,105)"/>
<polygon points="1324,1267 1345,1251 1281,1244" style="fill:rgb(134,122,100)"/>
<polygon points="1281,1244 1345,1251 1334,1177" style="fill:rgb(129,116,96)"/>
<polygon points="1308,243 1349,331 1378,344" style="fill:rgb(73,75,77)"/>
<polygon points="1308,243 1231,261 1349,331" style="fill:rgb(76,79,81)"/>
<polygon points="1220,273 1093,233 1157,327" style="fill:rgb(158,155,129)"/>
<polygon points="1529,451 1548,425 1515,427" style="fill:rgb(163,155,116)"/>
<polygon points="1311,225 1308,243 1484,306" style="fill:rgb(83,87,89)"/>
<polygon points="1664,422 1548,425 1529,451" style="fill:rgb(161,152,121)"/>
<polygon points="1644,989 1611,1006 1571,1064" style="fill:rgb(115,103,90)"/>
<polygon points="1611,1006 1646,959 1515,923" style="fill:rgb(154,140,114)"/>
<polygon points="1230,1293 1324,1267 1281,1244" style="fill:rgb(142,130,104)"/>
<polygon points="1345,1251 1487,1220 1450,1192" style="fill:rgb(122,110,95)"/>
<polygon points="1450,1192 1527,1145 1390,1078" style="fill:rgb(135,123,104)"/>
<polygon points="1534,1118 1527,1145 1571,1064" style="fill:rgb(74,72,71)"/>
<polygon points="1156,1277 1230,1293 1165,1195" style="fill:rgb(134,123,96)"/>
<polygon points="1687,967 1738,965 1710,961" style="fill:rgb(90,87,81)"/>
<polygon points="650,947 673,988 768,935" style="fill:rgb(137,124,97)"/>
<polygon points="650,947 768,935 674,827" style="fill:rgb(126,113,88)"/>
<polygon points="625,916 650,947 674,827" style="fill:rgb(116,109,87)"/>
<polygon points="1107,207 1093,233 1220,273" style="fill:rgb(140,136,115)"/>
<polygon points="975,330 764,381 793,439" style="fill:rgb(161,153,124)"/>
<polygon points="1308,243 1378,344 1484,306" style="fill:rgb(63,65,71)"/>
<polygon points="1231,261 1107,207 1220,273" style="fill:rgb(109,115,110)"/>
<polygon points="590,766 625,916 674,827" style="fill:rgb(115,107,89)"/>
<polygon points="574,977 676,1054 673,988" style="fill:rgb(101,95,80)"/>
<polygon points="946,255 764,381 975,330" style="fill:rgb(160,153,126)"/>
<polygon points="793,439 649,475 762,504" style="fill:rgb(162,148,110)"/>
<polygon points="649,475 586,641 719,622" style="fill:rgb(136,125,106)"/>
<polygon points="1450,1192 1487,1220 1527,1145" style="fill:rgb(116,105,91)"/>
<polygon points="1687,967 1644,989 1738,965" style="fill:rgb(65,63,63)"/>
<polygon points="1344,1307 1487,1220 1345,1251" style="fill:rgb(112,102,86)"/>
<polygon points="818,1266 855,1237 745,1055" style="fill:rgb(107,101,83)"/>
<polygon points="745,1055 855,1237 897,1092" style="fill:rgb(119,110,88)"/>
<polygon points="1156,1277 1189,1358 1230,1293" style="fill:rgb(126,121,100)"/>
<polygon points="1093,233 946,255 975,330" style="fill:rgb(167,159,128)"/>
<polygon points="574,977 673,988 650,947" style="fill:rgb(114,107,88)"/>
<polygon points="673,988 676,1054 745,1055" style="fill:rgb(115,108,87)"/>
<polygon points="1644,989 1571,1064 1738,965" style="fill:rgb(65,62,61)"/>
<polygon points="1644,989 1687,967 1646,959" style="fill:rgb(121,110,96)"/>
<polygon points="1646,959 1727,888 1592,775" style="fill:rgb(172,164,131)"/>
<polygon points="1664,422 1614,383 1548,425" style="fill:rgb(110,104,93)"/>
<polygon points="855,1237 999,1314 1066,1212" style="fill:rgb(109,101,84)"/>
<polygon points="1109,199 1107,207 1231,261" style="fill:rgb(84,81,78)"/>
<polygon points="1093,233 978,170 946,255" style="fill:rgb(159,149,115)"/>
<polygon points="1484,306 1446,394 1527,337" style="fill:rgb(60,58,60)"/>
<polygon points="1308,243 1311,225 1231,261" style="fill:rgb(68,73,81)"/>
<polygon points="1319,1358 1344,1307 1324,1267" style="fill:rgb(116,106,87)"/>
<polygon points="1324,1267 1344,1307 1345,1251" style="fill:rgb(115,103,87)"/>
<polygon points="1351,1343 1344,1307 1319,1358" style="fill:rgb(111,104,88)"/>
<polygon points="1344,1307 1495,1228 1487,1220" style="fill:rgb(101,90,79)"/>
<polygon points="1487,1220 1495,1228 1527,1145" style="fill:rgb(84,77,71)"/>
<polygon points="1527,337 1446,394 1510,414" style="fill:rgb(70,64,61)"/>
<polygon points="1546,316 1527,337 1614,383" style="fill:rgb(67,68,71)"/>
<polygon points="1548,425 1527,337 1510,414" style="fill:rgb(67,64,63)"/>
<polygon points="586,641 657,750 719,622" style="fill:rgb(119,110,96)"/>
<polygon points="657,750 590,766 674,827" style="fill:rgb(137,123,98)"/>
<polygon points="1156,152 1109,199 1231,261" style="fill:rgb(62,58,56)"/>
<polygon points="986,163 978,170 1093,233" style="fill:rgb(141,129,105)"/>
<polygon points="1687,967 1727,888 1646,959" style="fill:rgb(165,155,124)"/>
<polygon points="1738,965 1571,1064 1932,1302" style="fill:rgb(60,58,59)"/>
<polygon points="1687,967 1710,961 1727,888" style="fill:rgb(164,155,126)"/>
<polygon points="1058,1384 1189,1358 1156,1277" style="fill:rgb(110,103,87)"/>
<polygon points="649,475 719,622 762,504" style="fill:rgb(137,123,97)"/>
<polygon points="764,381 649,475 793,439" style="fill:rgb(162,152,119)"/>
<polygon points="1614,383 1527,337 1548,425" style="fill:rgb(80,81,80)"/>
<polygon points="1527,337 1546,316 1484,306" style="fill:rgb(88,89,87)"/>
<polygon points="1484,306 1500,278 1311,225" style="fill:rgb(124,127,114)"/>
<polygon points="1664,422 1529,451 1700,456" style="fill:rgb(169,163,131)"/>
<polygon points="1546,316 1500,278 1484,306" style="fill:rgb(125,129,115)"/>
<polygon points="676,1054 818,1266 745,1055" style="fill:rgb(103,97,82)"/>
<polygon points="855,1237 916,1371 999,1314" style="fill:rgb(102,96,80)"/>
<polygon points="1727,888 1756,694 1592,775" style="fill:rgb(171,162,127)"/>
<polygon points="1319,1358 1324,1267 1230,1293" style="fill:rgb(121,111,91)"/>
<polygon points="1344,1307 1351,1343 1495,1228" style="fill:rgb(94,84,75)"/>
<polygon points="475,751 557,701 430,668" style="fill:rgb(138,122,98)"/>
<polygon points="586,641 557,701 657,750" style="fill:rgb(125,114,96)"/>
<polygon points="537,894 574,977 625,916" style="fill:rgb(89,84,75)"/>
<polygon points="1189,1358 1319,1358 1230,1293" style="fill:rgb(123,118,99)"/>
<polygon points="1805,951 1738,965 1815,956" style="fill:rgb(110,102,89)"/>
<polygon points="1710,961 1738,965 1727,888" style="fill:rgb(165,156,127)"/>
<polygon points="1727,888 1801,736 1756,694" style="fill:rgb(163,151,120)"/>
<polygon points="1700,456 1529,451 1593,645" style="fill:rgb(178,171,136)"/>
<polygon points="1614,383 1646,328 1546,316" style="fill:rgb(64,61,61)"/>
<polygon points="1311,225 1156,152 1231,261" style="fill:rgb(64,63,64)"/>
<polygon points="986,163 1093,233 1107,207" style="fill:rgb(140,130,106)"/>
<polygon points="1158,140 1156,152 1311,225" style="fill:rgb(130,120,100)"/>
<polygon points="625,916 574,977 650,947" style="fill:rgb(103,96,83)"/>
<polygon points="676,1054 733,1345 818,1266" style="fill:rgb(95,89,77)"/>
<polygon points="537,894 625,916 590,766" style="fill:rgb(106,100,84)"/>
<polygon points="937,1425 1058,1384 999,1314" style="fill:rgb(104,97,81)"/>
<polygon points="999,1314 1058,1384 1156,1277" style="fill:rgb(104,95,81)"/>
<polygon points="1189,1358 1190,1392 1319,1358" style="fill:rgb(113,109,93)"/>
<polygon points="1067,1400 1190,1392 1189,1358" style="fill:rgb(119,115,96)"/>
<polygon points="1756,694 1700,456 1593,645" style="fill:rgb(179,171,136)"/>
<polygon points="986,163 1107,207 1109,199" style="fill:rgb(85,84,82)"/>
<polygon points="946,255 744,181 764,381" style="fill:rgb(159,146,117)"/>
<polygon points="764,381 517,386 649,475" style="fill:rgb(151,137,112)"/>
<polygon points="1188,63 1158,140 1311,225" style="fill:rgb(150,138,112)"/>
<polygon points="1156,152 1074,128 1109,199" style="fill:rgb(60,56,56)"/>
<polygon points="1074,128 986,163 1109,199" style="fill:rgb(63,60,59)"/>
<polygon points="466,777 537,894 590,766" style="fill:rgb(105,96,83)"/>
<polygon points="963,1456 1067,1400 1058,1384" style="fill:rgb(117,113,94)"/>
<polygon points="1058,1384 1067,1400 1189,1358" style="fill:rgb(114,107,90)"/>
<polygon points="1786,934 1801,736 1727,888" style="fill:rgb(175,167,134)"/>
<polygon points="1859,552 1814,462 1700,456" style="fill:rgb(176,169,134)"/>
<polygon points="818,1266 916,1371 855,1237" style="fill:rgb(99,91,78)"/>
<polygon points="1805,951 1786,934 1738,965" style="fill:rgb(155,145,118)"/>
<polygon points="1738,965 1786,934 1727,888" style="fill:rgb(164,155,126)"/>
<polygon points="1158,140 1074,128 1156,152" style="fill:rgb(116,105,89)"/>
<polygon points="1190,1392 1335,1396 1319,1358" style="fill:rgb(97,90,80)"/>
<polygon points="1319,1358 1335,1396 1351,1343" style="fill:rgb(81,74,68)"/>
<polygon points="1351,1343 1335,1396 1495,1228" style="fill:rgb(76,70,65)"/>
<polygon points="1815,956 1738,965 1932,1302" style="fill:rgb(62,59,59)"/>
<polygon points="1192,1470 1335,1396 1190,1392" style="fill:rgb(93,86,76)"/>
<polygon points="1716,406 1664,422 1700,456" style="fill:rgb(155,151,127)"/>
<polygon points="1716,406 1676,378 1664,422" style="fill:rgb(114,105,92)"/>
<polygon points="1664,422 1676,378 1614,383" style="fill:rgb(99,99,95)"/>
<polygon points="1546,316 1521,200 1500,278" style="fill:rgb(145,144,124)"/>
<polygon points="1676,378 1646,328 1614,383" style="fill:rgb(73,75,77)"/>
<polygon points="1500,278 1521,200 1311,225" style="fill:rgb(147,143,123)"/>
<polygon points="1814,462 1716,406 1700,456" style="fill:rgb(167,161,130)"/>
<polygon points="1677,307 1666,302 1646,328" style="fill:rgb(103,99,88)"/>
<polygon points="1571,1064 1527,1145 1932,1302" style="fill:rgb(59,58,59)"/>
<polygon points="1786,934 1873,923 1801,736" style="fill:rgb(185,178,145)"/>
<polygon points="1666,302 1521,200 1546,316" style="fill:rgb(149,146,123)"/>
<polygon points="886,136 978,170 986,163" style="fill:rgb(82,77,74)"/>
<polygon points="886,136 870,157 978,170" style="fill:rgb(110,105,91)"/>
<polygon points="978,170 870,157 946,255" style="fill:rgb(155,143,110)"/>
<polygon points="1158,140 1059,99 1074,128" style="fill:rgb(124,112,94)"/>
<polygon points="1074,128 1000,106 986,163" style="fill:rgb(62,58,56)"/>
<polygon points="1188,63 1059,99 1158,140" style="fill:rgb(145,130,106)"/>
<polygon points="1873,923 1815,956 1875,926" style="fill:rgb(112,113,105)"/>
<polygon points="1805,951 1873,923 1786,934" style="fill:rgb(174,169,137)"/>
<polygon points="1059,99 1000,106 1074,128" style="fill:rgb(109,99,85)"/>
<polygon points="430,668 557,701 586,641" style="fill:rgb(138,126,106)"/>
<polygon points="557,701 475,751 590,766" style="fill:rgb(134,120,98)"/>
<polygon points="916,1371 937,1425 999,1314" style="fill:rgb(95,89,77)"/>
<polygon points="1067,1400 1192,1470 1190,1392" style="fill:rgb(104,98,85)"/>
<polygon points="884,1422 937,1425 916,1371" style="fill:rgb(104,99,85)"/>
<polygon points="884,1422 916,1371 818,1266" style="fill:rgb(98,90,78)"/>
<polygon points="1646,328 1666,302 1546,316" style="fill:rgb(119,112,96)"/>
<polygon points="1677,307 1646,328 1708,324" style="fill:rgb(94,94,88)"/>
<polygon points="1000,106 886,136 986,163" style="fill:rgb(63,60,59)"/>
<polygon points="475,751 466,777 590,766" style="fill:rgb(111,100,87)"/>
<polygon points="453,957 532,1081 574,977" style="fill:rgb(99,93,79)"/>
<polygon points="1708,324 1646,328 1676,378" style="fill:rgb(125,124,107)"/>
<polygon points="1858,129 1506,148 1521,200" style="fill:rgb(159,149,123)"/>
<polygon points="453,957 574,977 537,894" style="fill:rgb(87,81,72)"/>
<polygon points="574,977 532,1081 676,1054" style="fill:rgb(93,86,74)"/>
<polygon points="1107,1519 1192,1470 1067,1400" style="fill:rgb(95,86,76)"/>
<polygon points="733,1345 884,1422 818,1266" style="fill:rgb(100,92,79)"/>
<polygon points="937,1425 963,1456 1058,1384" style="fill:rgb(125,122,102)"/>
<polygon points="1716,406 1708,324 1676,378" style="fill:rgb(126,120,102)"/>
<polygon points="1858,129 1521,200 1666,302" style="fill:rgb(159,152,124)"/>
<polygon points="1777,353 1708,324 1716,406" style="fill:rgb(147,143,116)"/>
<polygon points="1343,20 1188,63 1311,225" style="fill:rgb(154,141,114)"/>
<polygon points="872,88 875,94 1000,106" style="fill:rgb(98,95,86)"/>
<polygon points="885,1453 963,1456 937,1425" style="fill:rgb(114,111,94)"/>
<polygon points="1475,77 1506,148 1854,9" style="fill:rgb(157,144,115)"/>
<polygon points="1521,200 1506,148 1311,225" style="fill:rgb(161,151,124)"/>
<polygon points="532,1081 733,1345 676,1054" style="fill:rgb(93,86,76)"/>
<polygon points="744,145 744,181 870,157" style="fill:rgb(135,130,112)"/>
<polygon points="870,157 744,181 946,255" style="fill:rgb(156,144,113)"/>
<polygon points="472,470 430,668 586,641" style="fill:rgb(144,132,111)"/>
<polygon points="1859,552 1756,694 1898,666" style="fill:rgb(171,162,124)"/>
<polygon points="1859,552 1700,456 1756,694" style="fill:rgb(176,168,131)"/>
<polygon points="1875,926 1815,956 1894,949" style="fill:rgb(68,71,78)"/>
<polygon points="1815,956 1873,923 1805,951" style="fill:rgb(152,145,120)"/>
<polygon points="421,824 453,957 537,894" style="fill:rgb(90,83,73)"/>
<polygon points="875,94 850,109 886,136" style="fill:rgb(72,73,78)"/>
<polygon points="886,136 850,109 870,157" style="fill:rgb(73,82,84)"/>
<polygon points="875,94 886,136 1000,106" style="fill:rgb(68,65,66)"/>
<polygon points="1894,949 1815,956 1932,1302" style="fill:rgb(62,60,60)"/>
<polygon points="1898,666 1756,694 1801,736" style="fill:rgb(179,170,139)"/>
<polygon points="1898,666 1801,736 1913,695" style="fill:rgb(191,185,158)"/>
<polygon points="872,88 1000,106 1059,99" style="fill:rgb(122,115,94)"/>
<polygon points="712,1514 885,1453 884,1422" style="fill:rgb(99,92,80)"/>
<polygon points="884,1422 885,1453 937,1425" style="fill:rgb(98,91,79)"/>
<polygon points="1022,1519 1107,1519 1067,1400" style="fill:rgb(102,95,83)"/>
<polygon points="472,470 586,641 649,475" style="fill:rgb(141,127,108)"/>
<polygon points="475,751 338,753 466,777" style="fill:rgb(123,110,93)"/>
<polygon points="466,777 421,824 537,894" style="fill:rgb(98,90,79)"/>
<polygon points="338,753 421,824 466,777" style="fill:rgb(109,100,85)"/>
<polygon points="1188,63 872,88 1059,99" style="fill:rgb(143,131,106)"/>
<polygon points="875,94 872,88 850,109" style="fill:rgb(105,105,98)"/>
<polygon points="850,109 744,145 870,157" style="fill:rgb(84,91,93)"/>
<polygon points="1846,292 1777,353 1857,308" style="fill:rgb(142,131,108)"/>
<polygon points="1814,462 1777,353 1716,406" style="fill:rgb(164,159,132)"/>
<polygon points="1858,158 1666,302 1677,307" style="fill:rgb(147,135,107)"/>
<polygon points="1913,695 1801,736 1967,825" style="fill:rgb(200,197,170)"/>
<polygon points="533,245 517,386 764,381" style="fill:rgb(157,147,122)"/>
<polygon points="1022,1519 1067,1400 963,1456" style="fill:rgb(101,96,84)"/>
<polygon points="1192,1470 1143,1532 1335,1396" style="fill:rgb(68,66,64)"/>
<polygon points="517,386 472,470 649,475" style="fill:rgb(149,135,112)"/>
<polygon points="743,113 744,145 850,109" style="fill:rgb(83,92,96)"/>
<polygon points="744,181 533,245 764,381" style="fill:rgb(158,146,119)"/>
<polygon points="1783,1438 1527,1145 1495,1228" style="fill:rgb(60,58,59)"/>
<polygon points="1875,926 1922,882 1873,923" style="fill:rgb(111,127,127)"/>
<polygon points="1922,882 1801,736 1873,923" style="fill:rgb(200,197,170)"/>
<polygon points="1898,666 2023,674 1859,552" style="fill:rgb(167,157,121)"/>
<polygon points="887,1509 1022,1519 963,1456" style="fill:rgb(94,88,78)"/>
<polygon points="1002,1629 1143,1532 1107,1519" style="fill:rgb(78,71,65)"/>
<polygon points="1107,1519 1143,1532 1192,1470" style="fill:rgb(83,75,68)"/>
<polygon points="1863,194 1677,307 1708,324" style="fill:rgb(71,72,70)"/>
<polygon points="1506,148 1475,77 1311,225" style="fill:rgb(158,145,117)"/>
<polygon points="1894,949 1922,882 1875,926" style="fill:rgb(68,73,81)"/>
<polygon points="1475,77 1343,20 1311,225" style="fill:rgb(156,144,115)"/>
<polygon points="1188,63 1343,20 872,88" style="fill:rgb(154,144,117)"/>
<polygon points="872,88 743,113 850,109" style="fill:rgb(111,113,103)"/>
<polygon points="552,172 533,245 744,181" style="fill:rgb(143,138,118)"/>
<polygon points="453,957 448,1089 532,1081" style="fill:rgb(89,82,72)"/>
<polygon points="532,1081 451,1265 733,1345" style="fill:rgb(88,82,73)"/>
<polygon points="339,1170 448,1089 205,1033" style="fill:rgb(80,73,67)"/>
<polygon points="885,1453 887,1509 963,1456" style="fill:rgb(100,97,85)"/>
<polygon points="1022,1519 1002,1629 1107,1519" style="fill:rgb(86,78,71)"/>
<polygon points="712,1514 887,1509 885,1453" style="fill:rgb(97,96,86)"/>
<polygon points="712,1514 884,1422 733,1345" style="fill:rgb(89,81,72)"/>
<polygon points="1475,77 1394,9 1343,20" style="fill:rgb(152,139,114)"/>
<polygon points="413,93 571,109 254,9" style="fill:rgb(125,122,108)"/>
<polygon points="1977,826 1967,825 1922,882" style="fill:rgb(165,167,147)"/>
<polygon points="1922,882 1967,825 1801,736" style="fill:rgb(203,200,173)"/>
<polygon points="1857,308 2030,263 1967,254" style="fill:rgb(145,140,114)"/>
<polygon points="552,172 744,181 564,123" style="fill:rgb(118,121,110)"/>
<polygon points="318,523 430,668 472,470" style="fill:rgb(147,135,113)"/>
<polygon points="1998,826 1977,826 1922,882" style="fill:rgb(109,118,114)"/>
<polygon points="2050,767 2023,674 1913,695" style="fill:rgb(196,192,164)"/>
<polygon points="1857,308 1777,353 1814,462" style="fill:rgb(157,152,126)"/>
<polygon points="308,581 338,753 430,668" style="fill:rgb(141,128,106)"/>
<polygon points="430,668 338,753 475,751" style="fill:rgb(140,124,100)"/>
<polygon points="421,824 256,925 453,957" style="fill:rgb(90,83,73)"/>
<polygon points="308,581 430,668 318,523" style="fill:rgb(149,133,109)"/>
<polygon points="1854,9 1448,0 1475,77" style="fill:rgb(152,137,110)"/>
<polygon points="1475,77 1448,0 1394,9" style="fill:rgb(151,139,113)"/>
<polygon points="571,109 743,113 872,88" style="fill:rgb(120,118,104)"/>
<polygon points="2141,454 2030,263 1857,308" style="fill:rgb(160,152,124)"/>
<polygon points="1777,353 1846,292 1708,324" style="fill:rgb(135,137,112)"/>
<polygon points="2023,674 1898,666 1913,695" style="fill:rgb(187,181,150)"/>
<polygon points="2048,828 1998,826 1922,882" style="fill:rgb(79,87,93)"/>
<polygon points="2050,767 1913,695 1967,825" style="fill:rgb(197,194,166)"/>
<polygon points="564,123 744,181 744,145" style="fill:rgb(108,116,109)"/>
<polygon points="318,523 472,470 332,414" style="fill:rgb(158,146,113)"/>
<polygon points="339,1170 451,1265 448,1089" style="fill:rgb(78,73,68)"/>
<polygon points="448,1089 451,1265 532,1081" style="fill:rgb(83,76,69)"/>
<polygon points="527,1448 712,1514 733,1345" style="fill:rgb(86,79,72)"/>
<polygon points="887,1509 1002,1629 1022,1519" style="fill:rgb(95,87,77)"/>
<polygon points="2050,767 1967,825 1977,826" style="fill:rgb(159,159,139)"/>
<polygon points="712,1514 851,1586 887,1509" style="fill:rgb(86,82,74)"/>
<polygon points="472,470 517,386 332,414" style="fill:rgb(153,142,115)"/>
<polygon points="851,1586 1002,1629 887,1509" style="fill:rgb(97,90,80)"/>
<polygon points="332,414 517,386 347,291" style="fill:rgb(154,143,119)"/>
<polygon points="571,109 564,123 744,145" style="fill:rgb(70,72,76)"/>
<polygon points="347,291 517,386 533,245" style="fill:rgb(156,144,118)"/>
<polygon points="571,109 744,145 743,113" style="fill:rgb(74,72,72)"/>
<polygon points="254,9 255,46 413,93" style="fill:rgb(118,111,97)"/>
<polygon points="433,118 571,109 413,93" style="fill:rgb(77,77,78)"/>
<polygon points="417,191 533,245 552,172" style="fill:rgb(143,137,117)"/>
<polygon points="261,606 338,753 308,581" style="fill:rgb(130,116,98)"/>
<polygon points="231,629 273,772 338,753" style="fill:rgb(109,95,80)"/>
<polygon points="338,753 273,772 421,824" style="fill:rgb(106,95,79)"/>
<polygon points="1894,949 2048,828 1922,882" style="fill:rgb(68,73,81)"/>
<polygon points="1998,826 2050,767 1977,826" style="fill:rgb(115,117,108)"/>
<polygon points="2123,829 2048,828 1894,949" style="fill:rgb(64,64,69)"/>
<polygon points="2048,828 2050,767 1998,826" style="fill:rgb(84,89,92)"/>
<polygon points="2048,828 2059,766 2050,767" style="fill:rgb(79,84,88)"/>
<polygon points="2050,767 2079,692 2023,674" style="fill:rgb(176,170,141)"/>
<polygon points="417,191 552,172 433,118" style="fill:rgb(133,131,115)"/>
<polygon points="318,523 261,606 308,581" style="fill:rgb(137,121,96)"/>
<polygon points="1967,254 1846,292 1857,308" style="fill:rgb(125,119,100)"/>
<polygon points="1967,254 1863,194 1846,292" style="fill:rgb(116,124,106)"/>
<polygon points="1846,292 1863,194 1708,324" style="fill:rgb(113,123,105)"/>
<polygon points="2141,454 1859,552 2023,674" style="fill:rgb(171,161,123)"/>
<polygon points="256,925 448,1089 453,957" style="fill:rgb(86,78,70)"/>
<polygon points="451,1265 527,1448 733,1345" style="fill:rgb(84,77,70)"/>
<polygon points="231,629 261,606 157,601" style="fill:rgb(129,114,98)"/>
<polygon points="1675,1701 1783,1438 1335,1396" style="fill:rgb(62,58,56)"/>
<polygon points="1335,1396 1783,1438 1495,1228" style="fill:rgb(61,58,58)"/>
<polygon points="1675,1701 1335,1396 1143,1532" style="fill:rgb(62,59,57)"/>
<polygon points="229,840 421,824 273,772" style="fill:rgb(87,79,71)"/>
<polygon points="229,840 256,925 421,824" style="fill:rgb(92,86,76)"/>
<polygon points="2105,668 2079,692 2135,660" style="fill:rgb(73,81,98)"/>
<polygon points="2059,766 2079,692 2050,767" style="fill:rgb(117,114,101)"/>
<polygon points="1858,158 1954,126 1936,107" style="fill:rgb(127,116,95)"/>
<polygon points="1863,194 1860,168 1677,307" style="fill:rgb(84,80,75)"/>
<polygon points="343,1300 527,1448 451,1265" style="fill:rgb(77,72,67)"/>
<polygon points="882,1701 1002,1629 851,1586" style="fill:rgb(90,81,73)"/>
<polygon points="2079,692 2081,670 2023,674" style="fill:rgb(166,160,126)"/>
<polygon points="1858,129 1858,158 1936,107" style="fill:rgb(149,138,111)"/>
<polygon points="1860,168 1858,158 1677,307" style="fill:rgb(127,115,94)"/>
<polygon points="129,787 229,840 273,772" style="fill:rgb(85,77,69)"/>
<polygon points="1783,1438 1932,1302 1527,1145" style="fill:rgb(61,59,59)"/>
<polygon points="157,601 261,606 167,498" style="fill:rgb(144,132,112)"/>
<polygon points="261,606 231,629 338,753" style="fill:rgb(116,103,88)"/>
<polygon points="433,118 552,172 564,123" style="fill:rgb(112,120,113)"/>
<polygon points="157,601 168,674 231,629" style="fill:rgb(113,100,87)"/>
<polygon points="417,191 347,291 533,245" style="fill:rgb(146,137,117)"/>
<polygon points="882,1701 973,1701 1002,1629" style="fill:rgb(77,70,64)"/>
<polygon points="1002,1629 973,1701 1143,1532" style="fill:rgb(67,65,63)"/>
<polygon points="882,1701 851,1586 676,1643" style="fill:rgb(92,83,73)"/>
<polygon points="1954,126 1860,168 1863,194" style="fill:rgb(67,66,65)"/>
<polygon points="1858,158 1858,129 1666,302" style="fill:rgb(151,140,112)"/>
<polygon points="2079,692 2105,668 2081,670" style="fill:rgb(133,125,108)"/>
<polygon points="1857,308 1814,462 2141,454" style="fill:rgb(166,157,125)"/>
<polygon points="2123,829 2079,692 2059,766" style="fill:rgb(64,66,71)"/>
<polygon points="2123,829 2059,766 2048,828" style="fill:rgb(64,66,72)"/>
<polygon points="1814,462 1859,552 2141,454" style="fill:rgb(173,164,127)"/>
<polygon points="1932,1302 2123,829 1894,949" style="fill:rgb(61,59,59)"/>
<polygon points="676,1643 851,1586 712,1514" style="fill:rgb(83,78,71)"/>
<polygon points="227,1135 343,1300 339,1170" style="fill:rgb(71,69,66)"/>
<polygon points="339,1170 343,1300 451,1265" style="fill:rgb(81,80,77)"/>
<polygon points="205,1033 448,1089 256,925" style="fill:rgb(82,75,68)"/>
<polygon points="872,88 254,9 571,109" style="fill:rgb(137,137,120)"/>
<polygon points="571,109 433,118 564,123" style="fill:rgb(74,79,86)"/>
<polygon points="417,191 202,180 347,291" style="fill:rgb(147,139,118)"/>
<polygon points="2123,829 2135,660 2079,692" style="fill:rgb(61,60,62)"/>
<polygon points="2105,668 2174,610 2081,670" style="fill:rgb(154,142,115)"/>
<polygon points="129,787 256,925 229,840" style="fill:rgb(84,78,71)"/>
<polygon points="129,787 205,1033 256,925" style="fill:rgb(76,71,67)"/>
<polygon points="261,606 318,523 167,498" style="fill:rgb(139,124,105)"/>
<polygon points="231,629 168,674 273,772" style="fill:rgb(102,90,79)"/>
<polygon points="469,1657 676,1643 527,1448" style="fill:rgb(83,76,69)"/>
<polygon points="527,1448 676,1643 712,1514" style="fill:rgb(88,81,73)"/>
<polygon points="205,1033 227,1135 339,1170" style="fill:rgb(74,69,65)"/>
<polygon points="872,88 1343,20 254,9" style="fill:rgb(149,142,120)"/>
<polygon points="433,118 389,110 417,191" style="fill:rgb(128,126,111)"/>
<polygon points="167,498 318,523 332,414" style="fill:rgb(152,137,109)"/>
<polygon points="2141,454 2023,674 2175,541" style="fill:rgb(167,158,121)"/>
<polygon points="1967,254 1990,177 1863,194" style="fill:rgb(112,121,103)"/>
<polygon points="413,93 389,110 433,118" style="fill:rgb(84,84,81)"/>
<polygon points="167,498 332,414 51,313" style="fill:rgb(159,144,108)"/>
<polygon points="168,674 129,787 273,772" style="fill:rgb(102,90,77)"/>
<polygon points="2030,263 1990,177 1967,254" style="fill:rgb(116,116,98)"/>
<polygon points="1954,126 1858,158 1860,168" style="fill:rgb(91,85,76)"/>
<polygon points="1858,129 1854,9 1506,148" style="fill:rgb(156,147,121)"/>
<polygon points="1990,177 1954,126 1863,194" style="fill:rgb(103,111,96)"/>
<polygon points="2239,581 2174,610 2331,666" style="fill:rgb(61,57,56)"/>
<polygon points="2135,660 2174,610 2105,668" style="fill:rgb(115,104,92)"/>
<polygon points="51,313 332,414 347,291" style="fill:rgb(151,138,109)"/>
<polygon points="0,775 129,787 0,700" style="fill:rgb(86,78,71)"/>
<polygon points="0,1113 146,1278 227,1135" style="fill:rgb(68,64,61)"/>
<polygon points="129,787 168,674 0,700" style="fill:rgb(98,87,76)"/>
<polygon points="1969,0 1854,9 1936,107" style="fill:rgb(148,143,121)"/>
<polygon points="1936,107 1854,9 1858,129" style="fill:rgb(153,149,123)"/>
<polygon points="2097,150 2060,107 1990,177" style="fill:rgb(96,105,93)"/>
<polygon points="2175,541 2023,674 2081,670" style="fill:rgb(167,158,124)"/>
<polygon points="2174,610 2175,541 2081,670" style="fill:rgb(166,157,124)"/>
<polygon points="2112,166 2277,169 2214,131" style="fill:rgb(145,134,109)"/>
<polygon points="2141,454 2087,283 2030,263" style="fill:rgb(157,146,118)"/>
<polygon points="2043,77 1936,107 1954,126" style="fill:rgb(130,121,99)"/>
<polygon points="2174,610 2199,586 2175,541" style="fill:rgb(151,137,110)"/>
<polygon points="2175,541 2230,559 2141,454" style="fill:rgb(168,159,123)"/>
<polygon points="2239,581 2199,586 2174,610" style="fill:rgb(80,71,66)"/>
<polygon points="973,1701 1675,1701 1143,1532" style="fill:rgb(64,60,56)"/>
<polygon points="1783,1438 2178,1379 1932,1302" style="fill:rgb(59,56,56)"/>
<polygon points="343,1300 323,1443 527,1448" style="fill:rgb(76,72,68)"/>
<polygon points="146,1278 323,1443 343,1300" style="fill:rgb(75,70,65)"/>
<polygon points="2239,581 2230,559 2199,586" style="fill:rgb(116,102,85)"/>
<polygon points="2199,586 2230,559 2175,541" style="fill:rgb(159,146,115)"/>
<polygon points="2331,666 2174,610 2135,660" style="fill:rgb(59,56,57)"/>
<polygon points="2331,666 2135,660 2123,829" style="fill:rgb(59,56,57)"/>
<polygon points="2060,107 1954,126 1990,177" style="fill:rgb(97,105,91)"/>
<polygon points="2043,77 1969,0 1936,107" style="fill:rgb(152,146,119)"/>
<polygon points="1854,9 1969,0 1448,0" style="fill:rgb(137,121,97)"/>
<polygon points="1990,177 2030,263 2097,150" style="fill:rgb(116,115,96)"/>
<polygon points="2030,263 2087,283 2112,166" style="fill:rgb(145,135,111)"/>
<polygon points="2097,150 2030,263 2112,166" style="fill:rgb(133,125,100)"/>
<polygon points="323,1443 469,1657 527,1448" style="fill:rgb(80,76,69)"/>
<polygon points="676,1643 452,1701 882,1701" style="fill:rgb(92,81,70)"/>
<polygon points="2060,107 2043,77 1954,126" style="fill:rgb(78,75,71)"/>
<polygon points="2087,283 2141,454 2271,344" style="fill:rgb(160,149,119)"/>
<polygon points="2060,107 2237,52 2043,77" style="fill:rgb(67,63,61)"/>
<polygon points="225,66 202,180 389,110" style="fill:rgb(134,125,108)"/>
<polygon points="389,110 202,180 417,191" style="fill:rgb(141,133,114)"/>
<polygon points="0,700 168,674 157,601" style="fill:rgb(109,98,86)"/>
<polygon points="2271,344 2141,454 2230,559" style="fill:rgb(168,159,121)"/>
<polygon points="2097,150 2214,131 2060,107" style="fill:rgb(95,99,91)"/>
<polygon points="0,1113 227,1135 205,1033" style="fill:rgb(72,66,62)"/>
<polygon points="227,1135 146,1278 343,1300" style="fill:rgb(66,64,62)"/>
<polygon points="246,1656 452,1701 469,1657" style="fill:rgb(74,67,61)"/>
<polygon points="254,9 1343,20 1394,9" style="fill:rgb(150,140,117)"/>
<polygon points="413,93 255,46 389,110" style="fill:rgb(72,67,64)"/>
<polygon points="0,700 157,601 0,537" style="fill:rgb(119,104,90)"/>
<polygon points="129,787 0,1113 205,1033" style="fill:rgb(73,67,64)"/>
<polygon points="0,537 157,601 167,498" style="fill:rgb(135,121,105)"/>
<polygon points="246,1656 469,1657 323,1443" style="fill:rgb(71,66,63)"/>
<polygon points="469,1657 452,1701 676,1643" style="fill:rgb(88,79,70)"/>
<polygon points="51,313 347,291 202,180" style="fill:rgb(144,138,118)"/>
<polygon points="51,313 37,446 167,498" style="fill:rgb(153,137,102)"/>
<polygon points="255,46 225,66 389,110" style="fill:rgb(87,80,73)"/>
<polygon points="2419,714 2331,666 2419,877" style="fill:rgb(62,60,59)"/>
<polygon points="2239,581 2380,516 2230,559" style="fill:rgb(161,152,118)"/>
<polygon points="37,446 0,537 167,498" style="fill:rgb(132,117,97)"/>
<polygon points="1448,0 254,9 1394,9" style="fill:rgb(143,130,107)"/>
<polygon points="255,46 200,0 225,66" style="fill:rgb(80,72,67)"/>
<polygon points="2331,666 2336,646 2239,581" style="fill:rgb(83,78,73)"/>
<polygon points="2330,1677 2178,1379 1783,1438" style="fill:rgb(59,55,53)"/>
<polygon points="1932,1302 2178,1379 2123,829" style="fill:rgb(59,56,57)"/>
<polygon points="2403,592 2352,616 2419,649" style="fill:rgb(134,121,100)"/>
<polygon points="2380,516 2271,344 2230,559" style="fill:rgb(167,159,121)"/>
<polygon points="2112,166 2214,131 2097,150" style="fill:rgb(128,118,94)"/>
<polygon points="0,225 51,313 202,180" style="fill:rgb(144,139,119)"/>
<polygon points="37,446 0,225 0,537" style="fill:rgb(139,125,104)"/>
<polygon points="92,33 202,180 225,66" style="fill:rgb(134,120,104)"/>
<polygon points="2352,616 2336,646 2419,649" style="fill:rgb(126,113,96)"/>
<polygon points="2336,646 2352,616 2239,581" style="fill:rgb(135,123,101)"/>
<polygon points="0,775 0,1113 129,787" style="fill:rgb(72,66,62)"/>
<polygon points="146,1278 246,1656 323,1443" style="fill:rgb(69,66,63)"/>
<polygon points="1448,0 200,0 254,9" style="fill:rgb(132,118,99)"/>
<polygon points="254,9 200,0 255,46" style="fill:rgb(116,105,91)"/>
<polygon points="2277,169 2087,283 2271,344" style="fill:rgb(159,149,120)"/>
<polygon points="2277,169 2112,166 2087,283" style="fill:rgb(155,144,115)"/>
<polygon points="2043,77 2251,36 1969,0" style="fill:rgb(137,126,107)"/>
<polygon points="2403,592 2380,516 2352,616" style="fill:rgb(145,135,107)"/>
<polygon points="2352,616 2380,516 2239,581" style="fill:rgb(155,145,112)"/>
<polygon points="2419,649 2336,646 2331,666" style="fill:rgb(85,79,73)"/>
<polygon points="2419,877 2331,666 2123,829" style="fill:rgb(60,57,57)"/>
<polygon points="2178,1379 2419,877 2123,829" style="fill:rgb(59,55,55)"/>
<polygon points="2419,714 2419,649 2331,666" style="fill:rgb(74,70,66)"/>
<polygon points="200,0 154,0 225,66" style="fill:rgb(82,75,68)"/>
<polygon points="2379,316 2277,169 2271,344" style="fill:rgb(153,142,115)"/>
<polygon points="2291,128 2277,169 2419,143" style="fill:rgb(139,123,104)"/>
<polygon points="0,1701 246,1656 146,1278" style="fill:rgb(66,64,62)"/>
<polygon points="11,152 0,225 202,180" style="fill:rgb(137,121,105)"/>
<polygon points="51,313 0,225 37,446" style="fill:rgb(139,127,106)"/>
<polygon points="2291,128 2237,52 2214,131" style="fill:rgb(94,96,89)"/>
<polygon points="2214,131 2237,52 2060,107" style="fill:rgb(88,93,87)"/>
<polygon points="154,0 92,33 225,66" style="fill:rgb(124,111,97)"/>
<polygon points="2379,316 2271,344 2380,516" style="fill:rgb(160,150,119)"/>
<polygon points="2277,169 2291,128 2214,131" style="fill:rgb(135,122,103)"/>
<polygon points="2379,316 2380,516 2403,592" style="fill:rgb(142,133,108)"/>
<polygon points="2419,143 2379,316 2403,592" style="fill:rgb(143,130,107)"/>
<polygon points="92,33 11,152 202,180" style="fill:rgb(131,115,100)"/>
<polygon points="2305,70 2237,52 2291,128" style="fill:rgb(85,86,81)"/>
<polygon points="2305,70 2251,36 2237,52" style="fill:rgb(96,89,79)"/>
<polygon points="2237,52 2251,36 2043,77" style="fill:rgb(100,89,78)"/>
<polygon points="2419,106 2305,70 2291,128" style="fill:rgb(97,92,82)"/>
<polygon points="154,0 0,0 92,33" style="fill:rgb(124,108,93)"/>
<polygon points="92,33 0,0 11,152" style="fill:rgb(122,106,92)"/>
<polygon points="11,152 0,0 0,225" style="fill:rgb(135,118,101)"/>
<polygon points="2419,649 2419,143 2403,592" style="fill:rgb(152,140,110)"/>
<polygon points="2379,316 2419,143 2277,169" style="fill:rgb(149,134,110)"/>
<polygon points="2419,106 2383,50 2305,70" style="fill:rgb(81,73,67)"/>
<polygon points="2305,70 2383,50 2251,36" style="fill:rgb(89,79,71)"/>
<polygon points="2251,36 2419,0 1969,0" style="fill:rgb(137,127,108)"/>
<polygon points="2419,143 2419,106 2291,128" style="fill:rgb(123,109,94)"/>
<polygon points="2419,106 2419,52 2383,50" style="fill:rgb(80,70,63)"/>
<polygon points="2383,50 2419,0 2251,36" style="fill:rgb(124,111,91)"/>
<polygon points="2330,1677 2419,1495 2178,1379" style="fill:rgb(60,55,53)"/>
<polygon points="2178,1379 2419,1495 2419,877" style="fill:rgb(58,54,53)"/>
<polygon points="2419,52 2419,0 2383,50" style="fill:rgb(117,101,82)"/>
<polygon points="1675,1701 2330,1677 1783,1438" style="fill:rgb(61,56,53)"/>
<polygon points="0,1113 0,1701 146,1278" style="fill:rgb(67,63,60)"/>
<polygon points="246,1656 0,1701 452,1701" style="fill:rgb(78,70,63)"/>
<polygon points="1675,1701 2415,1701 2330,1677" style="fill:rgb(66,60,56)"/>
<polygon points="2330,1677 2415,1701 2419,1495" style="fill:rgb(63,57,54)"/>
<polygon points="2415,1701 2419,1701 2419,1495" style="fill:rgb(90,79,69)"/>
</svg>