<?xml version="1.0"?>
<svg width="1013" height="841"
     xmlns="http://www.w3.org/2000/svg"
     shape-rendering="crispEdges">
<polygon points="513,410 528,423 515,388" style="fill:rgb(65,37,15)"/>
<polygon points="528,423 559,406 515,388" style="fill:rgb(84,47,22)"/>
<polygon points="528,423 547,427 559,406" style="fill:rgb(67,38,15)"/>
<polygon points="559,406 546,369 515,388" style="fill:rgb(93,51,24)"/>
<polygon points="559,406 566,383 546,369" style="fill:rgb(82,49,24)"/>
<polygon points="566,383 555,364 546,369" style="fill:rgb(57,37,12)"/>
<polygon points="547,427 576,414 559,406" style="fill:rgb(43,28,14)"/>
<polygon points="559,406 576,414 566,383" style="fill:rgb(52,32,15)"/>
<polygon points="508,479 561,440 547,427" style="fill:rgb(89,56,23)"/>
<polygon points="547,427 561,440 576,414" style="fill:rgb(87,50,22)"/>
<polygon points="555,364 542,348 546,369" style="fill:rgb(74,52,21)"/>
<polygon points="546,369 542,348 515,388" style="fill:rgb(85,50,22)"/>
<polygon points="478,355 476,385 515,388" style="fill:rgb(80,53,23)"/>
<polygon points="515,388 476,385 513,410" style="fill:rgb(88,57,24)"/>
<polygon points="513,410 466,445 528,423" style="fill:rgb(108,67,28)"/>
<polygon points="561,440 595,412 576,414" style="fill:rgb(91,54,23)"/>
<polygon points="576,414 595,412 566,383" style="fill:rgb(85,48,22)"/>
<polygon points="566,383 591,370 555,364" style="fill:rgb(63,39,17)"/>
<polygon points="577,338 539,334 542,348" style="fill:rgb(85,53,24)"/>
<polygon points="595,412 591,370 566,383" style="fill:rgb(76,45,22)"/>
<polygon points="577,338 542,348 555,364" style="fill:rgb(75,50,21)"/>
<polygon points="542,348 478,355 515,388" style="fill:rgb(66,44,20)"/>
<polygon points="494,320 478,355 542,348" style="fill:rgb(84,54,24)"/>
<polygon points="591,370 577,338 555,364" style="fill:rgb(82,50,22)"/>
<polygon points="591,370 587,341 577,338" style="fill:rgb(58,41,20)"/>
<polygon points="453,482 466,445 442,486" style="fill:rgb(96,60,24)"/>
<polygon points="476,385 466,445 513,410" style="fill:rgb(100,67,28)"/>
<polygon points="528,423 508,479 547,427" style="fill:rgb(102,63,27)"/>
<polygon points="466,445 508,479 528,423" style="fill:rgb(108,70,29)"/>
<polygon points="588,300 564,317 577,338" style="fill:rgb(38,28,17)"/>
<polygon points="577,338 564,317 539,334" style="fill:rgb(62,39,20)"/>
<polygon points="539,334 494,320 542,348" style="fill:rgb(83,52,21)"/>
<polygon points="542,249 494,320 539,334" style="fill:rgb(87,54,24)"/>
<polygon points="525,494 564,486 561,440" style="fill:rgb(63,39,17)"/>
<polygon points="561,440 606,490 595,412" style="fill:rgb(77,46,21)"/>
<polygon points="487,496 525,494 508,479" style="fill:rgb(72,43,20)"/>
<polygon points="508,479 525,494 561,440" style="fill:rgb(78,48,21)"/>
<polygon points="462,482 487,496 508,479" style="fill:rgb(108,66,29)"/>
<polygon points="466,445 462,482 508,479" style="fill:rgb(117,73,30)"/>
<polygon points="794,297 588,300 587,341" style="fill:rgb(21,20,18)"/>
<polygon points="587,341 588,300 577,338" style="fill:rgb(34,26,16)"/>
<polygon points="564,317 542,249 539,334" style="fill:rgb(70,43,20)"/>
<polygon points="649,436 587,341 591,370" style="fill:rgb(31,25,16)"/>
<polygon points="548,552 606,490 564,486" style="fill:rgb(59,36,17)"/>
<polygon points="564,486 606,490 561,440" style="fill:rgb(72,41,19)"/>
<polygon points="595,412 649,436 591,370" style="fill:rgb(41,27,15)"/>
<polygon points="548,552 564,486 525,494" style="fill:rgb(63,38,19)"/>
<polygon points="466,445 453,482 462,482" style="fill:rgb(78,49,17)"/>
<polygon points="458,501 480,514 487,496" style="fill:rgb(33,25,17)"/>
<polygon points="408,354 466,445 476,385" style="fill:rgb(107,73,32)"/>
<polygon points="640,469 649,436 595,412" style="fill:rgb(43,28,14)"/>
<polygon points="494,320 426,339 478,355" style="fill:rgb(80,53,22)"/>
<polygon points="478,355 426,339 476,385" style="fill:rgb(91,62,26)"/>
<polygon points="458,501 487,496 462,482" style="fill:rgb(46,31,15)"/>
<polygon points="487,496 510,525 525,494" style="fill:rgb(62,35,16)"/>
<polygon points="365,485 442,486 466,445" style="fill:rgb(131,83,32)"/>
<polygon points="453,482 458,501 462,482" style="fill:rgb(52,33,17)"/>
<polygon points="442,486 458,501 453,482" style="fill:rgb(76,50,22)"/>
<polygon points="606,490 640,469 595,412" style="fill:rgb(70,42,19)"/>
<polygon points="480,514 510,525 487,496" style="fill:rgb(35,25,15)"/>
<polygon points="426,339 408,354 476,385" style="fill:rgb(98,69,29)"/>
<polygon points="428,497 442,504 442,486" style="fill:rgb(130,86,34)"/>
<polygon points="442,486 442,504 458,501" style="fill:rgb(98,69,28)"/>
<polygon points="458,501 470,549 480,514" style="fill:rgb(57,37,18)"/>
<polygon points="470,549 548,552 510,525" style="fill:rgb(28,22,15)"/>
<polygon points="597,239 576,264 588,300" style="fill:rgb(48,32,18)"/>
<polygon points="588,300 576,264 564,317" style="fill:rgb(59,38,17)"/>
<polygon points="494,320 405,284 426,339" style="fill:rgb(89,57,25)"/>
<polygon points="365,485 428,497 442,486" style="fill:rgb(136,86,31)"/>
<polygon points="470,549 510,525 480,514" style="fill:rgb(32,24,17)"/>
<polygon points="510,525 548,552 525,494" style="fill:rgb(38,26,16)"/>
<polygon points="606,490 677,485 640,469" style="fill:rgb(67,40,18)"/>
<polygon points="576,264 542,249 564,317" style="fill:rgb(77,46,21)"/>
<polygon points="442,557 470,549 442,504" style="fill:rgb(54,37,18)"/>
<polygon points="442,504 470,549 458,501" style="fill:rgb(71,46,21)"/>
<polygon points="677,485 693,445 649,436" style="fill:rgb(35,24,15)"/>
<polygon points="649,436 693,445 587,341" style="fill:rgb(25,21,17)"/>
<polygon points="677,485 649,436 640,469" style="fill:rgb(53,31,15)"/>
<polygon points="694,507 677,485 646,574" style="fill:rgb(62,40,18)"/>
<polygon points="542,249 511,236 494,320" style="fill:rgb(89,54,24)"/>
<polygon points="376,308 366,363 408,354" style="fill:rgb(105,71,30)"/>
<polygon points="365,485 410,516 428,497" style="fill:rgb(139,89,33)"/>
<polygon points="428,497 410,516 442,504" style="fill:rgb(91,63,24)"/>
<polygon points="376,308 408,354 426,339" style="fill:rgb(98,68,29)"/>
<polygon points="408,354 366,363 466,445" style="fill:rgb(116,79,33)"/>
<polygon points="511,236 483,236 494,320" style="fill:rgb(92,56,25)"/>
<polygon points="613,218 597,239 588,300" style="fill:rgb(31,24,18)"/>
<polygon points="576,264 566,220 542,249" style="fill:rgb(73,44,20)"/>
<polygon points="542,249 522,204 511,236" style="fill:rgb(74,44,21)"/>
<polygon points="483,236 405,284 494,320" style="fill:rgb(93,57,25)"/>
<polygon points="432,555 442,557 442,504" style="fill:rgb(65,42,19)"/>
<polygon points="470,549 458,593 548,552" style="fill:rgb(25,21,15)"/>
<polygon points="394,536 416,541 410,516" style="fill:rgb(62,43,17)"/>
<polygon points="410,516 416,541 442,504" style="fill:rgb(74,50,23)"/>
<polygon points="405,284 376,308 426,339" style="fill:rgb(86,57,26)"/>
<polygon points="597,239 566,220 576,264" style="fill:rgb(61,37,18)"/>
<polygon points="511,236 478,213 483,236" style="fill:rgb(75,45,21)"/>
<polygon points="416,541 432,555 442,504" style="fill:rgb(46,33,17)"/>
<polygon points="366,363 365,485 466,445" style="fill:rgb(125,84,34)"/>
<polygon points="694,507 711,472 677,485" style="fill:rgb(42,29,15)"/>
<polygon points="677,485 711,472 693,445" style="fill:rgb(35,24,16)"/>
<polygon points="794,297 613,218 588,300" style="fill:rgb(21,19,18)"/>
<polygon points="352,319 344,378 366,363" style="fill:rgb(90,63,26)"/>
<polygon points="366,363 355,479 365,485" style="fill:rgb(104,71,29)"/>
<polygon points="646,574 677,485 606,490" style="fill:rgb(58,36,17)"/>
<polygon points="365,485 394,536 410,516" style="fill:rgb(134,87,33)"/>
<polygon points="416,541 402,553 432,555" style="fill:rgb(44,33,14)"/>
<polygon points="344,378 355,479 366,363" style="fill:rgb(94,65,28)"/>
<polygon points="365,485 384,540 394,536" style="fill:rgb(114,77,31)"/>
<polygon points="522,204 478,213 511,236" style="fill:rgb(79,45,22)"/>
<polygon points="483,236 403,202 405,284" style="fill:rgb(95,57,26)"/>
<polygon points="344,303 352,319 376,308" style="fill:rgb(84,55,25)"/>
<polygon points="597,239 584,211 566,220" style="fill:rgb(44,29,15)"/>
<polygon points="566,220 522,204 542,249" style="fill:rgb(75,45,21)"/>
<polygon points="613,218 584,211 597,239" style="fill:rgb(49,30,17)"/>
<polygon points="547,183 522,204 566,220" style="fill:rgb(45,31,15)"/>
<polygon points="612,192 613,218 652,165" style="fill:rgb(37,27,17)"/>
<polygon points="344,303 376,308 359,274" style="fill:rgb(78,53,23)"/>
<polygon points="376,308 352,319 366,363" style="fill:rgb(88,58,25)"/>
<polygon points="389,555 402,553 394,536" style="fill:rgb(42,33,16)"/>
<polygon points="394,536 402,553 416,541" style="fill:rgb(37,30,17)"/>
<polygon points="416,580 458,593 442,557" style="fill:rgb(33,24,15)"/>
<polygon points="334,309 332,383 344,378" style="fill:rgb(137,87,33)"/>
<polygon points="344,378 339,465 355,479" style="fill:rgb(111,76,33)"/>
<polygon points="332,383 330,397 344,378" style="fill:rgb(135,87,33)"/>
<polygon points="374,545 384,540 346,519" style="fill:rgb(90,64,25)"/>
<polygon points="330,397 339,465 344,378" style="fill:rgb(123,81,33)"/>
<polygon points="355,479 346,519 365,485" style="fill:rgb(90,65,25)"/>
<polygon points="657,607 646,574 609,649" style="fill:rgb(55,34,16)"/>
<polygon points="548,552 646,574 606,490" style="fill:rgb(49,32,15)"/>
<polygon points="416,580 442,557 432,555" style="fill:rgb(71,49,22)"/>
<polygon points="442,557 458,593 470,549" style="fill:rgb(29,23,15)"/>
<polygon points="613,218 592,200 584,211" style="fill:rgb(57,34,18)"/>
<polygon points="584,211 547,183 566,220" style="fill:rgb(45,30,16)"/>
<polygon points="384,540 389,555 394,536" style="fill:rgb(78,55,23)"/>
<polygon points="402,553 416,580 432,555" style="fill:rgb(91,58,27)"/>
<polygon points="374,545 389,555 384,540" style="fill:rgb(61,45,21)"/>
<polygon points="306,414 323,418 330,397" style="fill:rgb(138,88,33)"/>
<polygon points="330,397 323,418 339,465" style="fill:rgb(140,87,33)"/>
<polygon points="324,442 335,478 339,465" style="fill:rgb(151,92,30)"/>
<polygon points="339,465 335,478 355,479" style="fill:rgb(120,82,32)"/>
<polygon points="359,274 376,308 405,284" style="fill:rgb(71,47,21)"/>
<polygon points="352,319 334,309 344,378" style="fill:rgb(109,73,31)"/>
<polygon points="299,395 306,414 330,397" style="fill:rgb(143,90,33)"/>
<polygon points="323,418 324,442 339,465" style="fill:rgb(159,95,25)"/>
<polygon points="389,555 416,580 402,553" style="fill:rgb(41,29,16)"/>
<polygon points="346,519 384,540 365,485" style="fill:rgb(90,64,27)"/>
<polygon points="389,555 363,616 416,580" style="fill:rgb(43,30,16)"/>
<polygon points="392,205 359,274 405,284" style="fill:rgb(66,44,20)"/>
<polygon points="592,200 547,183 584,211" style="fill:rgb(67,40,18)"/>
<polygon points="522,204 474,180 478,213" style="fill:rgb(91,55,26)"/>
<polygon points="330,298 334,309 344,303" style="fill:rgb(139,93,35)"/>
<polygon points="344,303 334,309 352,319" style="fill:rgb(106,72,31)"/>
<polygon points="657,607 669,575 646,574" style="fill:rgb(53,32,17)"/>
<polygon points="646,574 669,575 694,507" style="fill:rgb(67,39,19)"/>
<polygon points="694,507 763,498 711,472" style="fill:rgb(47,31,14)"/>
<polygon points="329,508 355,479 335,478" style="fill:rgb(129,85,32)"/>
<polygon points="329,508 346,519 355,479" style="fill:rgb(105,74,29)"/>
<polygon points="613,218 612,192 592,200" style="fill:rgb(38,27,17)"/>
<polygon points="592,200 545,148 547,183" style="fill:rgb(77,46,22)"/>
<polygon points="652,165 613,218 794,297" style="fill:rgb(22,20,19)"/>
<polygon points="340,533 367,551 374,545" style="fill:rgb(70,50,20)"/>
<polygon points="374,545 367,551 389,555" style="fill:rgb(57,46,22)"/>
<polygon points="323,418 304,441 324,442" style="fill:rgb(185,109,25)"/>
<polygon points="310,490 329,508 335,478" style="fill:rgb(179,104,26)"/>
<polygon points="299,395 330,397 332,383" style="fill:rgb(153,93,31)"/>
<polygon points="345,271 330,298 344,303" style="fill:rgb(129,87,32)"/>
<polygon points="296,375 299,395 332,383" style="fill:rgb(167,94,28)"/>
<polygon points="483,155 474,180 522,204" style="fill:rgb(55,35,16)"/>
<polygon points="478,213 403,202 483,236" style="fill:rgb(81,47,21)"/>
<polygon points="356,201 345,271 359,274" style="fill:rgb(111,76,32)"/>
<polygon points="359,274 345,271 344,303" style="fill:rgb(99,66,28)"/>
<polygon points="310,490 335,478 324,442" style="fill:rgb(182,106,24)"/>
<polygon points="346,519 340,533 374,545" style="fill:rgb(105,77,31)"/>
<polygon points="306,414 304,441 323,418" style="fill:rgb(178,106,27)"/>
<polygon points="329,508 340,533 346,519" style="fill:rgb(118,84,33)"/>
<polygon points="296,375 332,383 334,309" style="fill:rgb(186,110,27)"/>
<polygon points="306,414 286,416 304,441" style="fill:rgb(153,89,28)"/>
<polygon points="416,580 433,614 458,593" style="fill:rgb(52,30,17)"/>
<polygon points="609,649 646,574 548,552" style="fill:rgb(41,28,15)"/>
<polygon points="363,616 433,614 416,580" style="fill:rgb(26,22,15)"/>
<polygon points="363,616 389,555 367,551" style="fill:rgb(31,26,15)"/>
<polygon points="474,180 403,202 478,213" style="fill:rgb(91,55,25)"/>
<polygon points="302,310 296,375 334,309" style="fill:rgb(190,116,29)"/>
<polygon points="299,395 286,416 306,414" style="fill:rgb(149,89,30)"/>
<polygon points="547,658 548,552 458,593" style="fill:rgb(23,20,17)"/>
<polygon points="669,575 698,577 694,507" style="fill:rgb(43,28,16)"/>
<polygon points="676,604 698,577 669,575" style="fill:rgb(53,35,16)"/>
<polygon points="320,546 340,546 340,533" style="fill:rgb(104,71,30)"/>
<polygon points="304,441 310,490 324,442" style="fill:rgb(186,113,26)"/>
<polygon points="394,189 392,205 403,202" style="fill:rgb(74,45,23)"/>
<polygon points="403,202 392,205 405,284" style="fill:rgb(78,48,22)"/>
<polygon points="313,512 340,533 329,508" style="fill:rgb(148,95,32)"/>
<polygon points="340,533 340,546 367,551" style="fill:rgb(61,49,22)"/>
<polygon points="310,490 313,512 329,508" style="fill:rgb(161,93,26)"/>
<polygon points="657,607 676,604 669,575" style="fill:rgb(50,31,14)"/>
<polygon points="267,399 286,416 299,395" style="fill:rgb(161,96,31)"/>
<polygon points="304,441 286,469 310,490" style="fill:rgb(162,97,29)"/>
<polygon points="310,490 285,512 313,512" style="fill:rgb(150,93,31)"/>
<polygon points="698,577 763,498 694,507" style="fill:rgb(62,37,18)"/>
<polygon points="814,446 807,384 693,445" style="fill:rgb(26,23,17)"/>
<polygon points="799,480 763,498 799,530" style="fill:rgb(54,33,16)"/>
<polygon points="295,265 302,310 330,298" style="fill:rgb(188,113,29)"/>
<polygon points="330,298 302,310 334,309" style="fill:rgb(179,105,26)"/>
<polygon points="296,375 279,379 299,395" style="fill:rgb(174,104,30)"/>
<polygon points="295,265 330,298 345,271" style="fill:rgb(161,96,28)"/>
<polygon points="547,183 483,155 522,204" style="fill:rgb(44,29,16)"/>
<polygon points="402,168 394,189 403,202" style="fill:rgb(85,50,24)"/>
<polygon points="545,148 483,155 547,183" style="fill:rgb(71,41,20)"/>
<polygon points="568,123 545,148 592,200" style="fill:rgb(32,25,17)"/>
<polygon points="402,168 403,202 474,180" style="fill:rgb(89,55,24)"/>
<polygon points="392,205 373,199 359,274" style="fill:rgb(86,59,26)"/>
<polygon points="286,416 283,450 304,441" style="fill:rgb(162,97,29)"/>
<polygon points="252,367 279,379 296,375" style="fill:rgb(186,125,52)"/>
<polygon points="286,416 264,412 283,450" style="fill:rgb(187,114,30)"/>
<polygon points="283,450 286,469 304,441" style="fill:rgb(166,100,30)"/>
<polygon points="472,678 547,658 458,593" style="fill:rgb(23,21,17)"/>
<polygon points="657,607 663,636 676,604" style="fill:rgb(64,41,19)"/>
<polygon points="394,189 373,199 392,205" style="fill:rgb(70,48,21)"/>
<polygon points="297,538 320,546 313,512" style="fill:rgb(136,86,32)"/>
<polygon points="313,512 320,546 340,533" style="fill:rgb(131,83,31)"/>
<polygon points="340,546 324,556 367,551" style="fill:rgb(85,76,34)"/>
<polygon points="547,658 609,649 548,552" style="fill:rgb(27,22,16)"/>
<polygon points="297,538 324,556 320,546" style="fill:rgb(101,77,33)"/>
<polygon points="320,546 324,556 340,546" style="fill:rgb(86,71,27)"/>
<polygon points="794,297 587,341 693,445" style="fill:rgb(21,19,18)"/>
<polygon points="612,192 568,123 592,200" style="fill:rgb(36,26,17)"/>
<polygon points="609,649 634,645 657,607" style="fill:rgb(51,31,15)"/>
<polygon points="264,412 267,399 247,390" style="fill:rgb(188,122,42)"/>
<polygon points="279,379 267,399 299,395" style="fill:rgb(156,97,32)"/>
<polygon points="283,450 262,451 286,469" style="fill:rgb(190,124,40)"/>
<polygon points="351,176 373,199 394,189" style="fill:rgb(79,54,23)"/>
<polygon points="351,176 356,201 373,199" style="fill:rgb(89,62,26)"/>
<polygon points="373,199 356,201 359,274" style="fill:rgb(100,70,31)"/>
<polygon points="483,155 402,168 474,180" style="fill:rgb(90,55,25)"/>
<polygon points="634,645 663,636 657,607" style="fill:rgb(63,39,17)"/>
<polygon points="770,603 774,585 698,577" style="fill:rgb(58,36,17)"/>
<polygon points="472,678 545,670 547,658" style="fill:rgb(48,34,15)"/>
<polygon points="547,658 545,670 609,649" style="fill:rgb(54,35,17)"/>
<polygon points="609,649 620,684 634,645" style="fill:rgb(54,33,16)"/>
<polygon points="267,399 264,412 286,416" style="fill:rgb(185,106,22)"/>
<polygon points="316,225 311,248 345,271" style="fill:rgb(141,90,33)"/>
<polygon points="302,310 252,367 296,375" style="fill:rgb(193,130,53)"/>
<polygon points="286,469 285,512 310,490" style="fill:rgb(164,99,31)"/>
<polygon points="262,496 285,512 286,469" style="fill:rgb(194,130,45)"/>
<polygon points="814,446 693,445 711,472" style="fill:rgb(35,26,15)"/>
<polygon points="285,512 297,538 313,512" style="fill:rgb(140,91,33)"/>
<polygon points="270,569 363,616 324,556" style="fill:rgb(22,21,17)"/>
<polygon points="324,556 363,616 367,551" style="fill:rgb(24,22,17)"/>
<polygon points="433,614 472,678 458,593" style="fill:rgb(28,22,16)"/>
<polygon points="311,248 295,265 345,271" style="fill:rgb(155,93,31)"/>
<polygon points="247,390 251,418 264,412" style="fill:rgb(196,142,71)"/>
<polygon points="799,530 763,498 774,585" style="fill:rgb(62,38,17)"/>
<polygon points="763,498 799,480 711,472" style="fill:rgb(48,31,15)"/>
<polygon points="264,412 262,451 283,450" style="fill:rgb(194,131,39)"/>
<polygon points="807,384 794,297 693,445" style="fill:rgb(23,21,18)"/>
<polygon points="590,112 568,123 612,192" style="fill:rgb(51,33,18)"/>
<polygon points="545,148 514,121 483,155" style="fill:rgb(71,44,22)"/>
<polygon points="483,155 460,111 402,168" style="fill:rgb(83,52,24)"/>
<polygon points="307,206 316,225 356,201" style="fill:rgb(109,75,31)"/>
<polygon points="356,201 316,225 345,271" style="fill:rgb(125,83,33)"/>
<polygon points="311,248 279,252 295,265" style="fill:rgb(156,94,29)"/>
<polygon points="568,123 514,121 545,148" style="fill:rgb(36,28,17)"/>
<polygon points="799,480 814,446 711,472" style="fill:rgb(38,28,14)"/>
<polygon points="247,390 267,399 279,379" style="fill:rgb(156,95,30)"/>
<polygon points="264,412 251,418 262,451" style="fill:rgb(197,148,87)"/>
<polygon points="418,674 472,678 433,614" style="fill:rgb(25,21,17)"/>
<polygon points="237,329 252,367 302,310" style="fill:rgb(194,131,43)"/>
<polygon points="252,367 247,390 279,379" style="fill:rgb(162,97,32)"/>
<polygon points="285,512 280,538 297,538" style="fill:rgb(129,97,39)"/>
<polygon points="262,451 262,496 286,469" style="fill:rgb(195,135,44)"/>
<polygon points="234,465 262,496 262,451" style="fill:rgb(195,149,78)"/>
<polygon points="235,430 262,451 251,418" style="fill:rgb(197,149,97)"/>
<polygon points="270,527 280,538 285,512" style="fill:rgb(141,99,38)"/>
<polygon points="297,538 277,553 324,556" style="fill:rgb(70,62,29)"/>
<polygon points="361,151 394,189 402,168" style="fill:rgb(55,38,20)"/>
<polygon points="361,151 351,176 394,189" style="fill:rgb(72,48,21)"/>
<polygon points="265,516 270,527 285,512" style="fill:rgb(157,101,33)"/>
<polygon points="262,496 265,516 285,512" style="fill:rgb(185,113,31)"/>
<polygon points="652,165 590,112 612,192" style="fill:rgb(30,25,18)"/>
<polygon points="568,123 520,97 514,121" style="fill:rgb(53,36,20)"/>
<polygon points="418,689 474,689 472,678" style="fill:rgb(61,45,19)"/>
<polygon points="472,678 474,689 545,670" style="fill:rgb(59,41,17)"/>
<polygon points="774,585 763,498 698,577" style="fill:rgb(66,40,18)"/>
<polygon points="870,484 866,449 814,446" style="fill:rgb(29,24,15)"/>
<polygon points="274,234 279,252 311,248" style="fill:rgb(140,91,35)"/>
<polygon points="235,312 237,329 302,310" style="fill:rgb(193,128,42)"/>
<polygon points="274,234 311,248 316,225" style="fill:rgb(132,87,35)"/>
<polygon points="545,670 620,684 609,649" style="fill:rgb(64,40,18)"/>
<polygon points="634,645 668,698 663,636" style="fill:rgb(78,49,21)"/>
<polygon points="743,630 698,577 676,604" style="fill:rgb(74,46,20)"/>
<polygon points="622,705 620,684 583,716" style="fill:rgb(68,42,19)"/>
<polygon points="363,616 418,674 433,614" style="fill:rgb(22,19,17)"/>
<polygon points="418,683 344,694 386,717" style="fill:rgb(89,65,28)"/>
<polygon points="270,527 277,553 280,538" style="fill:rgb(97,68,27)"/>
<polygon points="280,538 277,553 297,538" style="fill:rgb(121,88,39)"/>
<polygon points="251,526 277,553 270,527" style="fill:rgb(74,53,24)"/>
<polygon points="520,97 460,111 514,121" style="fill:rgb(75,47,23)"/>
<polygon points="514,121 460,111 483,155" style="fill:rgb(79,49,23)"/>
<polygon points="351,176 307,206 356,201" style="fill:rgb(93,63,28)"/>
<polygon points="233,418 251,418 247,390" style="fill:rgb(196,145,91)"/>
<polygon points="233,418 235,430 251,418" style="fill:rgb(195,141,86)"/>
<polygon points="235,510 251,526 265,516" style="fill:rgb(147,98,38)"/>
<polygon points="265,516 251,526 270,527" style="fill:rgb(131,93,38)"/>
<polygon points="233,418 247,390 228,423" style="fill:rgb(179,123,63)"/>
<polygon points="237,329 247,390 252,367" style="fill:rgb(181,114,37)"/>
<polygon points="743,630 676,604 738,643" style="fill:rgb(58,36,15)"/>
<polygon points="360,122 361,151 402,168" style="fill:rgb(49,33,19)"/>
<polygon points="351,176 298,187 307,206" style="fill:rgb(87,60,26)"/>
<polygon points="588,72 520,97 568,123" style="fill:rgb(50,33,17)"/>
<polygon points="807,384 825,312 794,297" style="fill:rgb(29,25,17)"/>
<polygon points="698,67 636,70 652,165" style="fill:rgb(29,25,17)"/>
<polygon points="636,70 588,72 590,112" style="fill:rgb(38,28,17)"/>
<polygon points="837,367 825,312 807,384" style="fill:rgb(33,27,15)"/>
<polygon points="866,449 807,384 814,446" style="fill:rgb(33,26,15)"/>
<polygon points="866,449 837,367 807,384" style="fill:rgb(38,27,14)"/>
<polygon points="418,689 418,683 386,717" style="fill:rgb(92,66,28)"/>
<polygon points="418,674 418,683 472,678" style="fill:rgb(40,28,14)"/>
<polygon points="235,312 302,310 248,272" style="fill:rgb(191,122,36)"/>
<polygon points="227,431 234,465 235,430" style="fill:rgb(154,99,42)"/>
<polygon points="235,430 234,465 262,451" style="fill:rgb(196,145,79)"/>
<polygon points="237,329 228,423 247,390" style="fill:rgb(162,103,38)"/>
<polygon points="233,418 228,423 235,430" style="fill:rgb(157,97,37)"/>
<polygon points="216,436 227,431 228,423" style="fill:rgb(94,68,36)"/>
<polygon points="228,423 227,431 235,430" style="fill:rgb(142,92,37)"/>
<polygon points="307,206 274,234 316,225" style="fill:rgb(118,79,33)"/>
<polygon points="248,272 302,310 295,265" style="fill:rgb(183,110,31)"/>
<polygon points="263,226 274,234 307,206" style="fill:rgb(111,75,32)"/>
<polygon points="235,510 265,516 262,496" style="fill:rgb(182,117,42)"/>
<polygon points="738,643 676,604 718,666" style="fill:rgb(80,48,21)"/>
<polygon points="340,676 418,674 363,616" style="fill:rgb(21,20,17)"/>
<polygon points="418,683 418,689 472,678" style="fill:rgb(58,41,16)"/>
<polygon points="743,630 770,603 698,577" style="fill:rgb(72,44,20)"/>
<polygon points="797,588 825,538 799,530" style="fill:rgb(34,24,15)"/>
<polygon points="248,272 295,265 279,252" style="fill:rgb(164,95,28)"/>
<polygon points="237,329 229,319 228,423" style="fill:rgb(140,88,33)"/>
<polygon points="242,530 270,569 277,553" style="fill:rgb(38,32,18)"/>
<polygon points="277,553 270,569 324,556" style="fill:rgb(29,27,18)"/>
<polygon points="227,431 227,465 234,465" style="fill:rgb(135,93,44)"/>
<polygon points="234,465 235,510 262,496" style="fill:rgb(193,143,70)"/>
<polygon points="274,234 248,272 279,252" style="fill:rgb(140,89,32)"/>
<polygon points="225,315 229,319 235,312" style="fill:rgb(129,80,32)"/>
<polygon points="235,312 229,319 237,329" style="fill:rgb(156,93,30)"/>
<polygon points="718,666 676,604 663,636" style="fill:rgb(77,49,21)"/>
<polygon points="743,630 749,664 770,603" style="fill:rgb(61,37,18)"/>
<polygon points="583,716 620,684 545,670" style="fill:rgb(73,48,20)"/>
<polygon points="668,698 710,671 663,636" style="fill:rgb(80,50,21)"/>
<polygon points="544,718 545,670 474,689" style="fill:rgb(86,60,25)"/>
<polygon points="473,720 544,718 474,689" style="fill:rgb(91,65,28)"/>
<polygon points="227,465 235,510 234,465" style="fill:rgb(145,94,41)"/>
<polygon points="251,526 242,530 277,553" style="fill:rgb(62,46,22)"/>
<polygon points="309,162 298,187 351,176" style="fill:rgb(76,49,22)"/>
<polygon points="274,234 263,226 248,272" style="fill:rgb(120,79,32)"/>
<polygon points="544,718 583,716 545,670" style="fill:rgb(78,54,23)"/>
<polygon points="236,520 242,530 251,526" style="fill:rgb(74,57,28)"/>
<polygon points="227,431 216,436 227,465" style="fill:rgb(92,66,30)"/>
<polygon points="227,465 227,515 235,510" style="fill:rgb(118,84,40)"/>
<polygon points="215,307 216,436 228,423" style="fill:rgb(75,50,23)"/>
<polygon points="230,296 225,315 235,312" style="fill:rgb(122,77,31)"/>
<polygon points="229,319 225,315 228,423" style="fill:rgb(114,75,33)"/>
<polygon points="227,515 236,520 235,510" style="fill:rgb(113,78,36)"/>
<polygon points="235,510 236,520 251,526" style="fill:rgb(110,79,33)"/>
<polygon points="797,588 799,530 774,585" style="fill:rgb(55,35,18)"/>
<polygon points="799,530 825,538 799,480" style="fill:rgb(38,25,14)"/>
<polygon points="797,588 774,585 770,603" style="fill:rgb(47,30,16)"/>
<polygon points="239,268 230,296 248,272" style="fill:rgb(125,79,30)"/>
<polygon points="248,272 230,296 235,312" style="fill:rgb(153,90,28)"/>
<polygon points="668,698 634,645 620,684" style="fill:rgb(63,39,17)"/>
<polygon points="298,187 263,226 307,206" style="fill:rgb(97,67,29)"/>
<polygon points="710,671 718,666 663,636" style="fill:rgb(56,36,14)"/>
<polygon points="749,664 797,588 770,603" style="fill:rgb(33,25,16)"/>
<polygon points="749,664 743,630 738,643" style="fill:rgb(66,40,18)"/>
<polygon points="263,226 239,268 248,272" style="fill:rgb(113,75,33)"/>
<polygon points="216,436 216,461 227,465" style="fill:rgb(75,55,24)"/>
<polygon points="437,718 473,720 474,689" style="fill:rgb(100,72,31)"/>
<polygon points="683,707 668,698 622,705" style="fill:rgb(49,29,14)"/>
<polygon points="622,705 668,698 620,684" style="fill:rgb(71,42,20)"/>
<polygon points="710,671 711,687 718,666" style="fill:rgb(48,33,19)"/>
<polygon points="216,461 227,515 227,465" style="fill:rgb(81,57,26)"/>
<polygon points="236,520 215,527 242,530" style="fill:rgb(47,34,15)"/>
<polygon points="242,530 215,527 270,569" style="fill:rgb(32,27,17)"/>
<polygon points="361,151 309,162 351,176" style="fill:rgb(70,45,20)"/>
<polygon points="298,187 252,216 263,226" style="fill:rgb(78,53,24)"/>
<polygon points="360,122 309,162 361,151" style="fill:rgb(59,40,19)"/>
<polygon points="460,111 360,122 402,168" style="fill:rgb(63,39,20)"/>
<polygon points="336,87 360,122 397,42" style="fill:rgb(72,43,22)"/>
<polygon points="216,436 207,443 216,461" style="fill:rgb(51,33,14)"/>
<polygon points="216,461 215,527 227,515" style="fill:rgb(55,37,18)"/>
<polygon points="215,307 207,443 216,436" style="fill:rgb(46,31,16)"/>
<polygon points="386,717 437,718 418,689" style="fill:rgb(101,74,31)"/>
<polygon points="418,689 437,718 474,689" style="fill:rgb(96,70,29)"/>
<polygon points="227,266 230,296 239,268" style="fill:rgb(77,52,21)"/>
<polygon points="227,266 215,307 230,296" style="fill:rgb(59,39,20)"/>
<polygon points="230,296 215,307 225,315" style="fill:rgb(81,52,22)"/>
<polygon points="225,315 215,307 228,423" style="fill:rgb(90,59,28)"/>
<polygon points="636,70 590,112 652,165" style="fill:rgb(37,27,17)"/>
<polygon points="590,112 588,72 568,123" style="fill:rgb(50,34,17)"/>
<polygon points="520,97 528,58 460,111" style="fill:rgb(65,42,22)"/>
<polygon points="901,351 857,311 837,367" style="fill:rgb(41,30,15)"/>
<polygon points="837,367 857,311 825,312" style="fill:rgb(33,27,16)"/>
<polygon points="825,312 845,233 794,297" style="fill:rgb(29,26,18)"/>
<polygon points="252,216 239,268 263,226" style="fill:rgb(77,52,23)"/>
<polygon points="252,216 227,266 239,268" style="fill:rgb(61,41,19)"/>
<polygon points="870,484 814,446 799,480" style="fill:rgb(37,27,15)"/>
<polygon points="668,698 711,687 710,671" style="fill:rgb(72,45,20)"/>
<polygon points="718,666 749,664 738,643" style="fill:rgb(72,44,18)"/>
<polygon points="344,694 300,710 321,719" style="fill:rgb(56,40,18)"/>
<polygon points="270,569 340,676 363,616" style="fill:rgb(21,19,17)"/>
<polygon points="274,174 252,216 298,187" style="fill:rgb(63,44,21)"/>
<polygon points="711,687 749,664 718,666" style="fill:rgb(33,23,14)"/>
<polygon points="583,716 578,738 622,705" style="fill:rgb(46,32,15)"/>
<polygon points="668,698 683,707 711,687" style="fill:rgb(44,29,14)"/>
<polygon points="544,718 578,738 583,716" style="fill:rgb(50,34,16)"/>
<polygon points="477,738 578,738 544,718" style="fill:rgb(42,31,17)"/>
<polygon points="477,738 544,718 473,720" style="fill:rgb(58,41,16)"/>
<polygon points="602,769 683,707 622,705" style="fill:rgb(23,19,16)"/>
<polygon points="711,687 728,709 749,664" style="fill:rgb(30,23,15)"/>
<polygon points="382,725 477,738 437,718" style="fill:rgb(58,40,18)"/>
<polygon points="437,718 477,738 473,720" style="fill:rgb(62,43,18)"/>
<polygon points="588,72 528,58 520,97" style="fill:rgb(57,39,19)"/>
<polygon points="207,443 215,527 216,461" style="fill:rgb(43,30,17)"/>
<polygon points="227,515 215,527 236,520" style="fill:rgb(69,44,23)"/>
<polygon points="296,140 274,174 309,162" style="fill:rgb(51,36,20)"/>
<polygon points="309,162 274,174 298,187" style="fill:rgb(65,42,20)"/>
<polygon points="825,538 870,484 799,480" style="fill:rgb(27,21,15)"/>
<polygon points="866,449 901,351 837,367" style="fill:rgb(47,33,14)"/>
<polygon points="868,553 870,484 825,538" style="fill:rgb(37,26,14)"/>
<polygon points="868,553 825,538 866,590" style="fill:rgb(30,23,15)"/>
<polygon points="823,195 652,165 794,297" style="fill:rgb(23,21,19)"/>
<polygon points="588,72 586,35 528,58" style="fill:rgb(57,40,19)"/>
<polygon points="344,694 418,683 418,674" style="fill:rgb(52,37,16)"/>
<polygon points="344,694 340,676 300,710" style="fill:rgb(34,27,15)"/>
<polygon points="340,676 344,694 418,674" style="fill:rgb(30,24,16)"/>
<polygon points="336,87 296,140 360,122" style="fill:rgb(43,30,18)"/>
<polygon points="360,122 296,140 309,162" style="fill:rgb(52,35,18)"/>
<polygon points="857,311 845,233 825,312" style="fill:rgb(38,29,15)"/>
<polygon points="845,233 823,195 794,297" style="fill:rgb(29,25,18)"/>
<polygon points="274,174 247,187 252,216" style="fill:rgb(44,31,17)"/>
<polygon points="252,216 247,187 227,266" style="fill:rgb(39,28,17)"/>
<polygon points="227,266 179,284 215,307" style="fill:rgb(31,24,16)"/>
<polygon points="281,117 247,187 274,174" style="fill:rgb(31,25,17)"/>
<polygon points="360,722 382,725 386,717" style="fill:rgb(74,48,20)"/>
<polygon points="386,717 382,725 437,718" style="fill:rgb(82,58,23)"/>
<polygon points="683,707 728,709 711,687" style="fill:rgb(33,24,15)"/>
<polygon points="866,590 825,538 797,588" style="fill:rgb(24,21,16)"/>
<polygon points="733,841 728,709 683,707" style="fill:rgb(20,18,16)"/>
<polygon points="321,719 360,722 344,694" style="fill:rgb(79,58,25)"/>
<polygon points="344,694 360,722 386,717" style="fill:rgb(94,67,27)"/>
<polygon points="330,751 602,769 477,738" style="fill:rgb(31,26,16)"/>
<polygon points="866,590 797,588 882,615" style="fill:rgb(24,20,16)"/>
<polygon points="698,67 586,35 636,70" style="fill:rgb(42,32,18)"/>
<polygon points="636,70 586,35 588,72" style="fill:rgb(49,35,16)"/>
<polygon points="397,42 360,122 460,111" style="fill:rgb(77,47,23)"/>
<polygon points="925,431 901,351 866,449" style="fill:rgb(42,30,14)"/>
<polygon points="857,311 936,250 845,233" style="fill:rgb(40,30,16)"/>
<polygon points="925,431 866,449 870,484" style="fill:rgb(26,23,16)"/>
<polygon points="438,38 460,111 528,58" style="fill:rgb(74,46,23)"/>
<polygon points="296,140 281,117 274,174" style="fill:rgb(35,27,18)"/>
<polygon points="798,112 698,67 652,165" style="fill:rgb(24,23,19)"/>
<polygon points="247,187 179,284 227,266" style="fill:rgb(27,22,17)"/>
<polygon points="215,307 179,284 207,443" style="fill:rgb(28,23,17)"/>
<polygon points="207,443 27,314 215,527" style="fill:rgb(21,19,16)"/>
<polygon points="477,738 602,769 578,738" style="fill:rgb(33,25,16)"/>
<polygon points="578,738 602,769 622,705" style="fill:rgb(29,23,16)"/>
<polygon points="351,741 477,738 382,725" style="fill:rgb(45,32,16)"/>
<polygon points="586,35 438,38 528,58" style="fill:rgb(58,39,20)"/>
<polygon points="336,87 281,117 296,140" style="fill:rgb(33,25,19)"/>
<polygon points="0,86 27,314 179,284" style="fill:rgb(20,17,17)"/>
<polygon points="882,615 797,588 749,664" style="fill:rgb(22,19,17)"/>
<polygon points="964,537 925,431 870,484" style="fill:rgb(25,22,17)"/>
<polygon points="300,710 340,676 276,711" style="fill:rgb(27,24,17)"/>
<polygon points="360,722 351,741 382,725" style="fill:rgb(48,33,15)"/>
<polygon points="438,38 397,42 460,111" style="fill:rgb(76,47,23)"/>
<polygon points="336,87 340,63 281,117" style="fill:rgb(28,22,17)"/>
<polygon points="321,719 351,741 360,722" style="fill:rgb(49,34,15)"/>
<polygon points="276,711 340,676 270,569" style="fill:rgb(20,19,17)"/>
<polygon points="321,719 330,751 351,741" style="fill:rgb(32,25,14)"/>
<polygon points="586,35 419,29 438,38" style="fill:rgb(42,32,19)"/>
<polygon points="438,38 419,29 397,42" style="fill:rgb(48,33,21)"/>
<polygon points="379,0 340,63 397,42" style="fill:rgb(25,21,19)"/>
<polygon points="397,42 340,63 336,87" style="fill:rgb(37,27,17)"/>
<polygon points="835,47 798,112 932,63" style="fill:rgb(27,25,19)"/>
<polygon points="823,195 798,112 652,165" style="fill:rgb(24,22,19)"/>
<polygon points="936,250 823,195 845,233" style="fill:rgb(31,26,18)"/>
<polygon points="910,550 870,484 868,553" style="fill:rgb(26,22,16)"/>
<polygon points="930,363 923,331 901,351" style="fill:rgb(52,37,20)"/>
<polygon points="901,351 923,331 857,311" style="fill:rgb(52,37,18)"/>
<polygon points="925,431 930,363 901,351" style="fill:rgb(48,34,16)"/>
<polygon points="215,527 276,711 270,569" style="fill:rgb(21,20,18)"/>
<polygon points="300,710 330,751 321,719" style="fill:rgb(36,27,14)"/>
<polygon points="905,563 910,550 868,553" style="fill:rgb(28,21,14)"/>
<polygon points="909,606 905,563 866,590" style="fill:rgb(46,29,15)"/>
<polygon points="866,590 905,563 868,553" style="fill:rgb(27,21,15)"/>
<polygon points="276,711 330,751 300,710" style="fill:rgb(29,25,18)"/>
<polygon points="351,741 330,751 477,738" style="fill:rgb(36,28,16)"/>
<polygon points="926,658 882,615 930,725" style="fill:rgb(24,21,15)"/>
<polygon points="909,606 927,564 905,563" style="fill:rgb(83,44,22)"/>
<polygon points="905,563 927,564 910,550" style="fill:rgb(58,34,17)"/>
<polygon points="910,550 964,537 870,484" style="fill:rgb(28,22,16)"/>
<polygon points="997,504 969,312 930,363" style="fill:rgb(30,25,16)"/>
<polygon points="926,658 909,606 882,615" style="fill:rgb(30,23,15)"/>
<polygon points="882,615 909,606 866,590" style="fill:rgb(48,32,14)"/>
<polygon points="969,312 923,331 930,363" style="fill:rgb(37,28,17)"/>
<polygon points="969,312 936,250 923,331" style="fill:rgb(37,27,16)"/>
<polygon points="923,331 936,250 857,311" style="fill:rgb(49,35,16)"/>
<polygon points="586,35 379,0 419,29" style="fill:rgb(30,26,19)"/>
<polygon points="419,29 379,0 397,42" style="fill:rgb(26,23,20)"/>
<polygon points="340,63 158,37 281,117" style="fill:rgb(23,20,18)"/>
<polygon points="997,504 930,363 925,431" style="fill:rgb(32,26,17)"/>
<polygon points="1013,587 964,537 927,564" style="fill:rgb(38,26,16)"/>
<polygon points="927,564 964,537 910,550" style="fill:rgb(30,22,16)"/>
<polygon points="932,63 798,112 823,195" style="fill:rgb(25,24,18)"/>
<polygon points="798,112 835,47 698,67" style="fill:rgb(31,26,19)"/>
<polygon points="698,67 835,47 586,35" style="fill:rgb(34,28,18)"/>
<polygon points="586,35 917,0 379,0" style="fill:rgb(28,26,20)"/>
<polygon points="932,63 823,195 936,250" style="fill:rgb(28,24,17)"/>
<polygon points="930,725 882,615 749,664" style="fill:rgb(22,19,17)"/>
<polygon points="909,606 984,628 927,564" style="fill:rgb(28,23,16)"/>
<polygon points="930,725 749,664 728,709" style="fill:rgb(21,19,17)"/>
<polygon points="1013,587 997,504 964,537" style="fill:rgb(26,22,17)"/>
<polygon points="964,537 997,504 925,431" style="fill:rgb(24,22,16)"/>
<polygon points="330,751 733,841 602,769" style="fill:rgb(22,20,17)"/>
<polygon points="602,769 733,841 683,707" style="fill:rgb(19,17,16)"/>
<polygon points="997,504 1013,292 969,312" style="fill:rgb(23,22,18)"/>
<polygon points="969,312 1013,292 936,250" style="fill:rgb(25,22,19)"/>
<polygon points="987,673 984,628 926,658" style="fill:rgb(33,23,15)"/>
<polygon points="926,658 984,628 909,606" style="fill:rgb(26,22,16)"/>
<polygon points="898,825 930,725 728,709" style="fill:rgb(22,20,17)"/>
<polygon points="1013,633 1013,587 984,628" style="fill:rgb(48,31,15)"/>
<polygon points="984,628 1013,587 927,564" style="fill:rgb(30,24,16)"/>
<polygon points="997,504 1013,587 1013,292" style="fill:rgb(26,23,18)"/>
<polygon points="158,37 247,187 281,117" style="fill:rgb(22,19,18)"/>
<polygon points="158,37 179,284 247,187" style="fill:rgb(22,19,18)"/>
<polygon points="179,284 27,314 207,443" style="fill:rgb(20,18,17)"/>
<polygon points="215,527 35,781 276,711" style="fill:rgb(20,18,17)"/>
<polygon points="995,82 932,63 936,250" style="fill:rgb(23,22,19)"/>
<polygon points="379,0 158,37 340,63" style="fill:rgb(23,21,20)"/>
<polygon points="967,724 987,673 926,658" style="fill:rgb(45,28,15)"/>
<polygon points="987,673 1013,633 984,628" style="fill:rgb(45,28,14)"/>
<polygon points="930,725 967,724 926,658" style="fill:rgb(30,23,16)"/>
<polygon points="987,673 1013,667 1013,633" style="fill:rgb(59,38,17)"/>
<polygon points="987,771 967,724 930,725" style="fill:rgb(33,25,16)"/>
<polygon points="0,86 0,308 27,314" style="fill:rgb(20,18,17)"/>
<polygon points="27,314 35,781 215,527" style="fill:rgb(19,17,17)"/>
<polygon points="997,699 1003,681 987,673" style="fill:rgb(67,46,21)"/>
<polygon points="1003,681 1013,667 987,673" style="fill:rgb(75,45,18)"/>
<polygon points="967,724 997,699 987,673" style="fill:rgb(61,40,15)"/>
<polygon points="1003,681 1004,708 1013,667" style="fill:rgb(116,67,26)"/>
<polygon points="1013,730 981,722 1002,747" style="fill:rgb(85,52,22)"/>
<polygon points="981,722 997,699 967,724" style="fill:rgb(93,51,23)"/>
<polygon points="985,4 917,0 932,63" style="fill:rgb(29,27,20)"/>
<polygon points="932,63 917,0 835,47" style="fill:rgb(24,23,20)"/>
<polygon points="835,47 917,0 586,35" style="fill:rgb(27,25,20)"/>
<polygon points="733,841 898,825 728,709" style="fill:rgb(21,19,18)"/>
<polygon points="1013,292 995,82 936,250" style="fill:rgb(22,21,19)"/>
<polygon points="1013,730 1004,708 981,722" style="fill:rgb(122,70,28)"/>
<polygon points="981,722 1004,708 997,699" style="fill:rgb(109,63,25)"/>
<polygon points="997,699 1004,708 1003,681" style="fill:rgb(89,53,21)"/>
<polygon points="1002,747 981,722 967,724" style="fill:rgb(65,41,18)"/>
<polygon points="1004,708 1013,730 1013,667" style="fill:rgb(131,73,28)"/>
<polygon points="987,771 1002,747 967,724" style="fill:rgb(48,31,16)"/>
<polygon points="898,825 987,771 930,725" style="fill:rgb(23,21,17)"/>
<polygon points="1002,747 1013,763 1013,730" style="fill:rgb(65,38,20)"/>
<polygon points="1013,841 1013,763 987,771" style="fill:rgb(25,22,18)"/>
<polygon points="987,771 1013,763 1002,747" style="fill:rgb(47,28,16)"/>
<polygon points="995,82 985,4 932,63" style="fill:rgb(25,24,19)"/>
<polygon points="158,37 0,86 179,284" style="fill:rgb(21,18,17)"/>
<polygon points="995,82 1013,0 985,4" style="fill:rgb(26,26,20)"/>
<polygon points="985,4 1013,0 917,0" style="fill:rgb(40,37,31)"/>
<polygon points="1013,292 1013,0 995,82" style="fill:rgb(24,22,19)"/>
<polygon points="0,308 35,781 27,314" style="fill:rgb(22,20,19)"/>
<polygon points="276,711 30,841 330,751" style="fill:rgb(21,18,17)"/>
<polygon points="330,751 30,841 733,841" style="fill:rgb(21,19,18)"/>
<polygon points="733,841 1013,841 898,825" style="fill:rgb(24,24,18)"/>
<polygon points="898,825 1013,841 987,771" style="fill:rgb(24,22,18)"/>
<polygon points="0,308 12,802 35,781" style="fill:rgb(26,24,22)"/>
<polygon points="35,781 30,841 276,711" style="fill:rgb(20,18,17)"/>
<polygon points="158,37 0,0 0,86" style="fill:rgb(23,21,19)"/>
<polygon points="379,0 0,0 158,37" style="fill:rgb(25,24,20)"/>
<polygon points="12,802 30,841 35,781" style="fill:rgb(24,22,21)"/>
<polygon points="12,802 0,841 30,841" style="fill:rgb(29,27,25)"/>
<polygon points="0,308 0,841 12,802" style="fill:rgb(30,28,28)"/>
</svg>