<?xml version="1.0"?>
<svg width="1308" height="1080"
     xmlns="http://www.w3.org/2000/svg"
     shape-rendering="crispEdges">
<polygon points="665,532 682,571 675,530" style="fill:rgb(113,55,80)"/>
<polygon points="665,532 636,547 682,571" style="fill:rgb(39,19,46)"/>
<polygon points="682,571 714,559 675,530" style="fill:rgb(158,86,114)"/>
<polygon points="714,559 690,497 675,530" style="fill:rgb(214,139,152)"/>
<polygon points="675,530 660,485 665,532" style="fill:rgb(137,69,92)"/>
<polygon points="665,532 660,485 636,547" style="fill:rgb(36,20,45)"/>
<polygon points="690,497 660,485 675,530" style="fill:rgb(230,202,211)"/>
<polygon points="636,547 623,597 682,571" style="fill:rgb(31,25,66)"/>
<polygon points="682,571 835,742 714,559" style="fill:rgb(29,22,66)"/>
<polygon points="690,497 652,473 660,485" style="fill:rgb(199,164,178)"/>
<polygon points="660,485 584,514 636,547" style="fill:rgb(104,110,173)"/>
<polygon points="636,547 569,540 623,597" style="fill:rgb(53,51,107)"/>
<polygon points="714,559 745,496 690,497" style="fill:rgb(222,128,131)"/>
<polygon points="700,366 649,372 652,473" style="fill:rgb(179,75,83)"/>
<polygon points="652,473 584,514 660,485" style="fill:rgb(176,176,209)"/>
<polygon points="584,514 569,540 636,547" style="fill:rgb(71,74,143)"/>
<polygon points="714,559 776,496 745,496" style="fill:rgb(222,130,130)"/>
<polygon points="700,366 652,473 690,497" style="fill:rgb(191,84,78)"/>
<polygon points="871,534 792,484 776,496" style="fill:rgb(59,54,99)"/>
<polygon points="776,496 797,443 745,496" style="fill:rgb(230,148,146)"/>
<polygon points="649,372 604,424 652,473" style="fill:rgb(211,187,204)"/>
<polygon points="652,473 604,424 584,514" style="fill:rgb(190,180,198)"/>
<polygon points="584,514 526,548 569,540" style="fill:rgb(63,68,132)"/>
<polygon points="536,460 526,548 584,514" style="fill:rgb(162,159,197)"/>
<polygon points="569,540 520,605 623,597" style="fill:rgb(29,21,59)"/>
<polygon points="604,424 587,420 584,514" style="fill:rgb(146,125,142)"/>
<polygon points="526,548 520,605 569,540" style="fill:rgb(51,48,104)"/>
<polygon points="792,484 797,443 776,496" style="fill:rgb(81,55,72)"/>
<polygon points="604,424 607,375 587,420" style="fill:rgb(211,218,225)"/>
<polygon points="587,420 536,460 584,514" style="fill:rgb(203,206,229)"/>
<polygon points="700,366 690,497 745,496" style="fill:rgb(217,103,91)"/>
<polygon points="526,548 500,601 520,605" style="fill:rgb(51,49,105)"/>
<polygon points="405,558 500,601 526,548" style="fill:rgb(172,169,213)"/>
<polygon points="786,399 700,366 745,496" style="fill:rgb(231,122,108)"/>
<polygon points="792,484 823,437 797,443" style="fill:rgb(71,41,51)"/>
<polygon points="797,443 786,399 745,496" style="fill:rgb(227,117,111)"/>
<polygon points="626,347 607,375 649,372" style="fill:rgb(182,176,196)"/>
<polygon points="649,372 607,375 604,424" style="fill:rgb(172,165,185)"/>
<polygon points="587,420 556,316 536,460" style="fill:rgb(232,235,242)"/>
<polygon points="828,411 786,399 797,443" style="fill:rgb(215,99,102)"/>
<polygon points="520,605 564,714 623,597" style="fill:rgb(22,15,50)"/>
<polygon points="711,813 835,742 682,571" style="fill:rgb(29,25,76)"/>
<polygon points="714,559 871,534 776,496" style="fill:rgb(35,27,64)"/>
<polygon points="453,719 564,714 520,605" style="fill:rgb(20,11,48)"/>
<polygon points="899,550 871,534 916,577" style="fill:rgb(71,77,134)"/>
<polygon points="792,484 871,534 823,437" style="fill:rgb(181,157,171)"/>
<polygon points="786,399 761,371 700,366" style="fill:rgb(136,52,54)"/>
<polygon points="821,386 761,371 786,399" style="fill:rgb(79,23,30)"/>
<polygon points="862,403 828,411 823,437" style="fill:rgb(95,61,66)"/>
<polygon points="823,437 828,411 797,443" style="fill:rgb(92,49,57)"/>
<polygon points="690,326 626,347 649,372" style="fill:rgb(216,203,221)"/>
<polygon points="607,375 556,316 587,420" style="fill:rgb(224,229,236)"/>
<polygon points="690,326 649,372 700,366" style="fill:rgb(184,127,156)"/>
<polygon points="862,403 821,386 828,411" style="fill:rgb(78,41,48)"/>
<polygon points="828,411 821,386 786,399" style="fill:rgb(219,109,107)"/>
<polygon points="916,577 871,534 921,601" style="fill:rgb(60,59,114)"/>
<polygon points="883,424 862,403 823,437" style="fill:rgb(167,140,151)"/>
<polygon points="693,285 690,326 782,295" style="fill:rgb(201,95,87)"/>
<polygon points="761,371 690,326 700,366" style="fill:rgb(146,73,82)"/>
<polygon points="675,276 609,332 626,347" style="fill:rgb(174,165,184)"/>
<polygon points="626,347 609,332 607,375" style="fill:rgb(156,151,172)"/>
<polygon points="588,793 588,771 579,800" style="fill:rgb(177,129,162)"/>
<polygon points="564,714 588,771 623,597" style="fill:rgb(22,15,55)"/>
<polygon points="883,424 823,437 871,534" style="fill:rgb(167,148,167)"/>
<polygon points="782,295 690,326 761,371" style="fill:rgb(219,114,104)"/>
<polygon points="835,742 871,534 714,559" style="fill:rgb(29,24,72)"/>
<polygon points="899,550 883,424 871,534" style="fill:rgb(181,183,213)"/>
<polygon points="897,385 883,424 946,403" style="fill:rgb(162,173,200)"/>
<polygon points="711,813 682,571 623,597" style="fill:rgb(31,26,77)"/>
<polygon points="835,742 921,601 871,534" style="fill:rgb(41,35,89)"/>
<polygon points="579,800 588,771 497,825" style="fill:rgb(201,153,180)"/>
<polygon points="588,771 711,813 623,597" style="fill:rgb(23,16,64)"/>
<polygon points="588,793 615,805 588,771" style="fill:rgb(43,27,66)"/>
<polygon points="607,231 556,316 609,332" style="fill:rgb(202,208,222)"/>
<polygon points="609,332 556,316 607,375" style="fill:rgb(196,202,216)"/>
<polygon points="407,513 405,558 526,548" style="fill:rgb(184,187,225)"/>
<polygon points="615,805 711,813 588,771" style="fill:rgb(29,21,68)"/>
<polygon points="588,793 579,800 615,805" style="fill:rgb(179,123,140)"/>
<polygon points="497,825 588,771 564,714" style="fill:rgb(171,126,155)"/>
<polygon points="842,341 761,371 821,386" style="fill:rgb(71,33,38)"/>
<polygon points="690,326 675,276 626,347" style="fill:rgb(229,212,221)"/>
<polygon points="877,349 842,341 862,403" style="fill:rgb(140,95,95)"/>
<polygon points="862,403 842,341 821,386" style="fill:rgb(85,48,54)"/>
<polygon points="407,513 526,548 536,460" style="fill:rgb(198,203,233)"/>
<polygon points="500,601 453,719 520,605" style="fill:rgb(44,36,85)"/>
<polygon points="420,426 407,513 536,460" style="fill:rgb(221,223,241)"/>
<polygon points="655,865 643,820 630,888" style="fill:rgb(221,142,155)"/>
<polygon points="615,805 643,820 711,813" style="fill:rgb(106,94,166)"/>
<polygon points="643,820 711,823 711,813" style="fill:rgb(82,75,147)"/>
<polygon points="711,813 814,819 835,742" style="fill:rgb(25,21,71)"/>
<polygon points="689,259 675,276 693,285" style="fill:rgb(156,88,79)"/>
<polygon points="693,285 675,276 690,326" style="fill:rgb(224,169,172)"/>
<polygon points="398,620 453,719 500,601" style="fill:rgb(162,128,171)"/>
<polygon points="842,341 782,295 761,371" style="fill:rgb(110,56,54)"/>
<polygon points="946,403 883,424 983,454" style="fill:rgb(227,232,241)"/>
<polygon points="883,424 897,385 862,403" style="fill:rgb(160,155,175)"/>
<polygon points="983,454 899,550 916,577" style="fill:rgb(193,204,229)"/>
<polygon points="556,316 420,426 536,460" style="fill:rgb(227,232,241)"/>
<polygon points="389,599 398,620 405,558" style="fill:rgb(120,70,68)"/>
<polygon points="405,558 398,620 500,601" style="fill:rgb(166,153,197)"/>
<polygon points="897,385 877,349 862,403" style="fill:rgb(200,194,206)"/>
<polygon points="842,341 825,258 782,295" style="fill:rgb(101,59,62)"/>
<polygon points="367,520 389,599 405,558" style="fill:rgb(132,69,58)"/>
<polygon points="367,520 405,558 407,513" style="fill:rgb(132,75,69)"/>
<polygon points="420,426 389,503 407,513" style="fill:rgb(174,111,87)"/>
<polygon points="754,237 689,259 693,285" style="fill:rgb(125,71,67)"/>
<polygon points="675,276 607,231 609,332" style="fill:rgb(172,166,184)"/>
<polygon points="979,665 969,601 921,601" style="fill:rgb(175,184,214)"/>
<polygon points="921,601 969,601 916,577" style="fill:rgb(174,188,216)"/>
<polygon points="556,316 409,409 420,426" style="fill:rgb(222,227,238)"/>
<polygon points="420,426 409,409 389,503" style="fill:rgb(174,104,82)"/>
<polygon points="711,823 814,819 711,813" style="fill:rgb(55,52,116)"/>
<polygon points="979,665 983,600 969,601" style="fill:rgb(134,133,164)"/>
<polygon points="884,294 868,318 877,349" style="fill:rgb(198,197,214)"/>
<polygon points="877,349 868,318 842,341" style="fill:rgb(140,99,105)"/>
<polygon points="782,295 754,237 693,285" style="fill:rgb(107,51,42)"/>
<polygon points="271,510 367,520 266,504" style="fill:rgb(127,66,59)"/>
<polygon points="389,503 367,520 407,513" style="fill:rgb(94,49,43)"/>
<polygon points="983,454 883,424 899,550" style="fill:rgb(211,217,236)"/>
<polygon points="897,385 932,293 877,349" style="fill:rgb(229,234,243)"/>
<polygon points="929,742 921,601 835,742" style="fill:rgb(45,40,96)"/>
<polygon points="969,601 983,454 916,577" style="fill:rgb(189,199,222)"/>
<polygon points="630,888 643,820 615,805" style="fill:rgb(234,161,168)"/>
<polygon points="643,820 655,865 711,823" style="fill:rgb(50,35,83)"/>
<polygon points="711,823 808,850 814,819" style="fill:rgb(78,73,148)"/>
<polygon points="630,888 615,805 579,800" style="fill:rgb(238,160,166)"/>
<polygon points="877,867 929,742 835,742" style="fill:rgb(42,36,91)"/>
<polygon points="983,600 983,454 969,601" style="fill:rgb(146,150,176)"/>
<polygon points="825,258 754,237 782,295" style="fill:rgb(85,49,48)"/>
<polygon points="929,742 979,665 921,601" style="fill:rgb(161,171,210)"/>
<polygon points="482,841 497,825 403,794" style="fill:rgb(191,187,222)"/>
<polygon points="453,719 497,825 564,714" style="fill:rgb(21,14,49)"/>
<polygon points="737,225 607,231 689,259" style="fill:rgb(196,185,196)"/>
<polygon points="689,259 607,231 675,276" style="fill:rgb(197,184,196)"/>
<polygon points="427,64 276,359 409,409" style="fill:rgb(215,219,235)"/>
<polygon points="805,861 808,850 765,888" style="fill:rgb(130,129,193)"/>
<polygon points="919,883 967,754 929,742" style="fill:rgb(142,143,193)"/>
<polygon points="884,294 825,258 868,318" style="fill:rgb(185,169,180)"/>
<polygon points="868,318 825,258 842,341" style="fill:rgb(123,84,89)"/>
<polygon points="497,825 522,844 579,800" style="fill:rgb(236,154,177)"/>
<polygon points="285,619 386,713 398,620" style="fill:rgb(151,81,63)"/>
<polygon points="398,620 386,713 453,719" style="fill:rgb(134,92,128)"/>
<polygon points="285,619 398,620 389,599" style="fill:rgb(176,101,76)"/>
<polygon points="932,293 884,294 877,349" style="fill:rgb(215,224,232)"/>
<polygon points="988,372 897,385 946,403" style="fill:rgb(174,189,208)"/>
<polygon points="738,134 737,225 758,128" style="fill:rgb(54,42,45)"/>
<polygon points="754,237 737,225 689,259" style="fill:rgb(211,176,176)"/>
<polygon points="765,888 808,850 711,823" style="fill:rgb(44,34,88)"/>
<polygon points="979,761 967,754 965,877" style="fill:rgb(139,117,159)"/>
<polygon points="522,844 630,888 579,800" style="fill:rgb(209,96,121)"/>
<polygon points="705,900 765,888 711,823" style="fill:rgb(33,23,71)"/>
<polygon points="610,0 578,225 607,231" style="fill:rgb(240,244,246)"/>
<polygon points="607,231 578,225 556,316" style="fill:rgb(244,247,247)"/>
<polygon points="497,825 482,841 522,844" style="fill:rgb(235,158,194)"/>
<polygon points="522,844 529,893 630,888" style="fill:rgb(174,71,118)"/>
<polygon points="403,794 497,825 453,719" style="fill:rgb(31,21,60)"/>
<polygon points="705,900 711,823 655,865" style="fill:rgb(34,23,70)"/>
<polygon points="630,888 705,900 655,865" style="fill:rgb(48,32,75)"/>
<polygon points="835,742 814,819 877,867" style="fill:rgb(53,48,114)"/>
<polygon points="929,742 967,754 979,665" style="fill:rgb(163,169,209)"/>
<polygon points="814,819 808,850 877,867" style="fill:rgb(53,42,102)"/>
<polygon points="482,841 511,872 522,844" style="fill:rgb(197,79,124)"/>
<polygon points="630,888 645,939 705,900" style="fill:rgb(86,81,153)"/>
<polygon points="271,510 314,570 367,520" style="fill:rgb(196,121,103)"/>
<polygon points="367,520 314,570 389,599" style="fill:rgb(186,110,89)"/>
<polygon points="1025,398 988,372 983,454" style="fill:rgb(239,243,249)"/>
<polygon points="983,454 988,372 946,403" style="fill:rgb(178,189,205)"/>
<polygon points="386,713 403,794 453,719" style="fill:rgb(116,78,114)"/>
<polygon points="482,841 466,866 511,872" style="fill:rgb(180,80,139)"/>
<polygon points="393,816 403,794 325,800" style="fill:rgb(209,209,231)"/>
<polygon points="884,294 875,169 825,258" style="fill:rgb(168,151,164)"/>
<polygon points="758,128 737,225 754,237" style="fill:rgb(83,63,68)"/>
<polygon points="988,372 932,293 897,385" style="fill:rgb(232,237,244)"/>
<polygon points="979,761 1022,664 979,665" style="fill:rgb(175,186,224)"/>
<polygon points="979,665 1022,664 983,600" style="fill:rgb(204,211,236)"/>
<polygon points="983,600 1053,533 983,454" style="fill:rgb(222,226,241)"/>
<polygon points="877,867 808,850 805,861" style="fill:rgb(72,65,127)"/>
<polygon points="967,754 979,761 979,665" style="fill:rgb(124,112,152)"/>
<polygon points="466,888 529,893 511,872" style="fill:rgb(164,82,146)"/>
<polygon points="511,872 529,893 522,844" style="fill:rgb(181,87,142)"/>
<polygon points="529,893 623,923 630,888" style="fill:rgb(91,73,141)"/>
<polygon points="768,946 781,925 765,888" style="fill:rgb(114,88,160)"/>
<polygon points="781,925 805,861 765,888" style="fill:rgb(122,116,189)"/>
<polygon points="855,911 877,867 805,861" style="fill:rgb(170,172,222)"/>
<polygon points="393,816 466,866 482,841" style="fill:rgb(186,104,156)"/>
<polygon points="1022,664 1053,533 983,600" style="fill:rgb(206,210,229)"/>
<polygon points="1056,411 1025,398 983,454" style="fill:rgb(218,224,236)"/>
<polygon points="988,372 983,293 932,293" style="fill:rgb(221,229,236)"/>
<polygon points="318,774 403,794 386,713" style="fill:rgb(109,61,68)"/>
<polygon points="403,794 393,816 482,841" style="fill:rgb(209,204,229)"/>
<polygon points="768,946 765,888 705,900" style="fill:rgb(90,68,133)"/>
<polygon points="557,951 645,939 623,923" style="fill:rgb(115,108,182)"/>
<polygon points="623,923 645,939 630,888" style="fill:rgb(66,57,117)"/>
<polygon points="1011,766 1049,673 1022,664" style="fill:rgb(133,119,156)"/>
<polygon points="1022,664 1049,673 1053,533" style="fill:rgb(180,178,203)"/>
<polygon points="240,534 285,619 314,570" style="fill:rgb(149,79,64)"/>
<polygon points="314,570 285,619 389,599" style="fill:rgb(183,112,100)"/>
<polygon points="440,924 466,888 431,928" style="fill:rgb(164,98,159)"/>
<polygon points="466,866 466,888 511,872" style="fill:rgb(69,25,72)"/>
<polygon points="529,893 557,951 623,923" style="fill:rgb(49,37,87)"/>
<polygon points="965,877 1011,766 979,761" style="fill:rgb(124,110,162)"/>
<polygon points="979,761 1011,766 1022,664" style="fill:rgb(150,154,204)"/>
<polygon points="1025,398 983,293 988,372" style="fill:rgb(239,243,247)"/>
<polygon points="758,128 754,237 778,124" style="fill:rgb(136,104,109)"/>
<polygon points="781,925 855,911 805,861" style="fill:rgb(158,157,218)"/>
<polygon points="877,867 919,883 929,742" style="fill:rgb(44,36,85)"/>
<polygon points="266,504 389,503 278,369" style="fill:rgb(212,138,116)"/>
<polygon points="266,504 367,520 389,503" style="fill:rgb(107,51,42)"/>
<polygon points="725,962 768,946 705,900" style="fill:rgb(157,145,209)"/>
<polygon points="781,925 768,946 855,911" style="fill:rgb(135,116,189)"/>
<polygon points="1053,533 1056,411 983,454" style="fill:rgb(212,217,230)"/>
<polygon points="1025,398 1030,236 983,293" style="fill:rgb(239,242,247)"/>
<polygon points="278,369 389,503 409,409" style="fill:rgb(199,115,87)"/>
<polygon points="201,584 254,649 285,619" style="fill:rgb(61,28,36)"/>
<polygon points="855,911 919,883 877,867" style="fill:rgb(151,139,194)"/>
<polygon points="660,981 725,962 645,939" style="fill:rgb(132,123,202)"/>
<polygon points="645,939 725,962 705,900" style="fill:rgb(169,176,231)"/>
<polygon points="484,937 557,951 529,893" style="fill:rgb(47,32,80)"/>
<polygon points="254,649 318,774 386,713" style="fill:rgb(120,58,48)"/>
<polygon points="393,816 356,845 466,866" style="fill:rgb(188,89,142)"/>
<polygon points="754,237 825,258 875,169" style="fill:rgb(176,151,154)"/>
<polygon points="737,225 738,134 607,231" style="fill:rgb(188,176,189)"/>
<polygon points="318,774 325,800 403,794" style="fill:rgb(180,186,210)"/>
<polygon points="466,888 484,937 529,893" style="fill:rgb(176,95,161)"/>
<polygon points="557,951 660,981 645,939" style="fill:rgb(129,120,196)"/>
<polygon points="440,924 484,937 466,888" style="fill:rgb(189,111,172)"/>
<polygon points="557,951 429,1080 660,981" style="fill:rgb(59,37,93)"/>
<polygon points="240,534 314,570 271,510" style="fill:rgb(192,112,79)"/>
<polygon points="285,619 254,649 386,713" style="fill:rgb(136,68,52)"/>
<polygon points="318,774 306,801 325,800" style="fill:rgb(208,192,217)"/>
<polygon points="875,169 884,294 932,293" style="fill:rgb(204,209,226)"/>
<polygon points="896,162 875,169 932,293" style="fill:rgb(228,232,240)"/>
<polygon points="335,827 356,845 393,816" style="fill:rgb(214,153,202)"/>
<polygon points="266,504 240,534 271,510" style="fill:rgb(168,96,80)"/>
<polygon points="409,409 556,316 427,64" style="fill:rgb(225,230,239)"/>
<polygon points="276,359 278,369 409,409" style="fill:rgb(177,124,109)"/>
<polygon points="122,508 145,537 240,534" style="fill:rgb(184,97,62)"/>
<polygon points="946,956 919,883 855,911" style="fill:rgb(154,130,185)"/>
<polygon points="946,956 965,877 919,883" style="fill:rgb(93,74,124)"/>
<polygon points="919,883 965,877 967,754" style="fill:rgb(152,156,205)"/>
<polygon points="946,956 855,911 914,993" style="fill:rgb(134,103,165)"/>
<polygon points="325,800 335,827 393,816" style="fill:rgb(227,73,136)"/>
<polygon points="306,801 335,827 325,800" style="fill:rgb(157,68,119)"/>
<polygon points="660,981 730,987 725,962" style="fill:rgb(112,91,173)"/>
<polygon points="725,962 730,987 768,946" style="fill:rgb(105,82,157)"/>
<polygon points="875,169 778,124 754,237" style="fill:rgb(167,141,145)"/>
<polygon points="431,928 466,866 356,845" style="fill:rgb(71,19,66)"/>
<polygon points="431,928 466,888 466,866" style="fill:rgb(61,21,70)"/>
<polygon points="965,877 1048,786 1011,766" style="fill:rgb(107,87,129)"/>
<polygon points="1011,766 1048,786 1049,673" style="fill:rgb(120,95,127)"/>
<polygon points="1113,654 1115,506 1053,533" style="fill:rgb(172,147,154)"/>
<polygon points="1053,533 1119,464 1056,411" style="fill:rgb(174,154,162)"/>
<polygon points="207,347 276,359 218,132" style="fill:rgb(204,206,224)"/>
<polygon points="145,537 183,577 240,534" style="fill:rgb(169,86,54)"/>
<polygon points="1113,654 1053,533 1049,673" style="fill:rgb(184,164,172)"/>
<polygon points="1058,227 1030,236 1025,398" style="fill:rgb(185,195,212)"/>
<polygon points="259,788 306,801 318,774" style="fill:rgb(203,199,224)"/>
<polygon points="343,895 431,928 356,845" style="fill:rgb(122,37,84)"/>
<polygon points="947,152 896,162 932,293" style="fill:rgb(234,238,242)"/>
<polygon points="875,169 879,0 778,124" style="fill:rgb(161,140,148)"/>
<polygon points="313,840 356,845 335,827" style="fill:rgb(208,148,201)"/>
<polygon points="440,924 431,928 484,937" style="fill:rgb(84,40,89)"/>
<polygon points="484,937 429,1080 557,951" style="fill:rgb(59,35,93)"/>
<polygon points="1119,464 1100,411 1056,411" style="fill:rgb(163,139,146)"/>
<polygon points="971,157 947,152 932,293" style="fill:rgb(181,192,208)"/>
<polygon points="1115,713 1113,654 1049,673" style="fill:rgb(185,161,168)"/>
<polygon points="1135,423 1119,464 1162,470" style="fill:rgb(199,182,190)"/>
<polygon points="1115,506 1119,464 1053,533" style="fill:rgb(174,151,157)"/>
<polygon points="1119,464 1116,418 1100,411" style="fill:rgb(188,168,173)"/>
<polygon points="1058,227 1025,398 1056,411" style="fill:rgb(198,206,221)"/>
<polygon points="251,832 313,840 306,801" style="fill:rgb(204,192,222)"/>
<polygon points="306,801 313,840 335,827" style="fill:rgb(179,67,134)"/>
<polygon points="1112,812 1115,713 1048,786" style="fill:rgb(196,170,179)"/>
<polygon points="1048,786 1115,713 1049,673" style="fill:rgb(197,175,185)"/>
<polygon points="1113,654 1173,537 1115,506" style="fill:rgb(208,193,199)"/>
<polygon points="240,534 201,584 285,619" style="fill:rgb(43,22,38)"/>
<polygon points="210,747 259,788 318,774" style="fill:rgb(191,180,208)"/>
<polygon points="183,577 201,584 240,534" style="fill:rgb(86,41,48)"/>
<polygon points="1058,227 1056,411 1100,411" style="fill:rgb(168,150,159)"/>
<polygon points="201,584 206,636 254,649" style="fill:rgb(130,64,53)"/>
<polygon points="1148,681 1139,655 1113,654" style="fill:rgb(53,42,70)"/>
<polygon points="1119,464 1135,423 1116,418" style="fill:rgb(182,157,164)"/>
<polygon points="322,894 343,895 356,845" style="fill:rgb(77,15,59)"/>
<polygon points="210,747 318,774 254,649" style="fill:rgb(128,59,49)"/>
<polygon points="313,840 322,894 356,845" style="fill:rgb(94,30,84)"/>
<polygon points="1162,470 1119,464 1115,506" style="fill:rgb(71,51,69)"/>
<polygon points="1116,418 1116,194 1100,411" style="fill:rgb(170,159,168)"/>
<polygon points="971,157 932,293 983,293" style="fill:rgb(220,227,237)"/>
<polygon points="896,162 879,0 875,169" style="fill:rgb(205,206,226)"/>
<polygon points="914,993 855,911 768,946" style="fill:rgb(97,70,133)"/>
<polygon points="1043,951 1112,812 1048,786" style="fill:rgb(207,183,193)"/>
<polygon points="343,895 383,945 431,928" style="fill:rgb(149,51,101)"/>
<polygon points="431,928 429,1080 484,937" style="fill:rgb(52,27,80)"/>
<polygon points="265,882 322,894 313,840" style="fill:rgb(91,26,77)"/>
<polygon points="343,895 316,914 383,945" style="fill:rgb(165,57,107)"/>
<polygon points="1115,713 1148,681 1113,654" style="fill:rgb(59,37,60)"/>
<polygon points="1167,501 1162,470 1115,506" style="fill:rgb(71,51,71)"/>
<polygon points="1167,682 1148,681 1161,711" style="fill:rgb(64,42,71)"/>
<polygon points="201,584 183,577 206,636" style="fill:rgb(173,88,58)"/>
<polygon points="206,636 192,667 254,649" style="fill:rgb(49,23,35)"/>
<polygon points="207,347 266,504 278,369" style="fill:rgb(172,94,59)"/>
<polygon points="993,165 971,157 983,293" style="fill:rgb(172,181,194)"/>
<polygon points="1167,501 1115,506 1173,537" style="fill:rgb(182,157,169)"/>
<polygon points="1028,146 993,165 1030,236" style="fill:rgb(238,242,247)"/>
<polygon points="1173,537 1113,654 1139,655" style="fill:rgb(209,190,198)"/>
<polygon points="122,639 192,667 206,636" style="fill:rgb(51,27,39)"/>
<polygon points="1167,644 1173,537 1139,655" style="fill:rgb(204,181,189)"/>
<polygon points="1199,491 1192,453 1162,470" style="fill:rgb(67,51,74)"/>
<polygon points="1058,227 1100,411 1116,194" style="fill:rgb(156,133,141)"/>
<polygon points="1030,236 993,165 983,293" style="fill:rgb(241,244,247)"/>
<polygon points="210,747 236,795 259,788" style="fill:rgb(111,52,64)"/>
<polygon points="259,788 251,832 306,801" style="fill:rgb(204,195,222)"/>
<polygon points="1148,681 1167,644 1139,655" style="fill:rgb(142,129,151)"/>
<polygon points="236,795 243,809 259,788" style="fill:rgb(144,108,142)"/>
<polygon points="1116,194 1116,418 1135,423" style="fill:rgb(232,236,241)"/>
<polygon points="913,1031 914,993 855,1080" style="fill:rgb(120,78,123)"/>
<polygon points="192,667 210,747 254,649" style="fill:rgb(123,55,44)"/>
<polygon points="255,867 251,832 219,855" style="fill:rgb(172,170,219)"/>
<polygon points="251,832 243,809 219,855" style="fill:rgb(120,59,79)"/>
<polygon points="243,809 251,832 259,788" style="fill:rgb(201,185,218)"/>
<polygon points="957,112 947,152 971,157" style="fill:rgb(205,217,229)"/>
<polygon points="957,112 943,120 947,152" style="fill:rgb(139,148,172)"/>
<polygon points="947,152 943,120 896,162" style="fill:rgb(232,237,242)"/>
<polygon points="265,882 316,914 322,894" style="fill:rgb(64,32,85)"/>
<polygon points="322,894 316,914 343,895" style="fill:rgb(197,119,163)"/>
<polygon points="1043,951 965,877 946,956" style="fill:rgb(93,67,110)"/>
<polygon points="1043,951 1048,786 965,877" style="fill:rgb(110,82,121)"/>
<polygon points="1148,681 1167,682 1167,644" style="fill:rgb(191,175,194)"/>
<polygon points="427,64 556,316 578,225" style="fill:rgb(232,236,242)"/>
<polygon points="276,359 207,347 278,369" style="fill:rgb(144,105,99)"/>
<polygon points="1161,711 1148,681 1115,713" style="fill:rgb(65,41,66)"/>
<polygon points="1191,556 1184,537 1173,537" style="fill:rgb(61,52,76)"/>
<polygon points="1173,537 1184,537 1167,501" style="fill:rgb(72,60,80)"/>
<polygon points="1191,556 1173,537 1167,644" style="fill:rgb(74,55,74)"/>
<polygon points="1162,803 1161,711 1115,713" style="fill:rgb(206,183,191)"/>
<polygon points="1191,644 1191,556 1167,644" style="fill:rgb(75,55,75)"/>
<polygon points="1199,491 1162,470 1167,501" style="fill:rgb(53,38,65)"/>
<polygon points="1197,678 1184,661 1167,682" style="fill:rgb(48,36,68)"/>
<polygon points="1167,682 1184,661 1167,644" style="fill:rgb(87,73,99)"/>
<polygon points="987,100 971,157 993,165" style="fill:rgb(177,185,199)"/>
<polygon points="987,100 957,112 971,157" style="fill:rgb(219,222,233)"/>
<polygon points="763,0 758,128 778,124" style="fill:rgb(134,105,110)"/>
<polygon points="219,855 243,809 184,805" style="fill:rgb(122,52,57)"/>
<polygon points="251,832 255,867 313,840" style="fill:rgb(205,192,230)"/>
<polygon points="1184,661 1191,644 1167,644" style="fill:rgb(42,29,52)"/>
<polygon points="255,867 265,882 313,840" style="fill:rgb(97,27,100)"/>
<polygon points="1199,491 1184,537 1286,523" style="fill:rgb(183,161,173)"/>
<polygon points="1199,491 1167,501 1184,537" style="fill:rgb(46,33,55)"/>
<polygon points="1162,470 1192,453 1135,423" style="fill:rgb(181,155,165)"/>
<polygon points="1286,523 1184,537 1191,556" style="fill:rgb(196,180,189)"/>
<polygon points="122,508 240,534 266,504" style="fill:rgb(175,91,59)"/>
<polygon points="183,577 122,639 206,636" style="fill:rgb(161,83,64)"/>
<polygon points="184,805 236,795 210,747" style="fill:rgb(92,38,51)"/>
<polygon points="855,1080 768,946 730,987" style="fill:rgb(77,47,107)"/>
<polygon points="855,1080 914,993 768,946" style="fill:rgb(77,49,104)"/>
<polygon points="914,993 913,1031 946,956" style="fill:rgb(144,107,159)"/>
<polygon points="855,1080 730,987 660,981" style="fill:rgb(70,41,101)"/>
<polygon points="1060,149 1028,146 1058,227" style="fill:rgb(199,205,220)"/>
<polygon points="1058,227 1028,146 1030,236" style="fill:rgb(183,193,210)"/>
<polygon points="1184,661 1197,678 1191,644" style="fill:rgb(147,129,159)"/>
<polygon points="1191,644 1277,643 1191,556" style="fill:rgb(210,190,196)"/>
<polygon points="1161,711 1197,678 1167,682" style="fill:rgb(49,32,64)"/>
<polygon points="1197,785 1197,678 1161,711" style="fill:rgb(58,37,67)"/>
<polygon points="1041,1060 1043,951 946,956" style="fill:rgb(104,72,111)"/>
<polygon points="1112,812 1162,803 1115,713" style="fill:rgb(204,182,189)"/>
<polygon points="610,0 607,231 738,134" style="fill:rgb(183,175,190)"/>
<polygon points="577,0 427,64 578,225" style="fill:rgb(227,232,238)"/>
<polygon points="610,0 738,134 741,0" style="fill:rgb(183,172,185)"/>
<polygon points="738,134 758,128 741,0" style="fill:rgb(47,37,42)"/>
<polygon points="184,805 243,809 236,795" style="fill:rgb(195,169,203)"/>
<polygon points="255,867 212,906 265,882" style="fill:rgb(124,93,163)"/>
<polygon points="265,882 241,975 316,914" style="fill:rgb(73,41,94)"/>
<polygon points="184,805 210,747 169,780" style="fill:rgb(96,38,39)"/>
<polygon points="1160,861 1162,803 1112,812" style="fill:rgb(165,100,98)"/>
<polygon points="1028,146 987,100 993,165" style="fill:rgb(244,247,248)"/>
<polygon points="741,0 758,128 763,0" style="fill:rgb(71,53,59)"/>
<polygon points="169,780 210,747 192,667" style="fill:rgb(124,56,45)"/>
<polygon points="114,492 122,508 266,504" style="fill:rgb(100,38,27)"/>
<polygon points="91,740 169,780 192,667" style="fill:rgb(150,68,49)"/>
<polygon points="122,639 183,577 98,565" style="fill:rgb(37,17,33)"/>
<polygon points="778,124 879,0 763,0" style="fill:rgb(160,134,138)"/>
<polygon points="896,162 943,120 879,0" style="fill:rgb(236,238,243)"/>
<polygon points="1028,146 1003,89 987,100" style="fill:rgb(245,248,249)"/>
<polygon points="1116,194 1060,149 1058,227" style="fill:rgb(165,145,156)"/>
<polygon points="610,0 586,0 578,225" style="fill:rgb(236,240,242)"/>
<polygon points="879,0 943,120 947,0" style="fill:rgb(236,240,243)"/>
<polygon points="429,1080 855,1080 660,981" style="fill:rgb(57,34,91)"/>
<polygon points="1104,1011 1109,956 1043,951" style="fill:rgb(193,163,174)"/>
<polygon points="98,565 183,577 145,537" style="fill:rgb(55,28,41)"/>
<polygon points="586,0 577,0 578,225" style="fill:rgb(147,157,169)"/>
<polygon points="109,401 114,492 266,504" style="fill:rgb(188,102,64)"/>
<polygon points="122,508 98,565 145,537" style="fill:rgb(160,83,62)"/>
<polygon points="1016,82 1003,89 1028,146" style="fill:rgb(236,239,238)"/>
<polygon points="947,0 943,120 957,112" style="fill:rgb(148,154,176)"/>
<polygon points="1161,174 1116,194 1135,423" style="fill:rgb(242,244,245)"/>
<polygon points="1060,87 1016,82 1028,146" style="fill:rgb(205,210,224)"/>
<polygon points="0,501 105,503 0,493" style="fill:rgb(70,22,18)"/>
<polygon points="114,492 105,503 122,508" style="fill:rgb(97,36,27)"/>
<polygon points="98,565 111,649 122,639" style="fill:rgb(74,30,37)"/>
<polygon points="122,639 111,649 192,667" style="fill:rgb(81,37,39)"/>
<polygon points="1200,875 1197,785 1162,803" style="fill:rgb(62,32,61)"/>
<polygon points="1162,803 1197,785 1161,711" style="fill:rgb(61,36,66)"/>
<polygon points="1197,678 1259,669 1191,644" style="fill:rgb(184,160,176)"/>
<polygon points="105,503 98,565 122,508" style="fill:rgb(188,99,72)"/>
<polygon points="1109,956 1160,861 1112,812" style="fill:rgb(137,75,84)"/>
<polygon points="1060,87 1028,146 1060,149" style="fill:rgb(201,205,220)"/>
<polygon points="947,0 957,112 953,0" style="fill:rgb(134,139,167)"/>
<polygon points="189,907 184,805 0,917" style="fill:rgb(107,48,55)"/>
<polygon points="189,907 219,855 184,805" style="fill:rgb(109,49,61)"/>
<polygon points="189,907 212,906 219,855" style="fill:rgb(189,182,217)"/>
<polygon points="219,855 212,906 255,867" style="fill:rgb(160,158,213)"/>
<polygon points="328,1047 429,1080 383,945" style="fill:rgb(50,24,74)"/>
<polygon points="383,945 429,1080 431,928" style="fill:rgb(54,26,79)"/>
<polygon points="299,1007 383,945 316,914" style="fill:rgb(61,29,79)"/>
<polygon points="207,347 109,401 266,504" style="fill:rgb(176,91,50)"/>
<polygon points="105,503 51,562 98,565" style="fill:rgb(188,103,79)"/>
<polygon points="92,347 109,401 207,347" style="fill:rgb(152,81,54)"/>
<polygon points="957,112 987,100 953,0" style="fill:rgb(212,222,234)"/>
<polygon points="241,975 299,1007 316,914" style="fill:rgb(73,37,86)"/>
<polygon points="1041,1060 946,956 913,1031" style="fill:rgb(97,67,110)"/>
<polygon points="1043,951 1109,956 1112,812" style="fill:rgb(202,173,181)"/>
<polygon points="1308,786 1259,669 1197,785" style="fill:rgb(210,188,195)"/>
<polygon points="1197,785 1259,669 1197,678" style="fill:rgb(205,183,191)"/>
<polygon points="1199,491 1287,454 1192,453" style="fill:rgb(207,186,194)"/>
<polygon points="1308,436 1161,174 1135,423" style="fill:rgb(231,234,237)"/>
<polygon points="0,789 184,805 169,780" style="fill:rgb(69,21,26)"/>
<polygon points="212,906 241,975 265,882" style="fill:rgb(84,51,104)"/>
<polygon points="1118,105 1060,87 1060,149" style="fill:rgb(162,143,156)"/>
<polygon points="953,0 987,100 977,0" style="fill:rgb(212,215,228)"/>
<polygon points="300,1080 328,1047 299,1007" style="fill:rgb(129,68,84)"/>
<polygon points="299,1007 328,1047 383,945" style="fill:rgb(60,30,79)"/>
<polygon points="189,907 241,975 212,906" style="fill:rgb(133,101,156)"/>
<polygon points="1109,956 1160,918 1160,861" style="fill:rgb(185,122,118)"/>
<polygon points="1160,861 1200,875 1162,803" style="fill:rgb(47,25,53)"/>
<polygon points="1308,632 1277,643 1259,669" style="fill:rgb(200,170,181)"/>
<polygon points="1259,669 1277,643 1191,644" style="fill:rgb(164,134,147)"/>
<polygon points="1153,993 1136,953 1109,956" style="fill:rgb(198,158,165)"/>
<polygon points="1109,956 1136,953 1160,918" style="fill:rgb(191,141,136)"/>
<polygon points="1277,643 1286,523 1191,556" style="fill:rgb(213,195,202)"/>
<polygon points="111,649 91,740 192,667" style="fill:rgb(157,79,67)"/>
<polygon points="0,731 91,740 111,649" style="fill:rgb(159,84,75)"/>
<polygon points="987,100 992,6 977,0" style="fill:rgb(165,169,187)"/>
<polygon points="1308,436 1135,423 1192,453" style="fill:rgb(165,139,146)"/>
<polygon points="1116,194 1118,105 1060,149" style="fill:rgb(146,126,138)"/>
<polygon points="218,132 92,347 207,347" style="fill:rgb(191,174,191)"/>
<polygon points="0,501 51,562 105,503" style="fill:rgb(179,103,88)"/>
<polygon points="98,565 51,562 111,649" style="fill:rgb(146,78,77)"/>
<polygon points="1188,970 1200,875 1160,918" style="fill:rgb(74,46,66)"/>
<polygon points="1160,918 1200,875 1160,861" style="fill:rgb(41,23,50)"/>
<polygon points="987,100 1003,89 992,6" style="fill:rgb(240,245,246)"/>
<polygon points="308,0 218,132 427,64" style="fill:rgb(215,219,236)"/>
<polygon points="427,64 218,132 276,359" style="fill:rgb(215,219,237)"/>
<polygon points="1286,523 1287,454 1199,491" style="fill:rgb(215,197,204)"/>
<polygon points="105,503 114,492 0,493" style="fill:rgb(89,31,22)"/>
<polygon points="1037,1073 1041,1060 913,1031" style="fill:rgb(58,29,60)"/>
<polygon points="1003,89 1016,82 1008,15" style="fill:rgb(203,122,89)"/>
<polygon points="992,6 1003,89 1008,15" style="fill:rgb(245,241,232)"/>
<polygon points="1041,1060 1104,1011 1043,951" style="fill:rgb(195,165,182)"/>
<polygon points="1136,953 1188,970 1160,918" style="fill:rgb(91,61,76)"/>
<polygon points="1161,174 1118,105 1116,194" style="fill:rgb(242,244,245)"/>
<polygon points="1008,15 1016,82 1019,7" style="fill:rgb(160,103,81)"/>
<polygon points="1019,7 1016,82 1060,87" style="fill:rgb(215,216,223)"/>
<polygon points="855,1080 1037,1073 913,1031" style="fill:rgb(110,62,88)"/>
<polygon points="1041,1060 1082,1053 1104,1011" style="fill:rgb(168,131,156)"/>
<polygon points="1308,786 1308,632 1259,669" style="fill:rgb(207,186,193)"/>
<polygon points="1277,643 1308,632 1286,523" style="fill:rgb(192,157,163)"/>
<polygon points="1286,523 1308,436 1287,454" style="fill:rgb(168,134,147)"/>
<polygon points="1308,632 1308,436 1286,523" style="fill:rgb(143,110,127)"/>
<polygon points="1287,454 1308,436 1192,453" style="fill:rgb(178,148,157)"/>
<polygon points="1060,0 1019,7 1060,87" style="fill:rgb(206,211,225)"/>
<polygon points="1008,15 1019,7 992,6" style="fill:rgb(241,242,238)"/>
<polygon points="992,6 1019,7 977,0" style="fill:rgb(224,227,231)"/>
<polygon points="1037,1073 1082,1053 1041,1060" style="fill:rgb(95,58,78)"/>
<polygon points="1104,1011 1153,993 1109,956" style="fill:rgb(157,100,100)"/>
<polygon points="196,1014 299,1007 241,975" style="fill:rgb(47,19,48)"/>
<polygon points="196,1014 300,1080 299,1007" style="fill:rgb(123,63,74)"/>
<polygon points="328,1047 300,1080 429,1080" style="fill:rgb(107,64,114)"/>
<polygon points="1165,1019 1153,993 1104,1011" style="fill:rgb(168,120,130)"/>
<polygon points="1308,850 1308,786 1197,785" style="fill:rgb(125,80,93)"/>
<polygon points="0,917 155,958 189,907" style="fill:rgb(75,35,56)"/>
<polygon points="189,907 155,958 241,975" style="fill:rgb(87,47,73)"/>
<polygon points="1165,1019 1177,981 1153,993" style="fill:rgb(113,73,71)"/>
<polygon points="1153,993 1177,981 1136,953" style="fill:rgb(75,51,69)"/>
<polygon points="577,0 308,0 427,64" style="fill:rgb(220,225,237)"/>
<polygon points="1177,981 1188,970 1136,953" style="fill:rgb(77,49,64)"/>
<polygon points="51,0 39,359 92,347" style="fill:rgb(189,167,179)"/>
<polygon points="92,347 39,359 109,401" style="fill:rgb(156,88,68)"/>
<polygon points="0,367 39,359 0,0" style="fill:rgb(175,148,161)"/>
<polygon points="1151,71 1117,55 1118,105" style="fill:rgb(224,228,237)"/>
<polygon points="1118,105 1117,55 1060,87" style="fill:rgb(154,132,144)"/>
<polygon points="1151,71 1118,105 1161,174" style="fill:rgb(236,240,243)"/>
<polygon points="155,958 196,1014 241,975" style="fill:rgb(49,21,48)"/>
<polygon points="1117,55 1060,0 1060,87" style="fill:rgb(161,142,156)"/>
<polygon points="1019,7 1060,0 977,0" style="fill:rgb(224,228,233)"/>
<polygon points="0,493 114,492 109,401" style="fill:rgb(178,97,74)"/>
<polygon points="51,562 0,731 111,649" style="fill:rgb(171,100,94)"/>
<polygon points="91,740 0,789 169,780" style="fill:rgb(121,50,35)"/>
<polygon points="1308,850 1197,785 1200,875" style="fill:rgb(147,97,119)"/>
<polygon points="39,359 0,493 109,401" style="fill:rgb(168,99,88)"/>
<polygon points="1157,52 1151,71 1215,76" style="fill:rgb(127,126,143)"/>
<polygon points="1117,55 1162,0 1060,0" style="fill:rgb(154,135,148)"/>
<polygon points="1177,981 1193,1003 1188,970" style="fill:rgb(193,177,201)"/>
<polygon points="1308,873 1308,850 1200,875" style="fill:rgb(130,84,100)"/>
<polygon points="1102,1080 1165,1019 1104,1011" style="fill:rgb(212,203,224)"/>
<polygon points="1102,1080 1104,1011 1082,1053" style="fill:rgb(164,129,149)"/>
<polygon points="855,1080 1102,1080 1037,1073" style="fill:rgb(147,85,97)"/>
<polygon points="1037,1073 1102,1080 1082,1053" style="fill:rgb(142,86,92)"/>
<polygon points="1166,1080 1193,1003 1165,1019" style="fill:rgb(183,157,181)"/>
<polygon points="1165,1019 1193,1003 1177,981" style="fill:rgb(133,91,93)"/>
<polygon points="308,0 230,25 218,132" style="fill:rgb(209,212,228)"/>
<polygon points="1215,76 1151,71 1161,174" style="fill:rgb(207,213,224)"/>
<polygon points="1151,71 1157,52 1117,55" style="fill:rgb(150,139,159)"/>
<polygon points="0,501 0,731 51,562" style="fill:rgb(163,97,97)"/>
<polygon points="158,51 92,347 218,132" style="fill:rgb(186,167,183)"/>
<polygon points="39,359 0,367 0,493" style="fill:rgb(146,87,82)"/>
<polygon points="107,1018 187,1053 196,1014" style="fill:rgb(112,58,67)"/>
<polygon points="196,1014 187,1053 300,1080" style="fill:rgb(141,77,82)"/>
<polygon points="107,1018 196,1014 155,958" style="fill:rgb(48,18,44)"/>
<polygon points="1308,873 1200,875 1308,928" style="fill:rgb(181,119,110)"/>
<polygon points="1308,928 1200,875 1188,970" style="fill:rgb(192,134,125)"/>
<polygon points="0,731 0,789 91,740" style="fill:rgb(132,63,49)"/>
<polygon points="308,0 218,0 230,25" style="fill:rgb(94,93,124)"/>
<polygon points="230,25 158,51 218,132" style="fill:rgb(189,177,195)"/>
<polygon points="171,17 158,51 230,25" style="fill:rgb(60,49,61)"/>
<polygon points="1308,436 1215,76 1161,174" style="fill:rgb(237,239,241)"/>
<polygon points="1157,52 1162,0 1117,55" style="fill:rgb(147,122,146)"/>
<polygon points="1102,1080 1166,1080 1165,1019" style="fill:rgb(200,189,215)"/>
<polygon points="1308,976 1308,928 1188,970" style="fill:rgb(198,159,157)"/>
<polygon points="218,0 171,17 230,25" style="fill:rgb(68,66,90)"/>
<polygon points="158,51 51,0 92,347" style="fill:rgb(186,169,183)"/>
<polygon points="0,917 107,1018 155,958" style="fill:rgb(40,17,43)"/>
<polygon points="1215,76 1162,0 1157,52" style="fill:rgb(210,214,223)"/>
<polygon points="1244,1027 1188,970 1193,1003" style="fill:rgb(221,214,230)"/>
<polygon points="1166,1080 1244,1027 1193,1003" style="fill:rgb(204,198,223)"/>
<polygon points="218,0 171,0 171,17" style="fill:rgb(184,182,198)"/>
<polygon points="171,17 158,0 158,51" style="fill:rgb(54,46,59)"/>
<polygon points="171,0 158,0 171,17" style="fill:rgb(69,59,70)"/>
<polygon points="87,1057 96,1047 0,1041" style="fill:rgb(181,122,101)"/>
<polygon points="107,1018 96,1047 187,1053" style="fill:rgb(123,65,66)"/>
<polygon points="187,1053 87,1057 300,1080" style="fill:rgb(183,118,119)"/>
<polygon points="1244,1027 1308,976 1188,970" style="fill:rgb(223,213,227)"/>
<polygon points="0,789 0,917 184,805" style="fill:rgb(107,43,36)"/>
<polygon points="1166,1080 1239,1080 1244,1027" style="fill:rgb(74,73,134)"/>
<polygon points="1244,1027 1308,1043 1308,976" style="fill:rgb(219,216,237)"/>
<polygon points="0,1041 96,1047 107,1018" style="fill:rgb(104,52,58)"/>
<polygon points="96,1047 87,1057 187,1053" style="fill:rgb(180,117,98)"/>
<polygon points="1239,1080 1308,1043 1244,1027" style="fill:rgb(173,182,230)"/>
<polygon points="1239,1080 1308,1070 1308,1043" style="fill:rgb(151,161,218)"/>
<polygon points="1239,1080 1308,1080 1308,1070" style="fill:rgb(83,86,145)"/>
<polygon points="158,0 51,0 158,51" style="fill:rgb(182,165,178)"/>
<polygon points="0,917 0,1041 107,1018" style="fill:rgb(47,19,39)"/>
<polygon points="1308,436 1308,0 1215,76" style="fill:rgb(241,243,244)"/>
<polygon points="1215,76 1308,0 1162,0" style="fill:rgb(240,243,244)"/>
<polygon points="0,1041 0,1080 87,1057" style="fill:rgb(202,146,144)"/>
<polygon points="87,1057 0,1080 300,1080" style="fill:rgb(191,131,157)"/>
<polygon points="51,0 0,0 39,359" style="fill:rgb(169,139,152)"/>
</svg>