<svg width="480px" height="480px" fill="none" viewBox="0 0 480 480" version="1.1" xmlns="http://www.w3.org/2000/svg" xmlns:xlink="http://www.w3.org/1999/xlink">
<!--
box: 2x1
box: x=480 (y=box/2=240), used for calculations of paths

stroke: box/10

for rectangle set height to 240
-->
<!-- coordinate system in middle -->
<g transform="translate(240,240)">
<mask id="mask">
<path d="M -240 120 L -80 -120 L 0 0 L 80 -120 L 240 120 L -240 120 M -80 -120 L 80 -120 L 0 0 M -80 120 L -160 0 M 80 120 L 0 0" stroke-width="48" stroke="black" fill="white"></path>
</mask>
<!-- remove rect for transparency -->
<rect fill="#345694" x="-240" y="-240" width="480" height="480" rx="96"></rect>

<path d="M -240 120 L -80 -120 L 0 0 L 80 -120 L 240 120 L -240 120 M -80 -120 L 80 -120 L 0 0 M -80 120 L -160 0 M 80 120 L 0 0" fill="#ffffff" mask="url(#mask)"></path>
<!--
<path d="M -80 120 L -160 0" fill="none" stroke-width="48" stroke="green"></path>
<path d="M 80 120 L 0 0" fill="none" stroke-width="48" stroke="green"></path>
-->
</g>

</svg>
