<?xml version="1.0" standalone="no"?>
<!DOCTYPE svg PUBLIC "-//W3C//DTD SVG 20010904//EN"
 "http://www.w3.org/TR/2001/REC-SVG-20010904/DTD/svg10.dtd">
<svg version="1.0" xmlns="http://www.w3.org/2000/svg"
 width="700.000000pt" height="700.000000pt" viewBox="0 0 700.000000 700.000000"
 preserveAspectRatio="xMidYMid meet">
<metadata>
Created by potrace 1.14, written by Peter Selinger 2001-2017
</metadata>
<g transform="translate(0.000000,700.000000) scale(0.100000,-0.100000)"
fill="#000000" stroke="none">
<path d="M0 3500 l0 -3500 3500 0 3500 0 0 3500 0 3500 -3500 0 -3500 0 0
-3500z m3691 1990 c375 -37 735 -179 1034 -409 88 -67 228 -203 313 -306 103
-123 182 -245 258 -400 271 -551 271 -1198 0 -1750 -309 -629 -908 -1046
-1605 -1115 -524 -52 -1065 115 -1466 452 -230 193 -391 398 -521 663 -340
692 -248 1518 236 2125 77 97 234 252 330 327 399 311 920 462 1421 413z"/>
</g>
</svg>
