<?xml version="1.0" standalone="no"?>
<!DOCTYPE svg PUBLIC "-//W3C//DTD SVG 20010904//EN"
 "http://www.w3.org/TR/2001/REC-SVG-20010904/DTD/svg10.dtd">
<svg version="1.0" xmlns="http://www.w3.org/2000/svg"
 width="700.000000pt" height="700.000000pt" viewBox="0 0 700.000000 700.000000"
 preserveAspectRatio="xMidYMid meet">
<metadata>
Created by potrace 1.14, written by Peter Selinger 2001-2017
</metadata>
<g transform="translate(0.000000,700.000000) scale(0.100000,-0.100000)"
fill="#000000" stroke="none">
<path d="M0 3500 l0 -3500 3500 0 3500 0 0 3500 0 3500 -3500 0 -3500 0 0
-3500z m3015 1251 c264 -396 482 -720 485 -720 3 0 222 326 488 725 266 400
487 722 492 718 7 -8 2156 -3232 2173 -3260 4 -7 -86 -72 -228 -168 -129 -86
-239 -157 -245 -158 -5 -2 -392 570 -859 1271 l-849 1273 -311 -466 -311 -466
430 -645 c236 -355 430 -647 430 -650 0 -3 -108 -77 -240 -165 l-240 -160
-372 557 c-205 307 -588 882 -851 1277 l-478 719 -311 -466 -311 -467 426
-640 c235 -352 428 -644 429 -650 4 -13 -475 -332 -483 -322 -4 4 -165 246
-359 537 -194 292 -356 533 -359 538 -4 4 -171 -238 -371 -538 l-363 -545 -26
17 c-14 9 -124 82 -244 161 l-217 145 17 26 c232 357 2168 3249 2172 3246 4
-2 223 -328 486 -724z"/>
</g>
</svg>
